{"glyphs":{"0":{"ha":882,"x_min":64,"x_max":817,"o":"m 435 -17 q 222 39 304 -17 q 102 205 140 94 q 64 481 64 315 q 103 765 64 650 q 228 937 143 879 q 453 994 314 994 q 669 940 590 994 q 783 777 749 886 q 817 506 817 668 q 776 218 817 335 q 653 42 736 101 q 435 -17 569 -17 m 439 135 q 541 174 504 135 q 594 294 578 213 q 610 497 610 375 q 596 696 611 619 q 544 808 581 772 q 446 843 508 843 q 340 804 379 843 q 285 686 301 765 q 269 486 269 607 q 285 289 269 367 q 339 173 301 211 q 439 135 376 135 z "},"1":{"ha":600,"x_min":10,"x_max":593,"o":"m 449 89 l 411 140 l 593 100 l 593 0 l 72 0 l 72 100 l 289 138 l 250 89 l 250 814 l 304 811 l 74 683 l 10 804 l 283 983 l 449 983 l 449 89 z "},"2":{"ha":782,"x_min":49,"x_max":735,"o":"m 49 0 l 49 167 q 308 390 207 297 q 457 558 408 483 q 506 704 506 632 q 460 811 506 776 q 343 846 414 846 q 271 838 310 846 q 190 817 232 831 l 213 850 l 188 693 l 69 693 l 54 942 q 222 981 140 968 q 376 994 304 994 q 551 968 475 994 q 671 883 628 942 q 714 732 714 825 q 663 538 714 631 q 514 347 611 444 q 278 133 417 249 l 278 156 l 735 156 l 735 0 l 49 0 z "},"3":{"ha":800,"x_min":36,"x_max":739,"o":"m 351 -17 q 189 3 269 -17 q 36 61 108 22 l 88 200 q 216 154 150 171 q 343 138 282 138 q 442 153 399 138 q 512 203 486 169 q 538 290 538 238 q 517 369 538 336 q 453 419 496 401 q 343 436 410 436 l 221 436 l 221 576 l 336 576 q 473 612 426 576 q 519 715 519 647 q 472 820 519 789 q 351 851 424 851 q 267 843 308 851 q 185 821 225 835 l 211 847 l 193 703 l 75 703 l 64 938 q 231 980 147 965 q 393 994 315 994 q 560 970 486 994 q 678 892 635 946 q 721 749 721 839 q 656 581 721 642 q 475 507 592 521 l 468 524 q 673 453 607 514 q 739 283 739 392 q 708 149 739 206 q 624 56 678 93 q 499 1 569 18 q 351 -17 429 -17 z "},"4":{"ha":846,"x_min":11,"x_max":831,"o":"m 488 256 l 538 215 l 32 215 l 11 353 l 453 996 l 686 978 l 686 332 l 638 368 l 831 368 l 831 215 l 638 215 l 686 256 l 686 0 l 488 0 l 488 256 m 540 368 l 492 332 l 492 883 l 558 872 l 167 297 l 129 368 l 540 368 z "},"5":{"ha":760,"x_min":39,"x_max":714,"o":"m 353 -15 q 39 58 201 -15 l 93 197 q 211 156 151 171 q 322 140 271 140 q 418 159 376 140 q 483 214 460 178 q 506 303 506 250 q 469 401 506 368 q 363 445 432 433 q 196 457 294 457 l 97 457 l 117 978 l 671 978 l 668 825 l 257 825 l 313 860 l 297 560 l 246 601 l 329 601 q 553 567 468 601 q 676 467 638 532 q 714 314 714 403 q 667 133 714 206 q 539 22 621 60 q 353 -15 457 -15 z "},"6":{"ha":821,"x_min":54,"x_max":785,"o":"m 235 394 l 226 525 q 352 581 286 560 q 488 603 418 603 q 637 570 569 603 q 744 473 704 538 q 785 313 785 408 q 738 135 785 208 q 610 22 690 61 q 426 -17 529 -17 q 237 29 321 -17 q 103 173 153 75 q 54 429 54 271 q 115 732 54 606 q 286 926 176 858 q 540 994 396 994 q 711 971 622 994 l 697 828 q 628 839 661 836 q 567 842 594 842 q 390 794 457 842 q 290 653 322 746 q 258 424 258 560 q 299 206 258 276 q 426 136 340 136 q 538 179 497 136 q 579 304 579 222 q 559 393 579 358 q 503 446 539 428 q 424 464 468 464 q 329 447 378 464 q 235 394 281 429 z "},"7":{"ha":747,"x_min":26,"x_max":729,"o":"m 729 838 l 369 0 l 149 0 l 524 850 l 551 821 l 138 821 l 181 850 l 146 683 l 26 683 l 26 978 l 729 978 l 729 838 z "},"8":{"ha":836,"x_min":54,"x_max":779,"o":"m 401 -17 q 273 0 335 -17 q 161 51 211 17 q 83 134 111 85 q 54 249 54 183 q 73 344 54 300 q 126 423 92 389 q 207 480 161 457 q 306 514 253 503 l 421 457 q 356 433 388 449 q 301 394 325 417 q 261 343 276 372 q 246 276 246 314 q 267 197 246 231 q 327 144 289 163 q 414 125 365 125 q 504 144 465 125 q 565 197 543 164 q 586 272 586 231 q 559 351 586 321 q 487 404 532 382 q 388 444 442 426 q 280 484 333 463 q 181 536 226 506 q 109 611 136 567 q 82 724 82 656 q 131 875 82 815 q 260 965 181 935 q 429 994 340 994 q 590 967 515 994 q 711 883 665 939 q 757 742 757 826 q 740 654 757 693 q 690 588 722 615 q 617 540 658 560 q 525 508 575 521 l 385 569 q 458 586 425 574 q 515 619 490 599 q 553 666 540 639 q 567 726 567 693 q 547 797 567 768 q 494 840 528 825 q 421 854 461 854 q 349 840 382 854 q 294 799 315 826 q 274 732 274 772 q 301 656 274 686 q 374 606 329 626 q 472 567 418 585 q 581 527 526 549 q 680 474 635 506 q 752 397 725 443 q 779 282 779 350 q 747 152 779 208 q 661 59 715 96 q 540 3 607 22 q 401 -17 472 -17 z "},"9":{"ha":821,"x_min":36,"x_max":767,"o":"m 585 585 l 594 453 q 469 396 536 418 q 332 374 403 374 q 179 408 246 374 q 75 507 113 442 q 36 663 38 572 q 83 842 36 768 q 210 955 129 915 q 394 994 292 994 q 584 949 500 994 q 717 806 668 904 q 767 547 767 707 q 706 248 767 375 q 537 52 646 121 q 279 -17 428 -17 q 110 7 199 -17 l 124 149 q 193 138 160 142 q 253 135 226 135 q 432 183 364 135 q 531 324 500 231 q 563 554 563 418 q 522 771 563 700 q 394 842 481 842 q 283 798 324 842 q 242 675 242 754 q 262 583 242 619 q 317 529 282 547 q 396 511 351 511 q 492 530 443 511 q 585 585 540 549 z "},"\u0000":{"ha":0,"x_min":0,"x_max":0,"o":""},"\r":{"ha":250,"x_min":0,"x_max":0,"o":""}," ":{"ha":250,"x_min":0,"x_max":0,"o":""}," ":{"ha":250,"x_min":0,"x_max":0,"o":""},"A":{"ha":990,"x_min":4,"x_max":986,"o":"m 918 93 l 867 139 l 986 100 l 986 0 l 588 0 l 588 100 l 708 135 l 689 107 l 633 288 l 664 263 l 297 263 l 321 286 l 261 110 l 256 131 l 367 100 l 367 0 l 4 0 l 4 100 l 119 136 l 75 97 l 403 975 l 607 981 l 918 93 m 347 374 l 333 400 l 632 400 l 613 369 l 468 871 l 514 871 l 347 374 z "},"B":{"ha":899,"x_min":50,"x_max":840,"o":"m 511 486 l 524 506 q 692 481 621 504 q 801 408 763 458 q 840 272 840 357 q 798 125 840 186 q 672 32 756 64 q 465 0 589 0 l 50 0 l 50 100 l 179 138 l 153 97 l 153 875 l 185 833 l 50 871 l 50 971 l 343 978 l 486 978 q 658 952 588 978 q 767 873 729 926 q 804 736 804 819 q 731 560 804 622 q 511 486 658 499 m 447 838 l 321 838 l 351 868 l 351 539 l 321 567 l 417 567 q 512 579 469 567 q 579 623 554 592 q 604 708 604 654 q 583 788 604 760 q 527 826 563 815 q 447 838 492 838 m 447 142 q 544 154 501 142 q 613 199 588 167 q 638 286 638 231 q 615 372 638 340 q 558 415 593 403 q 482 428 524 428 l 321 428 l 351 463 l 351 110 l 321 142 l 447 142 z "},"C":{"ha":878,"x_min":57,"x_max":833,"o":"m 474 -17 q 265 40 360 -17 q 114 208 171 96 q 57 483 57 319 q 113 758 57 644 q 269 933 168 872 q 507 994 371 994 q 656 976 579 994 q 819 922 732 958 l 807 672 l 689 672 l 656 835 l 689 803 q 596 832 640 822 q 514 842 551 842 q 381 802 435 842 q 299 688 326 763 q 271 508 271 613 q 303 305 271 386 q 394 184 336 224 q 524 144 451 144 q 638 167 578 144 q 760 238 699 190 l 833 122 q 655 18 747 53 q 474 -17 563 -17 z "},"D":{"ha":989,"x_min":50,"x_max":933,"o":"m 488 978 q 672 949 589 978 q 813 860 754 919 q 902 712 871 800 q 933 506 933 624 q 874 228 933 340 q 709 58 815 115 q 458 0 603 0 l 50 0 l 50 100 l 179 138 l 153 97 l 153 875 l 182 835 l 50 871 l 50 971 l 365 978 l 488 978 m 468 143 q 557 156 513 143 q 638 206 601 169 q 697 311 675 242 q 719 494 719 381 q 699 672 719 604 q 643 774 678 739 q 566 822 608 810 q 482 835 524 835 l 321 835 l 351 865 l 351 113 l 321 143 l 468 143 z "},"E":{"ha":846,"x_min":50,"x_max":776,"o":"m 658 261 l 776 261 l 774 0 l 50 0 l 50 100 l 179 138 l 153 97 l 153 875 l 178 836 l 50 871 l 50 971 l 347 978 l 758 978 l 758 728 l 640 728 l 613 863 l 650 835 l 321 835 l 351 865 l 351 536 l 321 567 l 650 567 l 650 429 l 321 429 l 351 464 l 351 113 l 321 143 l 667 143 l 629 113 l 658 261 z "},"F":{"ha":781,"x_min":50,"x_max":751,"o":"m 50 0 l 50 100 l 174 136 l 153 107 l 153 875 l 181 835 l 50 871 l 50 971 l 347 978 l 751 978 l 751 725 l 633 725 l 607 856 l 643 835 l 321 835 l 351 865 l 351 533 l 321 561 l 644 561 l 644 418 l 321 418 l 351 450 l 351 107 l 326 136 l 478 100 l 478 0 l 50 0 z "},"G":{"ha":994,"x_min":58,"x_max":968,"o":"m 513 -17 q 274 40 376 -17 q 115 208 171 97 q 58 483 58 319 q 115 759 58 644 q 276 934 171 874 q 531 994 382 994 q 698 976 611 994 q 874 921 785 958 l 860 672 l 742 672 l 708 833 l 739 806 q 640 833 690 822 q 546 843 590 843 q 399 803 460 843 q 305 683 338 763 q 272 486 272 604 q 340 229 272 322 q 536 136 407 136 q 618 145 575 136 q 707 171 661 154 l 683 129 l 683 393 l 715 358 l 582 385 l 582 488 l 968 494 l 968 390 l 849 358 l 868 393 l 868 61 q 682 3 772 22 q 513 -17 592 -17 z "},"H":{"ha":1093,"x_min":50,"x_max":1043,"o":"m 50 0 l 50 100 l 179 138 l 153 97 l 153 875 l 185 833 l 50 871 l 50 971 l 453 978 l 453 878 l 321 833 l 351 876 l 351 539 l 321 569 l 774 569 l 743 539 l 743 875 l 774 835 l 640 871 l 640 971 l 1043 978 l 1043 878 l 914 835 l 942 876 l 942 97 l 914 138 l 1043 100 l 1043 0 l 640 0 l 640 100 l 768 138 l 743 97 l 743 458 l 774 426 l 321 426 l 351 458 l 351 97 l 326 138 l 453 100 l 453 0 l 50 0 z "},"I":{"ha":503,"x_min":50,"x_max":453,"o":"m 453 878 l 331 836 l 351 867 l 351 107 l 331 136 l 453 100 l 453 0 l 50 0 l 50 100 l 171 135 l 153 107 l 153 867 l 178 836 l 50 871 l 50 971 l 453 978 l 453 878 z "},"J":{"ha":475,"x_min":-61,"x_max":439,"o":"m 28 971 l 439 978 l 439 881 l 315 835 l 338 875 l 338 147 q 324 -10 338 60 q 276 -128 310 -79 q 187 -203 243 -178 q 44 -229 131 -229 q -6 -227 19 -229 q -61 -221 -32 -225 l -44 -79 q -19 -82 -31 -81 q 3 -83 -8 -83 q 108 -37 78 -83 q 139 107 139 10 l 139 875 l 163 838 l 28 871 l 28 971 z "},"K":{"ha":997,"x_min":50,"x_max":979,"o":"m 914 94 l 860 136 l 979 100 l 979 0 l 585 0 l 585 100 l 690 136 l 686 103 l 449 467 l 501 428 l 321 428 l 351 468 l 351 97 l 326 140 l 449 100 l 449 0 l 50 0 l 50 100 l 174 136 l 153 97 l 153 876 l 174 839 l 50 871 l 50 971 l 449 978 l 449 881 l 326 839 l 351 881 l 351 539 l 321 571 l 515 571 l 464 540 l 661 874 l 676 844 l 560 871 l 560 971 l 935 978 l 935 878 l 811 839 l 854 872 l 614 483 l 614 535 l 914 94 z "},"L":{"ha":775,"x_min":50,"x_max":746,"o":"m 628 294 l 746 294 l 746 0 l 50 0 l 50 100 l 175 136 l 153 97 l 153 875 l 175 838 l 50 871 l 50 971 l 463 978 l 463 878 l 331 838 l 351 875 l 351 113 l 321 143 l 624 143 l 596 111 l 628 294 z "},"M":{"ha":1213,"x_min":50,"x_max":1163,"o":"m 1163 878 l 1033 833 l 1061 885 l 1061 97 l 1033 138 l 1163 100 l 1163 0 l 775 0 l 775 100 l 910 139 l 878 97 l 878 765 l 907 764 l 653 254 l 528 247 l 283 767 l 313 767 l 313 97 l 290 135 l 415 100 l 415 0 l 50 0 l 50 100 l 179 138 l 153 97 l 153 885 l 179 836 l 50 871 l 50 971 l 396 978 l 625 446 l 601 446 l 842 971 l 1163 978 l 1163 878 z "},"N":{"ha":1072,"x_min":50,"x_max":1039,"o":"m 671 971 l 1039 978 l 1039 878 l 908 835 l 938 876 l 938 0 l 708 0 l 289 768 l 317 768 l 317 97 l 288 139 l 419 100 l 419 0 l 50 0 l 50 100 l 182 139 l 153 97 l 153 875 l 172 839 l 50 871 l 50 971 l 389 978 l 801 225 l 772 225 l 772 876 l 803 836 l 671 871 l 671 971 z "},"O":{"ha":1017,"x_min":58,"x_max":961,"o":"m 489 -17 q 260 40 357 -17 q 111 206 164 96 q 58 476 58 315 q 92 703 58 606 q 186 865 125 800 q 331 962 247 929 q 518 994 415 994 q 701 963 619 994 q 840 869 782 931 q 929 717 897 808 q 961 507 961 626 q 902 227 961 344 q 738 47 843 110 q 489 -17 632 -17 m 504 136 q 628 170 574 136 q 715 284 682 204 q 747 499 747 364 q 717 699 747 624 q 635 808 688 775 q 510 842 582 842 q 386 808 440 842 q 302 697 332 775 q 272 483 272 619 q 300 283 272 358 q 380 172 328 207 q 504 136 432 136 z "},"P":{"ha":847,"x_min":50,"x_max":815,"o":"m 421 346 l 311 346 l 351 376 l 351 97 l 324 136 l 483 100 l 483 0 l 50 0 l 50 100 l 183 139 l 153 97 l 153 878 l 188 835 l 50 871 l 50 971 l 356 978 l 482 978 q 671 938 597 978 q 780 831 744 899 q 815 676 815 763 q 773 508 815 583 q 644 389 731 432 q 421 346 557 346 m 450 836 l 321 836 l 351 867 l 351 458 l 311 489 l 422 489 q 564 539 515 489 q 613 672 613 589 q 572 792 613 749 q 450 836 531 836 z "},"Q":{"ha":1025,"x_min":58,"x_max":1142,"o":"m 919 -268 q 808 -240 868 -268 q 660 -153 747 -212 q 443 -1 574 -94 l 489 -17 q 260 42 357 -15 q 110 208 163 99 q 58 478 58 317 q 92 702 58 606 q 187 864 125 799 q 333 962 249 929 q 522 994 418 994 q 706 963 624 994 q 847 869 789 931 q 937 717 906 808 q 968 508 968 626 q 925 264 968 369 q 804 92 882 158 q 621 0 726 25 l 626 24 q 758 -53 706 -24 q 850 -97 811 -83 q 922 -111 889 -111 q 992 -98 957 -111 q 1071 -58 1026 -85 l 1142 -179 q 1020 -245 1071 -222 q 919 -268 969 -268 m 272 483 q 300 283 272 360 q 381 172 328 207 q 507 136 433 136 q 640 173 585 136 q 725 290 696 210 q 754 500 754 371 q 726 697 754 621 q 644 807 697 772 q 513 842 590 842 q 383 805 438 842 q 301 690 329 768 q 272 483 272 611 z "},"R":{"ha":926,"x_min":50,"x_max":907,"o":"m 50 0 l 50 100 l 178 136 l 153 97 l 153 875 l 188 833 l 50 871 l 50 971 l 360 978 l 494 978 q 746 908 661 978 q 831 708 831 839 q 759 515 831 592 q 535 422 688 439 l 536 444 q 625 428 590 443 q 683 385 660 413 q 725 321 706 358 l 836 107 l 779 142 l 907 100 l 907 0 l 679 0 l 554 268 q 511 349 529 321 q 467 388 493 378 q 390 397 440 399 l 318 397 l 351 425 l 351 97 l 325 138 l 465 100 l 465 0 l 50 0 m 351 486 l 318 535 l 433 535 q 579 575 531 535 q 628 694 628 615 q 589 799 628 761 q 469 836 550 836 l 318 836 l 351 867 l 351 486 z "},"S":{"ha":835,"x_min":78,"x_max":774,"o":"m 271 732 q 299 665 271 692 q 371 620 326 639 q 469 584 415 601 q 576 545 524 567 q 674 491 629 524 q 747 408 719 458 q 774 283 774 358 q 720 114 774 181 q 578 15 667 47 q 381 -18 489 -18 q 230 -3 307 -18 q 78 40 153 11 l 85 304 l 200 304 l 229 136 l 211 169 q 299 140 253 150 q 390 129 346 129 q 485 143 442 129 q 553 186 528 157 q 578 258 578 215 q 551 329 578 301 q 480 376 525 357 q 382 410 435 394 q 276 447 329 426 q 177 500 222 468 q 106 581 132 532 q 79 706 79 631 q 126 867 79 804 q 254 963 174 931 q 436 994 335 994 q 586 979 508 994 q 742 933 664 964 l 726 690 l 608 690 l 579 842 l 601 819 q 527 841 567 833 q 447 849 488 849 q 360 837 400 849 q 295 799 319 825 q 271 732 271 774 z "},"T":{"ha":850,"x_min":28,"x_max":822,"o":"m 207 0 l 207 100 l 361 139 l 325 89 l 325 865 l 365 835 l 139 835 l 183 874 l 146 697 l 28 697 l 28 978 l 822 978 l 822 697 l 704 697 l 669 865 l 711 835 l 485 835 l 525 865 l 525 89 l 490 139 l 643 100 l 643 0 l 207 0 z "},"U":{"ha":1031,"x_min":25,"x_max":1006,"o":"m 603 971 l 1006 978 l 1006 878 l 882 836 l 904 886 l 904 382 q 891 251 904 311 q 849 141 878 190 q 774 56 819 92 q 662 2 728 21 q 510 -17 596 -17 q 322 12 394 -17 q 210 85 250 40 q 152 183 169 131 q 131 283 135 235 q 128 364 128 331 l 128 885 l 150 838 l 25 871 l 25 971 l 428 978 l 428 878 l 307 836 l 326 885 l 326 364 q 330 294 326 328 q 343 231 333 260 q 373 181 353 203 q 427 148 393 160 q 513 136 461 136 q 600 149 565 136 q 656 184 635 161 q 688 238 678 207 q 702 305 699 268 q 706 382 706 342 l 706 886 l 724 840 l 603 871 l 603 971 z "},"V":{"ha":985,"x_min":6,"x_max":981,"o":"m 381 -1 l 86 871 l 132 836 l 6 871 l 6 971 l 417 978 l 417 878 l 281 839 l 304 888 l 517 172 l 489 172 l 721 876 l 736 838 l 610 871 l 610 971 l 981 978 l 981 878 l 856 840 l 901 875 l 592 -1 l 381 -1 z "},"W":{"ha":1418,"x_min":6,"x_max":1414,"o":"m 1049 971 l 1414 978 l 1414 878 l 1288 842 l 1333 893 l 1082 -1 l 894 -1 l 686 738 l 722 738 l 506 -1 l 319 -1 l 89 876 l 108 844 l 6 871 l 6 971 l 389 978 l 389 878 l 268 839 l 292 876 l 449 178 l 408 179 l 626 972 l 810 978 l 1021 182 l 981 181 l 1158 876 l 1175 840 l 1049 871 l 1049 971 z "},"X":{"ha":988,"x_min":25,"x_max":964,"o":"m 908 94 l 850 136 l 964 100 l 964 0 l 554 0 l 554 100 l 669 133 l 674 103 l 449 417 l 496 418 l 268 94 l 258 138 l 379 100 l 379 0 l 25 0 l 25 100 l 139 138 l 85 92 l 399 515 l 397 464 l 103 875 l 149 844 l 42 871 l 42 971 l 443 978 l 443 878 l 335 844 l 342 869 l 544 578 l 500 588 l 700 869 l 710 840 l 597 871 l 597 971 l 946 978 l 946 878 l 833 833 l 882 875 l 589 479 l 594 529 l 908 94 z "},"Y":{"ha":900,"x_min":3,"x_max":896,"o":"m 240 0 l 240 100 l 374 139 l 347 97 l 347 385 l 364 317 l 76 868 l 113 838 l 3 871 l 3 971 l 390 978 l 390 878 l 267 844 l 282 879 l 482 456 l 444 456 l 647 871 l 663 836 l 535 871 l 535 971 l 896 978 l 896 878 l 785 844 l 824 874 l 531 317 l 546 385 l 546 97 l 518 139 l 651 100 l 651 0 l 240 0 z "},"Z":{"ha":865,"x_min":47,"x_max":807,"o":"m 47 0 l 47 132 l 585 856 l 606 832 l 183 832 l 229 854 l 197 697 l 79 697 l 79 978 l 801 978 l 801 846 l 265 115 l 258 146 l 701 146 l 660 117 l 688 281 l 807 281 l 806 0 l 47 0 z "},"a":{"ha":779,"x_min":46,"x_max":763,"o":"m 669 99 l 643 138 l 763 100 l 763 1 l 519 -11 l 493 122 l 507 118 q 386 17 451 50 q 251 -17 321 -17 q 104 40 163 -17 q 46 204 46 97 q 80 330 46 283 q 179 397 114 376 q 338 418 244 418 l 489 418 l 475 403 l 475 494 q 444 588 475 560 q 353 615 413 615 q 290 610 324 615 q 218 593 257 604 l 238 614 l 219 501 l 99 501 l 88 704 q 260 745 182 732 q 404 758 339 758 q 601 703 533 758 q 669 531 669 647 l 669 99 m 242 224 q 266 148 242 172 q 328 124 290 124 q 404 145 363 124 q 483 204 446 167 l 475 171 l 475 329 l 489 315 l 369 315 q 269 293 297 315 q 242 224 242 271 z "},"b":{"ha":818,"x_min":1,"x_max":775,"o":"m 346 -17 q 229 -10 292 -17 q 94 11 167 -3 l 94 986 l 125 933 l 1 969 l 1 1069 l 289 1081 l 289 622 l 265 651 q 375 730 315 701 q 501 758 435 758 q 643 716 582 758 q 740 590 704 674 q 775 385 775 507 q 753 224 775 297 q 683 97 732 151 q 551 13 633 43 q 346 -17 468 -17 m 381 122 q 526 188 481 122 q 572 369 572 253 q 554 501 572 446 q 504 585 536 556 q 425 615 472 615 q 349 596 389 615 q 265 536 308 576 l 289 596 l 289 92 l 265 139 q 381 122 331 122 z "},"c":{"ha":717,"x_min":40,"x_max":690,"o":"m 379 -17 q 206 28 283 -17 q 85 158 129 74 q 40 364 40 243 q 72 549 40 474 q 158 670 104 624 q 279 738 213 717 q 417 758 346 758 q 551 742 483 758 q 663 704 619 725 l 657 500 l 532 500 l 511 614 l 526 603 q 476 615 506 611 q 421 619 446 619 q 322 590 361 619 q 263 505 282 560 q 243 375 243 450 q 265 239 243 294 q 328 155 288 183 q 424 126 369 126 q 518 144 467 126 q 625 199 569 163 l 690 100 q 535 12 613 40 q 379 -17 457 -17 z "},"d":{"ha":839,"x_min":44,"x_max":818,"o":"m 319 -17 q 177 26 239 -17 q 80 151 115 68 q 44 354 44 235 q 149 659 44 560 q 442 758 253 758 q 503 756 472 758 q 567 746 533 753 l 531 724 l 531 953 l 544 933 l 431 971 l 431 1069 l 725 1081 l 725 108 l 701 136 l 818 100 l 818 1 l 574 -10 l 549 110 l 568 103 q 447 13 507 43 q 319 -17 386 -17 m 394 126 q 471 147 431 126 q 554 206 511 167 l 531 147 l 531 646 l 554 601 q 436 619 489 619 q 292 553 338 619 q 247 372 247 488 q 265 242 247 297 q 316 156 283 186 q 394 126 349 126 z "},"e":{"ha":763,"x_min":43,"x_max":717,"o":"m 382 -17 q 204 26 281 -17 q 85 152 128 68 q 43 357 43 236 q 88 572 43 482 q 215 710 133 661 q 408 758 297 758 q 585 715 517 758 q 685 598 653 672 q 717 431 717 524 q 715 383 717 407 q 708 333 713 360 l 200 333 l 200 449 l 542 449 l 517 431 q 506 528 518 486 q 467 594 494 571 q 393 618 440 618 q 306 587 339 618 q 258 503 272 556 q 243 385 243 450 q 261 253 243 311 q 320 161 279 194 q 428 128 361 128 q 530 145 475 128 q 644 197 585 163 l 710 93 q 545 10 629 38 q 382 -17 461 -17 z "},"f":{"ha":519,"x_min":39,"x_max":596,"o":"m 43 0 l 43 100 l 154 132 l 136 111 l 136 626 l 154 606 l 39 606 l 39 710 l 158 740 l 136 711 l 136 800 q 215 1020 136 949 q 428 1092 294 1092 q 508 1085 467 1092 q 596 1065 549 1078 l 568 936 q 514 949 542 944 q 461 954 486 954 q 367 923 404 954 q 331 817 331 892 l 331 711 l 306 735 l 504 735 l 500 606 l 311 606 l 331 626 l 331 111 l 313 132 l 442 100 l 442 0 l 43 0 z "},"g":{"ha":797,"x_min":18,"x_max":774,"o":"m 361 -336 q 103 -290 188 -336 q 18 -154 18 -244 q 66 -38 18 -85 q 207 39 114 8 l 204 0 q 118 28 151 4 q 85 90 85 51 q 89 117 85 103 q 104 152 93 131 q 135 206 115 174 q 183 286 154 238 l 186 254 q 81 344 117 286 q 44 483 44 403 q 133 685 44 613 q 378 758 221 758 q 569 719 490 758 l 525 728 l 757 736 l 757 632 l 647 610 l 660 631 q 692 572 681 606 q 703 496 703 539 q 613 292 703 367 q 369 218 522 218 q 231 238 297 218 l 263 257 l 240 108 l 211 122 l 489 122 q 701 68 629 122 q 774 -90 774 14 q 670 -273 774 -210 q 361 -336 567 -336 m 378 -200 q 538 -176 489 -200 q 588 -107 588 -153 q 554 -42 588 -62 q 458 -21 521 -21 l 217 -21 l 263 -11 q 188 -118 188 -58 q 233 -179 188 -158 q 378 -200 279 -200 m 369 349 q 474 385 438 349 q 510 492 510 421 q 476 595 510 563 q 376 628 443 628 q 274 593 308 628 q 239 489 239 558 q 272 385 239 421 q 369 349 306 349 z "},"h":{"ha":875,"x_min":22,"x_max":861,"o":"m 22 0 l 22 100 l 138 133 l 114 106 l 114 967 l 138 936 l 22 969 l 22 1069 l 308 1081 l 308 615 l 265 625 q 407 726 332 693 q 550 758 482 758 q 663 732 613 758 q 741 653 713 706 q 768 522 769 601 l 768 106 l 750 133 l 861 100 l 861 0 l 490 0 l 490 100 l 597 131 l 574 101 l 574 481 q 544 579 575 547 q 465 611 514 611 q 383 590 428 611 q 294 528 339 569 l 308 557 l 308 101 l 290 131 l 392 100 l 392 0 l 22 0 z "},"i":{"ha":442,"x_min":40,"x_max":421,"o":"m 328 114 l 314 131 l 421 100 l 421 0 l 40 0 l 40 100 l 147 131 l 133 114 l 133 621 l 146 608 l 40 638 l 40 738 l 328 747 l 328 114 m 225 856 q 142 885 174 856 q 111 968 111 914 q 144 1055 111 1026 q 226 1083 176 1083 q 307 1055 275 1083 q 339 969 339 1026 q 306 884 339 913 q 225 856 274 856 z "},"j":{"ha":404,"x_min":-82,"x_max":314,"o":"m 10 -336 q -35 -333 -12 -336 q -82 -326 -57 -331 l -68 -189 q -39 -192 -53 -190 q -12 -193 -25 -193 q 85 -162 56 -193 q 115 -57 115 -132 l 115 628 l 133 606 l 22 638 l 22 738 l 310 747 l 310 1 q 288 -154 310 -90 q 228 -258 267 -218 q 133 -317 189 -299 q 10 -336 78 -336 m 200 856 q 117 885 149 856 q 86 968 86 914 q 119 1055 86 1026 q 201 1083 151 1083 q 282 1055 250 1083 q 314 969 314 1026 q 281 884 314 913 q 200 856 249 856 z "},"k":{"ha":825,"x_min":22,"x_max":815,"o":"m 22 0 l 22 100 l 138 133 l 114 97 l 114 961 l 129 939 l 22 969 l 22 1069 l 308 1081 l 308 442 l 276 471 l 454 471 l 407 449 l 532 639 l 546 618 l 449 638 l 449 736 l 788 747 l 788 649 l 671 622 l 724 651 l 553 399 l 556 449 l 739 103 l 710 128 l 815 99 l 815 0 l 590 0 l 414 354 l 442 342 l 276 342 l 308 354 l 308 97 l 289 135 l 397 100 l 397 0 l 22 0 z "},"l":{"ha":424,"x_min":22,"x_max":401,"o":"m 308 114 l 294 131 l 401 100 l 401 0 l 22 0 l 22 100 l 129 131 l 114 114 l 114 954 l 126 940 l 22 969 l 22 1069 l 308 1081 l 308 114 z "},"m":{"ha":1325,"x_min":40,"x_max":1311,"o":"m 756 629 l 728 622 q 869 724 794 690 q 1013 758 944 758 q 1159 701 1100 758 q 1218 524 1218 643 l 1218 106 l 1200 133 l 1311 100 l 1311 0 l 946 0 l 946 100 l 1047 131 l 1024 101 l 1024 481 q 997 579 1024 547 q 926 611 969 611 q 846 589 890 611 q 757 524 801 567 l 771 567 q 774 547 774 556 q 774 531 774 538 l 774 106 l 756 133 l 853 100 l 853 0 l 500 0 l 500 100 l 601 131 l 579 101 l 579 481 q 551 579 579 547 q 482 611 524 611 q 401 590 446 611 q 315 528 357 569 l 328 557 l 328 101 l 310 131 l 407 100 l 407 0 l 40 0 l 40 100 l 157 133 l 133 106 l 133 635 l 157 603 l 40 638 l 40 738 l 285 749 l 310 615 l 285 625 q 424 724 350 690 q 567 758 499 758 q 681 727 631 758 q 756 629 731 696 z "},"n":{"ha":894,"x_min":40,"x_max":881,"o":"m 40 0 l 40 100 l 157 133 l 133 106 l 133 635 l 157 603 l 40 638 l 40 738 l 285 749 l 310 615 l 285 625 q 426 726 351 693 q 569 758 501 758 q 726 699 664 758 q 788 521 789 640 l 788 106 l 769 133 l 881 100 l 881 0 l 510 0 l 510 100 l 615 131 l 593 101 l 593 479 q 563 579 593 547 q 485 611 533 611 q 403 590 447 611 q 315 528 358 569 l 328 557 l 328 101 l 310 131 l 411 100 l 411 0 l 40 0 z "},"o":{"ha":801,"x_min":43,"x_max":758,"o":"m 411 758 q 667 661 575 758 q 758 385 758 564 q 714 170 758 260 q 586 32 669 81 q 386 -17 503 -17 q 133 81 222 -17 q 43 357 43 178 q 87 572 43 482 q 213 710 131 661 q 411 758 294 758 m 401 619 q 283 558 322 619 q 244 367 244 496 q 282 180 244 238 q 396 122 319 122 q 486 150 451 122 q 539 235 521 178 q 557 375 557 292 q 518 560 557 501 q 401 619 479 619 z "},"p":{"ha":844,"x_min":28,"x_max":801,"o":"m 28 -319 l 28 -219 l 146 -181 l 121 -214 l 121 629 l 143 603 l 28 638 l 28 738 l 272 749 l 294 628 l 272 639 q 399 728 338 697 q 528 758 461 758 q 669 716 608 758 q 766 591 731 674 q 801 389 801 508 q 756 164 801 254 q 627 28 710 74 q 435 -17 544 -17 q 365 -12 401 -17 q 290 1 329 -7 l 315 24 l 315 -214 l 294 -185 l 424 -219 l 424 -319 l 28 -319 m 410 121 q 553 188 508 121 q 599 369 599 254 q 581 501 599 446 q 531 585 563 556 q 451 615 499 615 q 375 596 415 615 q 292 536 335 576 l 315 588 l 315 103 l 292 140 q 410 121 357 121 z "},"q":{"ha":819,"x_min":44,"x_max":818,"o":"m 417 -319 l 417 -215 l 551 -178 l 531 -211 l 531 92 l 568 103 q 447 13 507 43 q 319 -17 386 -17 q 177 26 239 -17 q 80 151 115 68 q 44 354 44 235 q 97 592 44 503 q 242 719 149 681 q 458 758 335 758 q 586 750 519 758 q 725 728 653 742 l 725 -211 l 703 -178 l 818 -215 l 818 -319 l 417 -319 m 394 126 q 471 147 431 126 q 554 206 511 167 l 531 147 l 531 647 l 554 601 q 436 619 489 619 q 292 553 338 619 q 247 372 247 488 q 265 242 247 297 q 316 156 283 186 q 394 126 349 126 z "},"r":{"ha":653,"x_min":40,"x_max":633,"o":"m 40 0 l 40 100 l 153 132 l 133 103 l 133 636 l 156 603 l 40 638 l 40 738 l 285 749 l 310 617 l 285 622 q 408 723 347 688 q 539 758 469 758 q 633 744 583 758 l 621 488 l 508 488 l 488 638 l 506 600 q 488 604 497 603 q 471 606 479 606 q 385 579 428 606 q 313 511 343 553 l 328 564 l 328 103 l 306 132 l 443 100 l 443 0 l 40 0 z "},"s":{"ha":685,"x_min":57,"x_max":639,"o":"m 254 554 q 282 503 254 522 q 353 469 310 483 q 447 440 397 456 q 540 401 496 425 q 611 336 583 376 q 639 232 639 296 q 594 94 639 150 q 474 11 550 39 q 301 -17 397 -17 q 184 -7 246 -17 q 57 19 122 3 l 65 229 l 188 229 l 203 107 l 186 131 q 247 117 214 122 q 306 113 281 113 q 373 122 342 113 q 424 151 404 132 q 444 199 444 169 q 417 251 444 232 q 345 285 389 271 q 253 314 301 299 q 162 354 206 329 q 90 421 118 379 q 63 529 63 463 q 103 660 63 610 q 210 735 143 711 q 358 758 278 758 q 479 748 415 758 q 610 718 543 738 l 603 532 l 479 532 l 457 642 l 483 613 q 368 631 418 631 q 285 610 317 631 q 254 554 254 590 z "},"t":{"ha":549,"x_min":8,"x_max":535,"o":"m 311 -17 q 166 41 215 -17 q 117 213 117 99 l 117 638 l 142 613 l 8 613 l 8 717 l 144 749 l 117 715 l 117 904 l 313 939 l 313 715 l 292 742 l 503 742 l 500 613 l 292 613 l 313 638 l 313 239 q 332 153 313 179 q 390 126 351 126 q 440 134 413 126 q 499 154 467 142 l 535 47 q 311 -17 418 -17 z "},"u":{"ha":876,"x_min":14,"x_max":853,"o":"m 324 -17 q 168 44 231 -17 q 106 226 106 104 l 106 632 l 124 604 l 14 638 l 14 738 l 300 747 l 300 258 q 329 162 300 193 q 407 131 358 131 q 490 151 444 131 q 579 214 535 171 l 565 179 l 565 636 l 583 604 l 474 638 l 474 738 l 760 747 l 760 103 l 736 136 l 853 100 l 853 1 l 608 -10 l 582 126 l 610 117 q 466 17 540 50 q 324 -17 392 -17 z "},"v":{"ha":756,"x_min":-6,"x_max":761,"o":"m 447 736 l 761 747 l 761 649 l 682 614 l 708 643 l 479 -3 l 251 -3 l 50 636 l 78 614 l -6 636 l -6 736 l 335 747 l 335 649 l 233 618 l 247 643 l 389 121 l 374 121 l 531 632 l 542 617 l 447 636 l 447 736 z "},"w":{"ha":1156,"x_min":-6,"x_max":1161,"o":"m 865 736 l 1161 747 l 1161 649 l 1075 621 l 1100 642 l 924 -3 l 714 -3 l 564 594 l 601 593 l 432 -3 l 222 -3 l 58 633 l 79 615 l -6 636 l -6 736 l 322 747 l 322 649 l 221 621 l 242 636 l 358 114 l 326 114 l 492 738 l 690 749 l 843 107 l 814 107 l 942 632 l 960 614 l 865 636 l 865 736 z "},"x":{"ha":790,"x_min":14,"x_max":774,"o":"m 14 0 l 14 99 l 129 125 l 82 99 l 300 400 l 344 404 l 568 736 l 758 747 l 758 649 l 640 618 l 696 649 l 485 364 l 443 361 l 206 0 l 14 0 m 406 0 l 406 100 l 496 117 l 485 90 l 311 336 l 88 647 l 126 614 l 31 636 l 31 736 l 375 747 l 375 649 l 282 628 l 296 657 l 447 438 l 696 100 l 663 126 l 774 100 l 774 0 l 406 0 z "},"y":{"ha":772,"x_min":-8,"x_max":778,"o":"m 11 -326 l 29 -189 q 70 -193 51 -192 q 106 -194 89 -194 q 205 -170 167 -194 q 272 -95 243 -146 q 328 36 300 -44 l 321 -29 l 54 633 l 72 617 l -8 636 l -8 736 l 338 747 l 338 649 l 240 622 l 250 639 l 426 119 l 379 129 l 536 636 l 546 617 l 450 636 l 450 736 l 778 747 l 778 649 l 690 621 l 717 638 l 488 3 q 425 -140 458 -78 q 349 -247 392 -203 q 251 -313 307 -290 q 119 -336 194 -336 q 11 -326 71 -336 z "},"z":{"ha":700,"x_min":47,"x_max":654,"o":"m 653 239 l 654 0 l 47 0 l 47 114 l 451 649 l 476 611 l 139 611 l 192 653 l 172 518 l 54 518 l 53 742 l 638 742 l 638 628 l 231 78 l 224 131 l 547 131 l 497 78 l 535 239 l 653 239 z "},"¹":{"ha":408,"x_min":3,"x_max":401,"o":"m 310 560 l 286 593 l 401 560 l 401 479 l 47 479 l 47 560 l 181 588 l 157 560 l 157 943 l 199 944 l 47 861 l 3 956 l 188 1076 l 310 1076 l 310 560 z "},"²":{"ha":511,"x_min":36,"x_max":472,"o":"m 38 479 l 38 593 q 181 712 124 657 q 269 813 239 767 q 299 897 299 860 q 278 952 299 936 q 224 968 258 968 q 140 951 179 968 l 158 979 l 146 882 l 47 882 l 36 1057 q 146 1080 92 1072 q 250 1088 200 1088 q 403 1050 342 1088 q 465 925 465 1013 q 441 828 465 875 q 379 740 417 782 q 297 661 342 699 q 210 590 251 624 l 207 604 l 472 604 l 472 479 l 38 479 z "},"³":{"ha":518,"x_min":21,"x_max":479,"o":"m 229 467 q 123 478 176 467 q 21 513 69 490 l 68 614 q 142 591 104 600 q 213 582 179 582 q 285 600 256 582 q 315 660 315 618 q 293 712 315 693 q 218 731 271 731 l 135 731 l 135 832 l 208 832 q 285 851 261 832 q 308 906 308 869 q 283 963 308 946 q 219 979 258 979 q 176 975 199 979 q 129 964 153 971 l 154 986 l 143 901 l 44 901 l 38 1051 q 147 1078 92 1069 q 253 1088 201 1088 q 363 1072 314 1088 q 442 1023 413 1057 q 471 933 471 989 q 428 830 471 865 q 321 786 386 794 l 313 793 q 439 751 399 788 q 479 650 479 714 q 445 547 479 588 q 354 486 411 506 q 229 467 297 467 z "},"⁴":{"ha":525,"x_min":-12,"x_max":506,"o":"m 271 632 l 289 601 l 7 601 l -12 713 l 229 1085 l 428 1072 l 428 688 l 392 711 l 506 711 l 506 601 l 392 601 l 428 632 l 428 479 l 271 479 l 271 632 m 293 711 l 271 688 l 271 996 l 293 994 l 86 669 l 67 711 l 293 711 z "},"ª":{"ha":608,"x_min":43,"x_max":582,"o":"m 514 517 l 492 549 l 582 519 l 582 446 l 399 439 l 381 533 l 390 531 q 302 458 351 483 q 199 433 253 433 q 86 477 129 433 q 43 594 43 521 q 68 685 43 651 q 142 733 93 718 q 260 749 190 749 l 376 749 l 367 739 l 367 806 q 343 869 367 850 q 274 889 319 889 q 226 885 251 889 q 171 874 200 882 l 185 890 l 169 810 l 79 810 l 69 956 q 202 985 140 975 q 313 994 264 994 q 463 954 413 994 q 514 831 514 914 l 514 517 m 192 611 q 209 556 192 576 q 256 536 226 536 q 313 549 282 536 q 372 586 344 563 l 367 568 l 367 690 l 376 679 l 285 679 q 251 676 268 679 q 221 667 235 674 q 199 647 207 661 q 192 611 192 633 m 47 210 l 47 343 l 582 343 l 582 210 l 47 210 z "},"º":{"ha":656,"x_min":51,"x_max":604,"o":"m 314 433 q 122 506 192 433 q 51 703 51 578 q 85 858 51 793 q 183 959 119 924 q 338 994 247 994 q 533 923 463 994 q 604 728 604 851 q 569 572 604 639 q 470 469 535 506 q 314 433 406 433 m 75 210 l 75 343 l 582 343 l 582 210 l 75 210 m 325 543 q 390 564 364 543 q 429 624 417 585 q 442 721 442 664 q 414 842 442 801 q 329 883 386 883 q 242 840 271 883 q 214 713 214 796 q 242 585 214 628 q 325 543 269 543 z "},"½":{"ha":1279,"x_min":31,"x_max":1226,"o":"m 339 464 l 315 497 l 431 464 l 431 383 l 76 383 l 76 464 l 210 492 l 186 464 l 186 847 l 228 849 l 76 765 l 32 860 l 217 981 l 339 981 l 339 464 m 249 -12 l 828 992 l 982 992 l 403 -12 l 249 -12 m 792 0 l 792 114 q 935 233 878 178 q 1023 334 993 288 q 1053 418 1053 381 q 1033 473 1053 457 q 978 489 1013 489 q 894 472 933 489 l 913 500 l 900 403 l 801 403 l 790 578 q 900 601 846 593 q 1004 608 954 608 q 1158 571 1096 608 q 1219 446 1219 533 q 1195 349 1219 396 q 1133 261 1171 303 q 1051 182 1096 219 q 964 111 1006 144 l 961 125 l 1226 125 l 1226 0 l 792 0 z "},"¼":{"ha":1246,"x_min":18,"x_max":1210,"o":"m 325 464 l 301 497 l 417 464 l 417 383 l 63 383 l 63 464 l 196 492 l 172 464 l 172 847 l 214 849 l 63 765 l 18 860 l 203 981 l 325 981 l 325 464 m 236 -12 l 815 992 l 969 992 l 390 -12 l 236 -12 m 975 153 l 993 122 l 711 122 l 692 233 l 933 606 l 1132 593 l 1132 208 l 1096 232 l 1210 232 l 1210 122 l 1096 122 l 1132 153 l 1132 0 l 975 0 l 975 153 m 997 232 l 975 208 l 975 517 l 997 515 l 790 190 l 771 232 l 997 232 z "},"¾":{"ha":1294,"x_min":21,"x_max":1260,"o":"m 229 371 q 123 383 176 371 q 21 417 69 394 l 68 518 q 142 495 104 504 q 213 486 179 486 q 285 504 256 486 q 315 564 315 522 q 293 616 315 597 q 218 635 271 635 l 135 635 l 135 736 l 208 736 q 285 755 261 736 q 308 810 308 774 q 283 867 308 850 q 219 883 258 883 q 176 879 199 883 q 129 868 153 875 l 154 890 l 143 806 l 44 806 l 38 956 q 147 983 92 974 q 253 992 201 992 q 363 976 314 992 q 442 927 413 961 q 471 838 471 893 q 428 734 471 769 q 321 690 386 699 l 313 697 q 439 655 399 692 q 479 554 479 618 q 445 451 479 492 q 354 390 411 410 q 229 371 297 371 m 286 -12 l 865 992 l 1019 992 l 440 -12 l 286 -12 m 1024 153 l 1042 122 l 760 122 l 740 233 l 982 606 l 1181 593 l 1181 208 l 1144 232 l 1258 232 l 1258 122 l 1144 122 l 1181 153 l 1181 0 l 1024 0 l 1024 153 m 1046 232 l 1024 208 l 1024 517 l 1046 515 l 839 190 l 819 232 l 1046 232 z "},"ı":{"ha":442,"x_min":40,"x_max":421,"o":"m 328 114 l 314 131 l 421 100 l 421 0 l 40 0 l 40 100 l 147 131 l 133 114 l 133 621 l 146 608 l 40 638 l 40 738 l 328 747 l 328 114 z "},"ȷ":{"ha":404,"x_min":-82,"x_max":310,"o":"m 10 -336 q -35 -333 -12 -336 q -82 -326 -57 -331 l -68 -189 q -39 -192 -53 -190 q -12 -193 -25 -193 q 85 -162 56 -193 q 115 -57 115 -132 l 115 628 l 133 606 l 22 638 l 22 738 l 310 747 l 310 1 q 288 -154 310 -90 q 228 -258 267 -218 q 133 -317 189 -299 q 10 -336 78 -336 z "},"Æ":{"ha":1308,"x_min":1,"x_max":1239,"o":"m 1 0 l 1 100 l 121 136 l 68 96 l 433 864 l 454 833 l 318 871 l 318 971 l 632 978 l 1221 978 l 1221 728 l 1103 728 l 1074 871 l 1110 835 l 790 835 l 821 865 l 821 542 l 790 574 l 1113 574 l 1113 435 l 790 435 l 821 471 l 821 111 l 790 143 l 1126 143 l 1090 108 l 1121 261 l 1239 261 l 1238 0 l 529 0 l 529 100 l 647 139 l 622 106 l 622 313 l 653 281 l 314 281 l 357 313 l 254 94 l 243 136 l 365 100 l 365 0 l 1 0 m 390 393 l 368 419 l 653 419 l 622 393 l 622 856 l 653 835 l 565 835 l 604 854 l 390 393 z "},"æ":{"ha":1189,"x_min":46,"x_max":1143,"o":"m 97 507 l 86 704 q 253 745 176 732 q 389 758 329 758 q 528 730 475 758 q 597 646 581 701 l 608 617 l 592 632 q 699 726 633 693 q 840 758 764 758 q 1063 671 983 758 q 1143 425 1143 583 q 1140 365 1143 393 q 1133 318 1138 338 l 661 318 l 674 350 l 675 331 q 728 182 679 236 q 856 128 776 128 q 1069 199 951 128 l 1135 93 q 974 12 1057 40 q 810 -17 892 -17 q 642 27 714 -17 q 533 150 569 71 l 582 149 q 440 23 522 64 q 281 -18 358 -18 q 164 8 217 -18 q 78 83 111 33 q 46 203 46 132 q 115 373 46 317 q 331 429 185 429 l 492 429 l 478 407 l 478 494 q 448 588 478 558 q 354 617 418 617 q 292 611 326 617 q 217 593 258 606 l 233 614 l 215 507 l 97 507 m 489 183 q 481 257 483 218 q 478 342 478 296 l 492 318 l 372 318 q 271 300 300 318 q 242 228 242 282 q 271 149 242 176 q 343 121 300 121 q 421 141 381 121 q 499 200 461 161 l 489 183 m 672 404 l 657 429 l 956 429 l 942 413 q 913 571 943 522 q 821 619 883 619 q 712 565 750 619 q 672 404 674 511 z "},"Œ":{"ha":1303,"x_min":58,"x_max":1233,"o":"m 492 -7 q 258 47 356 -7 q 110 208 161 100 q 58 478 58 315 q 116 763 58 651 q 281 930 174 875 q 536 985 389 985 q 598 983 558 985 q 681 981 638 982 q 760 979 724 981 q 813 978 796 978 l 1217 978 l 1217 728 l 1099 728 l 1069 863 l 1107 835 l 785 835 l 815 865 l 815 542 l 785 574 l 1108 574 l 1108 435 l 785 435 l 815 465 l 815 113 l 785 143 l 1124 143 l 1086 113 l 1115 261 l 1233 261 l 1232 0 l 746 0 q 695 -1 728 0 q 624 -4 663 -3 q 551 -6 586 -6 q 492 -7 517 -7 m 617 101 l 617 875 l 658 821 q 617 826 639 825 q 574 830 596 828 q 526 832 551 832 q 419 816 467 832 q 339 761 372 800 q 289 655 306 722 q 272 485 272 588 q 299 283 272 358 q 380 176 326 208 q 511 144 433 144 q 567 147 538 144 q 619 153 596 150 q 649 157 642 156 l 617 101 z "},"œ":{"ha":1285,"x_min":43,"x_max":1239,"o":"m 389 -17 q 135 75 228 -17 q 43 356 43 167 q 88 576 43 486 q 215 711 132 665 q 413 757 299 757 q 604 712 532 757 q 706 581 676 667 l 647 582 q 758 713 686 668 q 935 758 831 758 q 1105 717 1038 758 q 1206 601 1172 675 q 1239 431 1239 528 q 1237 383 1239 408 q 1231 333 1235 358 l 731 333 l 774 374 q 774 359 774 367 q 774 340 774 351 q 795 231 775 279 q 855 156 815 183 q 953 128 894 128 q 1052 145 997 128 q 1165 199 1107 163 l 1231 93 q 1067 10 1150 38 q 907 -17 985 -17 q 735 31 804 -17 q 633 169 665 79 l 694 165 q 584 31 657 79 q 389 -17 511 -17 m 401 122 q 490 147 453 122 q 547 228 526 171 q 567 379 567 285 q 549 519 567 467 q 496 596 531 572 q 410 619 461 619 q 323 596 360 619 q 265 517 286 572 q 244 365 244 463 q 263 224 244 278 q 316 146 281 169 q 401 122 351 122 m 772 418 l 732 449 l 1064 449 l 1038 429 q 1029 526 1040 482 q 991 594 1018 569 q 915 619 964 619 q 836 592 867 619 q 790 518 806 564 q 772 418 775 472 z "},"ð":{"ha":808,"x_min":38,"x_max":754,"o":"m 376 -17 q 189 28 264 -17 q 76 151 114 72 q 38 332 38 229 q 81 527 38 446 q 195 650 124 608 q 354 692 267 692 q 490 659 429 692 q 588 563 551 626 l 569 571 q 498 780 553 696 q 358 908 443 864 q 158 953 272 951 l 174 1092 q 435 1037 325 1092 q 616 888 546 982 q 720 678 686 794 q 754 440 754 563 q 732 257 754 340 q 664 113 710 174 q 547 17 618 51 q 376 -17 475 -17 m 390 122 q 475 147 439 122 q 531 223 511 172 q 551 353 551 274 q 511 513 551 464 q 400 561 471 561 q 317 539 353 561 q 260 467 281 517 q 240 338 240 418 q 281 173 240 224 q 390 122 322 122 m 296 764 l 235 843 l 600 1096 l 661 1015 l 296 764 z "},"Þ":{"ha":832,"x_min":50,"x_max":799,"o":"m 50 0 l 50 100 l 178 136 l 153 97 l 153 875 l 178 836 l 50 871 l 50 971 l 453 978 l 453 878 l 329 833 l 351 872 l 351 739 l 321 775 l 501 775 q 722 712 646 775 q 799 514 799 649 q 704 288 799 363 q 447 214 610 214 l 321 214 l 351 249 l 351 100 l 325 138 l 479 100 l 479 0 l 50 0 m 351 321 l 321 351 l 408 351 q 505 365 463 351 q 573 411 547 378 q 599 501 599 444 q 577 583 599 554 q 519 624 556 613 q 435 636 482 636 l 321 636 l 351 668 l 351 321 z "},"þ":{"ha":822,"x_min":6,"x_max":779,"o":"m 6 -319 l 6 -219 l 122 -182 l 99 -215 l 99 964 l 125 931 l 6 969 l 6 1069 l 293 1081 l 293 647 l 250 639 q 377 728 315 697 q 506 758 439 758 q 647 716 585 758 q 744 591 708 674 q 779 389 779 508 q 733 164 779 254 q 605 28 688 74 q 413 -17 522 -17 q 343 -12 379 -17 q 268 1 307 -7 l 293 15 l 293 -215 l 274 -186 l 401 -219 l 401 -319 l 6 -319 m 388 121 q 531 188 486 121 q 576 369 576 254 q 558 501 576 446 q 508 585 540 556 q 429 615 475 615 q 353 596 393 615 q 269 536 313 576 l 293 571 l 293 115 l 269 140 q 388 121 335 121 z "},"ĸ":{"ha":846,"x_min":40,"x_max":836,"o":"m 40 0 l 40 100 l 157 133 l 133 97 l 133 628 l 147 606 l 40 636 l 40 736 l 328 747 l 328 444 l 296 468 l 474 468 l 428 449 l 551 639 l 561 618 l 467 638 l 467 736 l 806 747 l 806 649 l 686 622 l 742 651 l 572 396 l 576 443 l 758 103 l 729 128 l 836 99 l 836 0 l 610 0 l 431 357 l 461 339 l 296 339 l 328 357 l 328 97 l 308 135 l 422 100 l 422 0 l 40 0 z "},"ẞ":{"ha":1011,"x_min":50,"x_max":974,"o":"m 638 -15 q 540 -8 593 -15 q 431 17 486 0 l 440 243 l 547 243 l 576 115 l 544 146 q 635 129 593 129 q 733 169 694 129 q 771 281 771 208 q 738 383 771 347 q 644 436 706 418 q 496 463 582 454 l 496 585 l 735 890 l 731 835 l 319 835 l 351 865 l 351 0 l 50 0 l 50 100 l 178 138 l 151 103 l 151 875 l 178 836 l 50 871 l 50 971 l 347 978 l 878 978 l 878 833 l 647 532 l 624 572 q 753 547 690 564 q 866 499 817 531 q 944 416 915 468 q 974 283 974 364 q 930 119 974 186 q 810 19 886 53 q 638 -15 735 -15 z "},"ß":{"ha":968,"x_min":39,"x_max":956,"o":"m 629 576 q 653 523 629 544 q 713 483 676 501 q 792 444 750 464 q 872 397 835 425 q 932 328 908 369 q 956 226 956 288 q 915 89 956 143 q 808 9 875 35 q 656 -17 740 -17 q 548 -7 603 -17 q 436 19 493 3 l 446 222 l 564 222 l 581 96 l 558 132 q 609 115 582 121 q 660 108 636 108 q 715 117 690 108 q 755 148 740 126 q 769 200 769 169 q 747 261 769 236 q 687 307 724 286 q 608 349 650 328 q 529 396 567 369 q 469 460 492 422 q 446 550 446 497 q 465 632 446 600 q 511 687 483 664 q 566 731 539 710 q 612 776 593 751 q 631 838 631 800 q 612 899 631 874 q 561 940 593 925 q 488 954 529 954 q 375 919 419 954 q 331 807 331 883 l 331 0 l 43 0 l 43 100 l 161 133 l 136 103 l 136 621 l 161 606 l 39 606 l 39 710 l 158 740 l 136 713 l 136 789 q 165 931 136 874 q 242 1024 193 989 q 356 1076 292 1060 q 492 1092 421 1092 q 660 1065 586 1092 q 776 987 733 1039 q 819 858 819 935 q 800 771 819 806 q 752 713 781 736 q 695 669 724 689 q 648 628 667 650 q 629 576 629 607 z "},"Ə":{"ha":940,"x_min":56,"x_max":883,"o":"m 443 -17 q 245 32 333 -17 q 106 177 157 81 q 56 415 56 274 q 58 473 56 442 q 64 533 60 504 l 763 533 l 763 392 l 247 392 l 269 417 q 292 256 269 318 q 356 165 314 194 q 457 136 399 136 q 567 168 518 136 q 644 275 615 200 q 672 476 672 350 q 642 675 672 596 q 554 794 611 754 q 418 835 497 835 q 290 812 360 835 q 146 740 221 789 l 68 854 q 268 960 168 925 q 460 994 368 994 q 675 938 579 994 q 827 772 771 882 q 883 503 883 663 q 824 219 883 335 q 665 43 764 103 q 443 -17 565 -17 z "},"ə":{"ha":761,"x_min":46,"x_max":719,"o":"m 382 758 q 559 716 483 758 q 677 590 635 674 q 719 385 719 507 q 675 171 719 261 q 549 32 631 81 q 354 -17 467 -17 q 179 26 247 -17 q 78 144 111 69 q 46 311 46 218 q 49 363 46 336 q 54 418 51 390 l 563 418 l 561 301 l 213 301 l 247 336 q 256 225 246 274 q 294 149 267 176 q 371 122 322 122 q 458 153 425 122 q 505 238 490 185 q 519 354 519 290 q 501 489 519 431 q 443 581 483 547 q 336 615 403 615 q 234 598 290 615 q 119 544 178 581 l 54 649 q 218 731 135 704 q 382 758 301 758 z "},"µ":{"ha":914,"x_min":22,"x_max":861,"o":"m 192 154 l 236 82 q 266 -17 249 39 q 297 -148 283 -74 q 310 -319 310 -222 l 115 -319 l 115 633 l 133 604 l 22 638 l 22 738 l 310 746 l 310 250 q 338 160 310 189 q 413 131 365 131 q 497 152 451 131 q 588 217 543 174 l 575 185 l 575 636 l 593 604 l 482 638 l 482 738 l 769 746 l 769 103 l 746 136 l 861 100 l 861 1 l 618 -10 l 592 126 l 611 117 q 485 17 550 51 q 363 -17 419 -17 q 253 24 299 -17 q 192 154 207 65 z "},"ﬁ":{"ha":924,"x_min":39,"x_max":903,"o":"m 43 0 l 43 100 l 154 132 l 136 111 l 136 629 l 154 608 l 39 608 l 39 711 l 158 742 l 136 713 l 136 800 q 215 1020 136 949 q 426 1092 294 1092 q 469 1090 444 1092 q 517 1085 493 1089 q 557 1078 540 1082 l 542 943 q 505 951 522 949 q 471 953 488 953 q 366 921 401 953 q 331 817 331 889 l 331 713 l 310 739 l 810 747 l 810 114 l 796 131 l 903 100 l 903 0 l 522 0 l 522 100 l 629 131 l 615 114 l 615 628 l 644 608 l 311 608 l 331 629 l 331 111 l 313 132 l 442 100 l 442 0 l 43 0 m 710 856 q 627 885 658 856 q 596 968 596 914 q 628 1055 596 1026 q 711 1083 661 1083 q 792 1055 760 1083 q 824 969 824 1026 q 791 884 824 913 q 710 856 758 856 z "},"ﬂ":{"ha":946,"x_min":39,"x_max":925,"o":"m 43 0 l 43 100 l 157 133 l 136 103 l 136 631 l 157 606 l 39 606 l 39 710 l 154 740 l 136 711 l 136 797 q 181 965 136 900 q 304 1061 225 1031 q 483 1092 383 1092 q 600 1083 539 1092 q 726 1054 661 1074 l 551 1063 l 832 1078 l 832 103 l 811 133 l 925 100 l 925 0 l 542 0 l 542 100 l 658 133 l 638 103 l 638 960 l 676 936 q 585 950 628 944 q 508 956 542 956 q 406 938 442 956 q 353 895 369 921 q 334 844 338 869 q 331 800 331 818 l 331 711 l 308 735 l 503 735 l 499 606 l 308 606 l 331 631 l 331 103 l 310 133 l 442 100 l 442 0 l 43 0 z "},"$":{"ha":843,"x_min":86,"x_max":772,"o":"m 364 -182 l 364 35 l 418 3 q 401 2 410 3 q 383 1 392 1 q 242 16 322 1 q 86 60 161 31 l 89 324 l 208 324 l 232 183 q 313 157 271 165 q 396 149 356 149 q 488 163 447 149 q 553 205 528 176 q 578 275 578 233 q 551 347 578 319 q 481 390 525 374 q 385 422 438 407 q 280 454 332 436 q 184 501 228 472 q 114 576 140 529 q 88 693 88 622 q 133 848 88 786 q 256 942 178 910 q 429 975 333 974 l 364 938 l 364 1153 l 499 1153 l 499 939 l 444 975 l 458 975 q 549 966 497 975 q 652 943 601 957 q 740 914 703 929 l 726 672 l 608 672 l 582 806 q 517 823 551 817 q 449 829 483 829 q 365 817 404 829 q 303 781 326 806 q 279 715 279 757 q 306 649 279 675 q 377 606 333 624 q 474 574 421 589 q 579 541 526 560 q 676 492 632 522 q 746 416 719 463 q 772 299 772 369 q 727 142 772 206 q 605 44 682 79 q 433 3 528 10 l 499 44 l 499 -182 l 364 -182 z "},"¢":{"ha":742,"x_min":64,"x_max":681,"o":"m 681 251 q 544 173 613 199 q 408 142 475 147 l 460 182 l 460 -29 l 332 -29 l 332 179 l 390 142 q 220 183 293 142 q 106 305 147 225 q 64 496 64 385 q 108 690 64 614 q 224 807 151 767 q 382 853 297 847 l 332 814 l 332 1025 l 460 1025 l 460 819 l 389 853 q 490 849 440 856 q 582 830 539 843 q 653 803 625 817 l 647 617 l 536 617 l 519 711 q 471 723 497 719 q 424 726 444 726 q 326 698 365 726 q 269 620 288 669 q 250 504 250 571 q 271 378 250 431 q 331 300 292 326 q 425 274 371 274 q 518 291 468 274 q 619 344 568 308 l 681 251 z "},"€":{"ha":965,"x_min":61,"x_max":893,"o":"m 365 578 l 333 618 l 681 618 l 681 526 l 61 526 l 61 618 l 192 618 l 153 581 q 279 888 172 782 q 564 994 386 994 q 714 976 638 994 q 876 924 790 958 l 864 699 l 746 699 l 717 836 l 746 804 q 571 842 647 842 q 458 809 501 842 q 392 717 414 776 q 365 578 371 658 m 153 404 l 192 360 l 61 360 l 61 451 l 681 451 l 681 360 l 333 360 l 365 415 q 398 265 372 325 q 467 174 424 204 q 575 143 511 143 q 684 167 624 143 q 815 238 744 190 l 893 122 q 710 19 800 53 q 540 -15 621 -15 q 352 33 435 -15 q 218 174 269 81 q 153 404 167 267 z "},"£":{"ha":907,"x_min":75,"x_max":806,"o":"m 75 0 l 75 100 l 219 146 l 163 101 q 208 172 196 128 q 219 271 219 217 q 213 374 219 319 q 200 486 207 428 l 228 451 l 75 451 l 75 556 l 210 571 l 193 540 q 185 630 189 585 q 181 708 181 675 q 223 881 181 818 q 338 969 265 943 q 504 994 411 994 q 642 983 569 994 q 794 951 715 972 l 779 715 l 661 715 l 633 861 l 651 833 q 583 847 617 842 q 522 851 550 851 q 418 820 456 851 q 381 710 381 789 q 385 635 381 681 q 393 546 389 589 l 360 571 l 621 571 l 621 451 l 371 451 l 400 494 q 410 413 406 453 q 414 335 414 374 q 397 219 414 272 q 331 124 379 165 l 308 144 l 683 143 l 656 110 l 688 279 l 806 279 l 806 0 l 75 0 z "},"¥":{"ha":965,"x_min":43,"x_max":925,"o":"m 157 404 l 157 496 l 338 496 l 324 464 l 111 868 l 147 838 l 43 871 l 43 971 l 425 978 l 425 878 l 301 844 l 313 879 l 513 461 l 479 461 l 682 871 l 697 836 l 569 871 l 569 971 l 925 978 l 925 878 l 819 844 l 858 874 l 640 460 l 624 496 l 806 496 l 806 404 l 157 404 m 279 0 l 279 100 l 408 139 l 382 97 l 382 268 l 413 238 l 157 238 l 157 329 l 806 329 l 806 238 l 543 238 l 581 271 l 581 97 l 553 139 l 682 100 l 682 0 l 279 0 z "},"ƒ":{"ha":771,"x_min":21,"x_max":736,"o":"m 140 -285 q 83 -281 114 -285 q 21 -271 53 -278 l 36 -135 q 107 -139 79 -139 q 191 -122 163 -139 q 231 -72 219 -104 q 247 7 243 -40 l 296 542 l 335 518 l 189 518 l 189 621 l 351 643 l 301 610 l 317 779 q 365 960 328 892 q 465 1060 403 1029 q 610 1092 528 1092 q 672 1088 640 1092 q 736 1076 704 1085 l 722 942 q 651 946 682 946 q 567 928 596 946 q 527 878 539 911 q 511 797 515 846 l 493 608 l 456 638 l 674 638 l 671 518 l 446 518 l 489 554 l 440 32 q 392 -147 431 -76 q 290 -251 354 -218 q 140 -285 226 -285 z "},"₣":{"ha":864,"x_min":104,"x_max":807,"o":"m 106 0 l 106 100 l 229 136 l 208 107 l 208 278 l 232 247 l 104 247 l 104 344 l 232 344 l 208 319 l 208 875 l 236 835 l 106 871 l 106 971 l 403 978 l 807 978 l 807 725 l 689 725 l 663 856 l 699 835 l 376 835 l 407 865 l 407 550 l 376 579 l 700 579 l 700 458 l 376 458 l 407 490 l 407 319 l 376 344 l 574 344 l 574 247 l 376 247 l 407 278 l 407 107 l 382 136 l 533 100 l 533 0 l 106 0 z "},"₤":{"ha":924,"x_min":93,"x_max":824,"o":"m 93 0 l 93 100 l 238 144 l 175 97 q 224 169 211 124 q 238 271 238 214 q 235 340 238 304 q 226 415 232 376 l 272 372 l 93 372 l 93 464 l 628 464 l 628 372 l 383 372 l 428 393 q 431 356 431 369 q 432 324 432 342 q 424 248 431 282 q 399 183 417 214 q 346 122 382 151 l 324 144 l 703 143 l 675 111 l 706 269 l 824 269 l 824 0 l 93 0 m 93 539 l 93 631 l 249 631 l 207 586 q 201 649 204 614 q 199 711 199 683 q 240 878 199 815 q 356 967 282 940 q 524 994 429 994 q 663 983 590 994 q 813 950 736 971 l 797 724 l 679 724 l 653 861 l 671 832 q 546 851 608 851 q 441 824 483 851 q 399 717 399 796 q 400 675 399 700 q 403 626 401 650 q 407 586 406 603 l 356 631 l 628 631 l 628 539 l 93 539 z "},"₦":{"ha":1215,"x_min":96,"x_max":1133,"o":"m 121 0 l 121 100 l 253 139 l 222 97 l 222 435 l 388 435 l 388 97 l 357 139 l 489 100 l 489 0 l 121 0 m 779 0 l 550 435 l 746 435 l 871 225 l 843 225 l 843 435 l 1007 435 l 1007 0 l 779 0 m 96 367 l 96 460 l 1133 460 l 1133 367 l 96 367 m 96 533 l 96 626 l 1133 626 l 1133 533 l 96 533 m 843 561 l 843 876 l 872 836 l 740 871 l 740 971 l 1110 978 l 1110 878 l 979 835 l 1007 876 l 1007 561 l 843 561 m 222 561 l 222 875 l 243 839 l 121 871 l 121 971 l 460 978 l 678 561 l 483 560 l 360 768 l 388 768 l 388 561 l 222 561 z "},"₧":{"ha":964,"x_min":50,"x_max":919,"o":"m 50 0 l 50 100 l 189 139 l 157 97 l 157 625 l 207 604 l 50 604 l 50 724 l 207 724 l 157 685 l 157 878 l 193 835 l 50 871 l 50 971 l 360 978 l 483 978 q 673 938 599 978 q 783 831 747 899 q 819 676 819 764 l 818 653 l 769 724 l 919 724 l 919 604 l 761 604 l 817 640 q 765 489 810 556 q 637 384 721 422 q 426 346 553 346 l 324 346 l 356 378 l 356 97 l 326 136 l 488 100 l 488 0 l 50 0 m 356 457 l 324 489 l 426 489 q 558 529 510 489 q 614 639 606 569 l 628 604 l 324 604 l 356 633 l 356 457 m 456 836 l 324 836 l 356 868 l 356 690 l 324 724 l 649 724 l 615 683 q 573 795 611 754 q 456 836 535 836 z "},"₩":{"ha":1410,"x_min":6,"x_max":1406,"o":"m 322 -1 l 208 414 l 392 426 l 451 178 l 413 179 l 485 426 l 635 429 l 510 -1 l 322 -1 m 164 574 l 82 876 l 108 844 l 6 871 l 6 971 l 389 978 l 389 878 l 264 839 l 285 876 l 357 574 l 164 574 m 38 356 l 38 447 l 1365 447 l 1365 356 l 38 356 m 1236 563 l 1083 572 l 1157 876 l 1172 840 l 1051 871 l 1051 971 l 1406 978 l 1406 878 l 1283 842 l 1329 893 l 1236 563 m 38 522 l 38 614 l 1365 614 l 1365 522 l 38 522 m 915 572 l 738 529 l 681 729 l 724 728 l 664 529 l 526 578 l 632 972 l 803 978 l 915 572 m 888 -1 l 767 426 l 954 436 l 1026 182 l 986 181 l 1050 435 l 1197 428 l 1076 -1 l 888 -1 z "},"₫":{"ha":953,"x_min":79,"x_max":853,"o":"m 354 -17 q 213 26 275 -17 q 115 151 150 68 q 79 354 79 235 q 184 659 79 560 q 478 758 289 758 q 538 756 507 758 q 601 746 568 753 l 565 724 l 565 878 l 590 851 l 306 851 l 306 958 l 590 958 l 565 939 l 565 1075 l 760 1075 l 760 939 l 738 958 l 853 958 l 853 851 l 738 851 l 760 878 l 760 108 l 736 136 l 853 100 l 853 1 l 608 -10 l 583 110 l 604 103 q 482 13 543 43 q 354 -17 421 -17 m 108 -194 l 108 -87 l 853 -87 l 853 -194 l 108 -194 m 429 126 q 506 147 465 126 q 589 206 546 167 l 565 147 l 565 646 l 589 601 q 471 619 524 619 q 327 553 372 619 q 282 372 282 488 q 300 242 282 297 q 351 156 318 186 q 429 126 385 126 z "},"₭":{"ha":1096,"x_min":104,"x_max":1031,"o":"m 104 0 l 104 100 l 229 136 l 207 97 l 207 468 l 235 438 l 104 438 l 104 567 l 235 567 l 207 539 l 207 878 l 228 839 l 104 871 l 104 971 l 503 978 l 503 881 l 381 839 l 406 882 l 406 539 l 374 567 l 558 567 l 511 539 l 713 875 l 728 844 l 610 871 l 610 971 l 986 978 l 986 878 l 860 839 l 904 874 l 692 533 l 685 567 l 960 567 l 960 438 l 692 438 l 703 474 l 965 94 l 910 136 l 1031 100 l 1031 0 l 635 0 l 635 100 l 740 136 l 736 101 l 496 468 l 539 438 l 368 438 l 406 468 l 406 97 l 379 140 l 503 100 l 503 0 l 104 0 z "},"₱":{"ha":968,"x_min":50,"x_max":903,"o":"m 50 0 l 50 100 l 185 139 l 153 92 l 153 539 l 174 515 l 54 515 l 54 607 l 903 607 l 903 515 l 749 515 l 803 564 q 738 435 785 490 q 612 349 690 379 q 421 318 533 318 l 310 318 l 351 350 l 351 92 l 322 136 l 483 100 l 483 0 l 50 0 m 351 429 l 326 451 l 422 451 q 532 479 488 451 q 596 546 576 507 l 592 515 l 326 515 l 351 539 l 351 429 m 54 682 l 54 774 l 176 774 l 153 746 l 153 872 l 174 840 l 50 871 l 50 971 l 356 978 l 479 978 q 715 906 633 978 q 811 719 796 835 l 764 774 l 903 774 l 903 682 l 54 682 m 351 738 l 264 774 l 614 774 l 588 754 q 541 822 576 799 q 450 844 506 844 l 264 844 l 351 871 l 351 738 z "},"₲":{"ha":1017,"x_min":65,"x_max":971,"o":"m 971 494 l 971 390 l 856 358 l 876 393 l 876 72 q 696 8 783 29 q 532 -17 608 -14 l 583 13 l 583 -182 l 449 -182 l 449 14 l 508 -17 q 274 42 374 -15 q 120 210 175 99 q 65 482 65 321 q 122 759 65 647 q 278 931 178 871 q 507 994 378 990 l 449 964 l 449 1153 l 583 1153 l 583 968 l 532 994 q 690 976 606 994 q 864 921 775 957 l 850 674 l 732 674 l 699 833 l 729 804 q 630 832 679 824 q 543 840 581 840 q 398 801 457 840 q 309 685 339 763 q 279 492 279 608 q 344 232 279 325 q 536 139 410 139 q 715 175 614 139 l 690 132 l 690 394 l 724 358 l 585 385 l 585 488 l 971 494 z "},"₵":{"ha":924,"x_min":61,"x_max":867,"o":"m 867 142 q 692 42 781 75 q 524 3 604 8 l 574 40 l 574 -182 l 439 -182 l 439 39 l 499 1 q 271 62 369 3 q 117 230 172 121 q 61 488 61 339 q 117 743 61 636 q 270 910 172 850 q 500 975 368 969 l 439 926 l 439 1153 l 574 1153 l 574 933 l 519 978 q 680 958 600 976 q 850 904 760 940 l 838 657 l 719 657 l 692 794 q 609 815 649 807 q 532 824 569 824 q 391 785 449 824 q 304 675 333 746 q 275 507 275 604 q 308 322 275 399 q 401 203 342 244 q 536 161 460 161 q 656 185 593 161 q 789 256 719 208 l 867 142 z "},"₹":{"ha":871,"x_min":89,"x_max":793,"o":"m 546 0 l 406 271 q 367 340 383 314 q 333 378 350 365 q 296 394 317 390 q 243 399 275 399 l 89 399 l 89 514 l 294 514 q 441 558 392 514 q 490 696 490 601 q 483 757 490 728 l 531 719 l 89 719 l 89 811 l 793 811 l 793 719 l 653 719 l 688 740 q 689 724 688 733 q 690 707 690 715 q 616 515 688 589 q 396 424 544 440 l 392 454 q 477 436 444 453 q 533 390 510 419 q 576 324 556 361 l 703 106 l 646 143 l 768 100 l 768 0 l 546 0 m 89 886 l 89 978 l 793 978 l 793 886 l 89 886 z "},"₺":{"ha":932,"x_min":97,"x_max":876,"o":"m 111 0 l 111 100 l 242 138 l 213 97 l 213 479 l 243 450 l 97 396 l 97 489 l 676 707 l 676 615 l 371 500 l 413 551 l 413 121 l 382 153 l 413 153 q 515 167 467 153 q 601 218 564 182 q 660 316 639 254 q 682 471 682 378 l 876 471 q 845 274 876 361 q 753 126 814 188 q 603 33 692 65 q 401 0 515 0 l 111 0 m 97 568 l 97 661 l 246 717 l 213 667 l 213 978 l 413 978 l 413 751 l 371 765 l 676 879 l 676 786 l 97 568 z "},"₼":{"ha":1294,"x_min":36,"x_max":1257,"o":"m 36 0 l 36 100 l 133 128 l 110 76 q 162 456 124 296 q 263 723 200 617 q 413 885 326 829 q 607 951 499 942 l 578 914 l 578 1139 l 717 1139 l 717 914 l 690 954 q 888 896 801 949 q 1035 738 974 843 q 1133 468 1096 632 q 1183 75 1169 304 l 1160 124 l 1257 100 l 1257 0 l 983 0 q 952 370 975 219 q 892 614 929 521 q 803 751 856 707 q 681 801 750 794 l 717 828 l 717 161 l 578 161 l 578 826 l 607 797 q 489 740 540 788 q 399 598 438 692 q 338 356 361 504 q 304 0 314 208 l 36 0 z "},"₽":{"ha":913,"x_min":115,"x_max":881,"o":"m 119 396 l 119 493 l 251 493 l 218 469 l 218 878 l 254 835 l 115 871 l 115 971 l 421 978 l 544 978 q 795 901 710 978 q 881 694 881 824 q 790 478 881 560 q 532 396 699 396 l 119 396 m 115 0 l 115 100 l 250 139 l 218 97 l 218 256 l 251 229 l 119 229 l 119 322 l 632 322 l 632 229 l 383 229 l 417 256 l 417 97 l 388 136 l 549 100 l 549 0 l 115 0 m 417 469 l 375 493 l 490 493 q 631 541 583 493 q 678 671 678 589 q 637 794 678 751 q 515 836 596 836 l 385 836 l 417 868 l 417 469 z "},"₡":{"ha":925,"x_min":61,"x_max":867,"o":"m 265 -182 l 317 88 l 322 36 q 133 202 206 85 q 61 489 61 319 q 110 732 61 629 q 249 896 160 835 q 454 972 338 957 l 433 936 l 475 1153 l 567 1153 l 503 821 q 378 774 429 815 q 301 665 326 733 q 275 507 275 597 q 292 369 275 432 q 344 260 310 306 q 428 189 379 214 l 358 -182 l 265 -182 m 431 -182 l 496 165 q 516 163 506 164 q 536 161 526 161 q 663 187 599 161 q 789 256 726 213 l 867 142 q 693 42 781 76 q 525 4 606 8 l 567 54 l 522 -182 l 431 -182 m 718 657 l 685 818 l 719 785 q 645 808 681 799 q 575 821 610 817 l 640 1153 l 732 1153 l 686 917 l 667 961 q 754 938 708 951 q 850 904 800 925 l 836 657 l 718 657 z "},"¤":{"ha":910,"x_min":81,"x_max":825,"o":"m 825 165 l 731 65 l 582 204 l 654 207 q 566 154 617 174 q 451 135 515 135 q 336 155 388 135 q 250 211 285 175 l 329 215 l 172 67 l 88 158 l 240 301 l 238 222 q 186 306 204 258 q 168 407 168 354 q 187 510 168 461 q 239 599 206 558 l 226 532 l 81 668 l 176 769 l 328 626 l 261 618 q 350 668 300 650 q 463 686 400 686 q 572 669 525 686 q 653 624 619 651 l 588 628 l 735 765 l 818 675 l 671 536 l 667 613 q 724 524 704 574 q 743 418 743 474 q 725 316 743 365 q 672 228 707 267 l 669 308 l 825 165 m 454 251 q 528 272 500 251 q 571 328 557 292 q 585 411 585 364 q 556 527 586 485 q 458 569 525 569 q 384 549 414 569 q 340 492 354 529 q 326 407 326 456 q 358 294 326 338 q 454 251 389 251 z "},"!":{"ha":446,"x_min":113,"x_max":333,"o":"m 151 333 l 121 978 l 326 978 l 296 343 l 151 333 m 113 92 q 146 170 113 140 q 224 200 179 200 q 304 170 275 200 q 333 92 333 140 q 301 13 333 43 q 224 -17 268 -17 q 142 13 172 -17 q 113 92 113 43 z "},"¡":{"ha":446,"x_min":113,"x_max":333,"o":"m 294 381 l 326 -264 l 119 -264 l 151 371 l 294 381 m 333 622 q 301 544 333 574 q 224 514 268 514 q 142 544 172 514 q 113 622 113 574 q 146 701 113 671 q 224 731 179 731 q 304 701 275 731 q 333 622 333 671 z "},"?":{"ha":622,"x_min":33,"x_max":583,"o":"m 164 339 q 157 384 160 361 q 154 424 154 407 q 177 515 154 478 q 235 578 200 551 q 303 631 269 606 q 360 686 338 657 q 383 756 383 715 q 348 827 383 804 q 258 850 313 850 q 170 840 218 850 q 75 813 122 829 l 33 939 q 314 997 175 997 q 450 976 389 997 q 547 910 511 956 q 583 790 583 865 q 556 676 583 722 q 489 596 529 631 q 408 531 449 561 q 340 467 367 501 q 313 386 313 433 q 313 368 313 379 q 315 347 314 357 l 164 339 m 144 90 q 178 170 144 140 q 258 200 211 200 q 337 170 307 200 q 367 93 367 140 q 333 13 367 43 q 253 -17 300 -17 q 175 13 206 -17 q 144 90 144 42 z "},"¿":{"ha":608,"x_min":15,"x_max":567,"o":"m 435 403 q 443 358 440 381 q 446 318 446 336 q 423 227 446 264 q 366 163 400 190 q 297 110 332 136 q 240 56 263 85 q 217 -14 217 26 q 252 -85 217 -62 q 342 -108 288 -108 q 429 -97 381 -108 q 525 -71 478 -86 l 567 -197 q 286 -256 424 -256 q 149 -235 211 -256 q 51 -168 88 -214 q 15 -49 15 -122 q 43 65 15 19 q 111 146 71 111 q 192 210 151 181 q 260 274 232 240 q 288 356 288 308 q 287 374 288 363 q 285 394 286 385 l 435 403 m 454 651 q 422 572 454 601 q 342 542 389 542 q 263 572 293 542 q 233 649 233 601 q 267 728 233 699 q 347 758 300 758 q 424 729 394 758 q 454 651 454 700 z "},",":{"ha":349,"x_min":51,"x_max":297,"o":"m 51 -196 q 111 -90 96 -128 q 126 -35 126 -51 q 114 3 126 -14 q 89 40 101 19 q 76 94 76 61 q 111 175 76 147 q 189 203 146 203 q 240 190 215 203 q 281 151 265 178 q 297 83 297 125 q 258 -58 297 26 q 122 -244 219 -142 l 51 -196 z "},".":{"ha":324,"x_min":51,"x_max":272,"o":"m 51 94 q 84 173 51 143 q 161 203 117 203 q 242 173 213 203 q 272 94 272 143 q 239 16 272 46 q 161 -14 206 -14 q 81 16 111 -14 q 51 94 51 46 z "},":":{"ha":324,"x_min":51,"x_max":272,"o":"m 51 94 q 84 173 51 143 q 161 203 117 203 q 242 173 213 203 q 272 94 272 143 q 239 16 272 46 q 161 -14 206 -14 q 81 16 111 -14 q 51 94 51 46 m 51 560 q 84 638 51 608 q 161 668 117 668 q 242 638 213 668 q 272 560 272 608 q 239 481 272 511 q 161 451 206 451 q 81 481 111 451 q 51 560 51 511 z "},";":{"ha":349,"x_min":51,"x_max":297,"o":"m 51 -196 q 111 -90 96 -128 q 126 -35 126 -51 q 114 3 126 -14 q 89 40 101 19 q 76 94 76 61 q 111 175 76 147 q 189 203 146 203 q 240 190 215 203 q 281 151 265 178 q 297 83 297 125 q 258 -58 297 26 q 122 -244 219 -142 l 51 -196 m 76 560 q 109 638 76 608 q 186 668 142 668 q 267 638 238 668 q 297 560 297 608 q 264 481 297 511 q 186 451 231 451 q 106 481 136 451 q 76 560 76 511 z "},"…":{"ha":1032,"x_min":51,"x_max":981,"o":"m 51 94 q 84 173 51 143 q 161 203 117 203 q 242 173 213 203 q 272 94 272 143 q 239 16 272 46 q 161 -14 206 -14 q 81 16 111 -14 q 51 94 51 46 m 406 94 q 438 173 406 143 q 515 203 471 203 q 597 173 567 203 q 626 94 626 143 q 593 16 626 46 q 515 -14 560 -14 q 435 16 465 -14 q 406 94 406 46 m 760 94 q 792 173 760 143 q 869 203 825 203 q 951 173 921 203 q 981 94 981 143 q 947 16 981 46 q 869 -14 914 -14 q 790 16 819 -14 q 760 94 760 46 z "},"·":{"ha":324,"x_min":51,"x_max":272,"o":"m 51 451 q 84 530 51 500 q 161 560 117 560 q 242 530 213 560 q 272 451 272 500 q 239 373 272 403 q 161 343 206 343 q 81 373 111 343 q 51 451 51 403 z "},"•":{"ha":589,"x_min":71,"x_max":518,"o":"m 71 426 q 102 542 71 493 q 185 619 133 592 q 294 647 236 647 q 413 619 364 647 q 490 541 463 590 q 518 426 518 492 q 488 310 518 360 q 406 233 457 261 q 294 206 356 206 q 131 266 192 206 q 71 426 71 326 z "},"_":{"ha":682,"x_min":-1,"x_max":683,"o":"m 683 -85 l 683 -208 l -1 -208 l -1 -85 l 683 -85 z "},"-":{"ha":619,"x_min":92,"x_max":528,"o":"m 528 481 l 528 333 l 92 333 l 92 481 l 528 481 z "},"‐":{"ha":601,"x_min":83,"x_max":518,"o":"m 518 481 l 518 333 l 82 333 l 82 481 l 518 481 z "},"­":{"ha":601,"x_min":83,"x_max":518,"o":"m 518 481 l 518 333 l 82 333 l 82 481 l 518 481 z "},"–":{"ha":842,"x_min":85,"x_max":757,"o":"m 757 481 l 757 333 l 85 333 l 85 481 l 757 481 z "},"—":{"ha":1189,"x_min":85,"x_max":1104,"o":"m 1104 475 l 1104 328 l 85 328 l 85 475 l 1104 475 z "},"'":{"ha":349,"x_min":88,"x_max":261,"o":"m 117 699 l 88 1075 l 261 1075 l 233 699 l 117 699 z "},"\"":{"ha":603,"x_min":88,"x_max":515,"o":"m 117 699 l 88 1075 l 261 1075 l 233 699 l 117 699 m 371 699 l 342 1075 l 515 1075 l 488 699 l 371 699 z "},"‘":{"ha":313,"x_min":35,"x_max":267,"o":"m 238 772 q 207 696 238 721 q 139 671 176 671 q 67 699 100 671 q 35 783 35 726 q 72 916 35 838 q 201 1094 110 994 l 267 1053 q 212 945 226 982 q 197 890 197 908 q 208 856 197 872 q 228 821 218 840 q 238 772 238 801 z "},"’":{"ha":313,"x_min":35,"x_max":267,"o":"m 64 997 q 94 1072 64 1047 q 163 1097 125 1097 q 233 1069 201 1097 q 265 985 265 1042 q 229 853 265 932 q 100 674 193 774 l 35 717 q 90 824 76 788 q 104 878 104 861 q 94 912 104 896 q 74 948 83 928 q 64 997 64 968 z "},"‚":{"ha":313,"x_min":46,"x_max":276,"o":"m 75 82 q 106 157 75 132 q 174 182 136 182 q 244 154 213 182 q 276 69 276 126 q 240 -62 276 17 q 111 -242 204 -142 l 46 -199 q 101 -91 88 -128 q 115 -37 115 -54 q 105 -3 115 -19 q 85 33 94 13 q 75 82 75 53 z "},"“":{"ha":575,"x_min":35,"x_max":529,"o":"m 238 789 q 207 713 238 739 q 139 688 176 688 q 67 716 100 688 q 35 801 35 744 q 72 933 35 854 q 201 1113 110 1013 l 267 1069 q 212 963 226 999 q 197 908 197 926 q 208 874 197 890 q 228 838 218 857 q 238 789 238 818 m 500 789 q 469 713 500 739 q 401 688 439 688 q 331 716 363 688 q 299 801 299 744 q 335 933 299 854 q 464 1113 372 1013 l 529 1069 q 474 963 489 999 q 460 908 460 926 q 470 874 460 890 q 490 838 481 857 q 500 789 500 818 z "},"”":{"ha":575,"x_min":46,"x_max":540,"o":"m 338 997 q 368 1072 338 1047 q 436 1097 399 1097 q 507 1069 475 1097 q 539 985 539 1042 q 503 853 539 932 q 374 674 467 774 l 308 717 q 364 824 350 788 q 378 878 378 861 q 367 912 378 896 q 347 948 357 928 q 338 997 338 968 m 75 997 q 106 1072 75 1047 q 174 1097 136 1097 q 244 1069 213 1097 q 276 985 276 1042 q 240 853 276 932 q 111 674 204 774 l 46 717 q 101 824 88 788 q 115 878 115 861 q 105 912 115 896 q 85 948 94 928 q 75 997 75 968 z "},"„":{"ha":575,"x_min":46,"x_max":540,"o":"m 338 82 q 368 157 338 132 q 436 182 399 182 q 507 154 475 182 q 539 69 539 126 q 503 -62 539 17 q 374 -242 467 -142 l 308 -199 q 364 -91 350 -128 q 378 -37 378 -54 q 367 -3 378 -19 q 347 33 357 13 q 338 82 338 53 m 75 82 q 106 157 75 132 q 174 182 136 182 q 244 154 213 182 q 276 69 276 126 q 240 -62 276 17 q 111 -242 204 -142 l 46 -199 q 101 -91 88 -128 q 115 -37 115 -54 q 105 -3 115 -19 q 85 33 94 13 q 75 82 75 53 z "},"ʼ":{"ha":313,"x_min":35,"x_max":267,"o":"m 64 997 q 94 1072 64 1047 q 163 1097 125 1097 q 233 1069 201 1097 q 265 985 265 1042 q 229 853 265 932 q 100 674 193 774 l 35 717 q 90 824 76 788 q 104 878 104 861 q 94 912 104 896 q 74 948 83 928 q 64 997 64 968 z "},"′":{"ha":419,"x_min":88,"x_max":332,"o":"m 88 696 l 158 1075 l 332 1075 l 207 696 l 88 696 z "},"″":{"ha":661,"x_min":88,"x_max":574,"o":"m 88 697 l 158 1076 l 332 1076 l 207 697 l 88 697 m 329 697 l 400 1076 l 574 1076 l 449 697 l 329 697 z "},"(":{"ha":439,"x_min":43,"x_max":432,"o":"m 432 1160 q 281 849 332 1015 q 229 519 229 683 q 281 191 229 357 q 432 -121 332 25 l 308 -194 q 108 151 174 -35 q 43 519 43 336 q 108 889 43 703 q 308 1233 174 1075 l 432 1160 z "},")":{"ha":439,"x_min":6,"x_max":394,"o":"m 6 -119 q 159 191 108 25 q 210 521 210 357 q 159 849 210 683 q 6 1160 108 1015 l 131 1235 q 330 890 265 1075 q 394 521 394 704 q 330 151 394 336 q 131 -194 265 -35 l 6 -119 z "},"[":{"ha":483,"x_min":118,"x_max":469,"o":"m 118 -153 l 118 1196 l 469 1189 l 469 1069 l 285 1060 l 285 -17 l 469 -28 l 469 -146 l 118 -153 z "},"]":{"ha":483,"x_min":14,"x_max":365,"o":"m 365 1196 l 365 -153 l 14 -146 l 14 -28 l 199 -17 l 199 1060 l 14 1069 l 14 1189 l 365 1196 z "},"{":{"ha":501,"x_min":24,"x_max":475,"o":"m 388 -153 q 206 -90 263 -153 q 149 101 149 -26 l 149 310 q 123 417 149 376 q 24 457 97 457 l 24 586 q 124 626 100 586 q 149 733 149 667 l 149 940 q 206 1133 149 1069 q 388 1196 263 1196 l 475 1196 l 475 1076 q 378 1064 411 1076 q 333 1019 344 1051 q 321 929 321 988 l 321 714 q 292 594 321 639 q 213 531 263 550 q 96 511 163 511 l 96 532 q 213 513 163 532 q 292 449 263 493 q 321 329 321 404 l 321 114 q 333 24 321 56 q 378 -22 344 -8 q 475 -35 411 -35 l 475 -153 l 388 -153 z "},"}":{"ha":501,"x_min":26,"x_max":479,"o":"m 114 -153 q 296 -90 239 -153 q 353 101 353 -26 l 353 310 q 379 417 353 376 q 479 457 406 457 l 479 586 q 378 626 403 586 q 353 733 353 667 l 353 940 q 296 1133 353 1069 q 114 1196 239 1196 l 26 1196 l 26 1076 q 124 1064 90 1076 q 169 1019 157 1051 q 182 929 182 988 l 182 714 q 210 594 182 639 q 290 531 239 550 q 406 511 340 511 l 406 532 q 290 513 340 532 q 210 449 239 493 q 182 329 182 404 l 182 114 q 169 24 182 56 q 124 -22 157 -8 q 26 -35 90 -35 l 26 -153 l 114 -153 z "},"«":{"ha":744,"x_min":64,"x_max":689,"o":"m 290 64 l 64 326 l 64 422 l 292 685 l 383 615 l 199 338 l 199 413 l 382 138 l 290 64 m 594 64 l 368 326 l 368 422 l 596 685 l 688 615 l 503 338 l 503 413 l 686 138 l 594 64 z "},"»":{"ha":744,"x_min":56,"x_max":681,"o":"m 454 685 l 681 422 l 681 326 l 453 64 l 361 133 l 546 411 l 546 336 l 363 611 l 454 685 m 150 685 l 376 422 l 376 326 l 147 64 l 56 133 l 242 411 l 242 336 l 58 611 l 150 685 z "},"‹":{"ha":440,"x_min":64,"x_max":383,"o":"m 290 64 l 64 326 l 64 422 l 292 685 l 383 615 l 199 338 l 199 413 l 382 138 l 290 64 z "},"›":{"ha":440,"x_min":56,"x_max":376,"o":"m 150 685 l 376 422 l 376 326 l 147 64 l 56 133 l 242 411 l 242 336 l 58 611 l 150 685 z "},"+":{"ha":758,"x_min":49,"x_max":710,"o":"m 338 556 l 306 524 l 306 824 l 453 824 l 453 524 l 421 556 l 710 556 l 710 417 l 421 417 l 453 449 l 453 149 l 306 149 l 306 449 l 338 417 l 49 417 l 49 556 l 338 556 z "},"−":{"ha":740,"x_min":50,"x_max":690,"o":"m 690 556 l 690 417 l 50 417 l 50 556 l 690 556 z "},"±":{"ha":806,"x_min":82,"x_max":722,"o":"m 361 657 l 329 625 l 329 899 l 476 899 l 476 625 l 444 657 l 722 657 l 722 518 l 444 518 l 476 550 l 476 278 l 329 278 l 329 550 l 361 518 l 83 518 l 82 657 l 361 657 m 722 188 l 722 49 l 83 49 l 83 188 l 722 188 z "},"×":{"ha":693,"x_min":50,"x_max":643,"o":"m 154 190 l 51 293 l 267 508 l 268 460 l 50 678 l 154 783 l 372 565 l 325 567 l 539 782 l 642 679 l 426 465 l 425 513 l 643 294 l 539 190 l 321 408 l 368 406 l 154 190 z "},"÷":{"ha":740,"x_min":50,"x_max":690,"o":"m 690 556 l 690 417 l 50 417 l 50 556 l 690 556 m 260 225 q 292 303 260 274 q 369 333 325 333 q 451 303 421 333 q 481 225 481 274 q 447 147 481 176 q 369 117 414 117 q 290 147 319 117 q 260 225 260 176 m 260 749 q 292 827 260 797 q 369 857 325 857 q 451 827 421 857 q 481 749 481 797 q 447 670 481 700 q 369 640 414 640 q 290 670 319 640 q 260 749 260 700 z "},"=":{"ha":740,"x_min":50,"x_max":690,"o":"m 690 689 l 690 550 l 50 550 l 50 689 l 690 689 m 690 410 l 690 271 l 50 271 l 50 410 l 690 410 z "},"≠":{"ha":740,"x_min":50,"x_max":690,"o":"m 197 71 l 101 126 l 543 890 l 639 835 l 197 71 m 50 271 l 50 410 l 690 410 l 690 271 l 50 271 m 50 551 l 50 689 l 690 689 l 690 551 l 50 551 z "},"≈":{"ha":818,"x_min":57,"x_max":754,"o":"m 549 521 q 470 535 508 521 q 396 567 432 549 q 326 600 360 586 q 258 614 293 614 q 198 599 228 614 q 135 542 168 583 l 56 593 q 153 719 101 682 q 261 756 204 756 q 341 742 303 756 q 415 709 379 728 q 486 676 451 690 q 554 663 521 663 q 615 678 585 663 q 676 735 644 694 l 754 682 q 656 557 707 593 q 549 521 606 521 m 549 224 q 470 238 508 224 q 396 270 432 251 q 326 303 360 289 q 258 317 293 317 q 198 301 228 317 q 135 244 168 286 l 56 296 q 153 422 101 385 q 261 458 204 458 q 341 444 303 458 q 415 412 379 431 q 486 379 451 393 q 554 365 521 365 q 615 381 585 365 q 676 438 644 397 l 754 385 q 656 260 707 296 q 549 224 606 224 z "},"<":{"ha":757,"x_min":51,"x_max":688,"o":"m 635 156 l 51 421 l 51 564 l 635 839 l 686 704 l 199 476 l 199 514 l 688 296 l 635 156 z "},">":{"ha":751,"x_min":74,"x_max":700,"o":"m 125 808 l 700 572 l 700 429 l 124 185 l 75 315 l 554 515 l 554 479 l 74 661 l 125 808 z "},"≤":{"ha":821,"x_min":85,"x_max":724,"o":"m 668 260 l 85 500 l 85 643 l 671 882 l 719 746 l 231 551 l 231 597 l 719 401 l 668 260 m 724 188 l 724 49 l 85 49 l 85 188 l 724 188 z "},"≥":{"ha":819,"x_min":94,"x_max":735,"o":"m 150 879 l 735 643 l 735 500 l 149 256 l 100 386 l 589 590 l 589 546 l 99 732 l 150 879 m 735 188 l 735 49 l 94 49 l 94 188 l 735 188 z "},"∙":{"ha":385,"x_min":51,"x_max":272,"o":"m 51 451 q 84 530 51 500 q 161 560 117 560 q 242 530 213 560 q 272 451 272 500 q 239 373 272 403 q 161 343 206 343 q 81 373 111 343 q 51 451 51 403 z "},"¬":{"ha":824,"x_min":61,"x_max":736,"o":"m 578 157 l 578 440 l 600 417 l 61 417 l 61 556 l 736 556 l 736 157 l 578 157 z "},"∕":{"ha":269,"x_min":-232,"x_max":501,"o":"m -232 -12 l 347 992 l 501 992 l -78 -12 l -232 -12 z "},"/":{"ha":471,"x_min":-12,"x_max":483,"o":"m 483 1122 l 124 -118 l -12 -118 l 346 1122 l 483 1122 z "},"\\":{"ha":488,"x_min":-6,"x_max":493,"o":"m -6 1122 l 135 1122 l 493 -118 l 356 -118 l -6 1122 z "},"⁄":{"ha":269,"x_min":-232,"x_max":501,"o":"m -232 -12 l 347 992 l 501 992 l -78 -12 l -232 -12 z "},"%":{"ha":1206,"x_min":56,"x_max":1150,"o":"m 193 -18 l 851 993 l 1010 993 l 353 -18 l 193 -18 m 297 483 q 119 553 182 483 q 56 736 56 622 q 119 923 56 851 q 307 994 183 994 q 488 926 429 994 q 546 750 546 858 q 482 557 546 631 q 297 483 418 483 m 300 589 q 379 628 357 589 q 401 742 401 668 q 381 852 403 815 q 304 889 360 889 q 224 850 247 889 q 200 736 200 811 q 223 627 200 665 q 300 589 246 589 m 901 -17 q 723 53 786 -17 q 660 236 660 122 q 724 423 660 351 q 911 494 788 494 q 1091 426 1032 494 q 1150 250 1150 357 q 1085 57 1150 131 q 901 -17 1021 -17 m 904 89 q 983 128 961 89 q 1006 242 1006 168 q 984 351 1006 315 q 908 388 963 388 q 826 349 850 388 q 803 235 803 311 q 826 127 803 165 q 904 89 849 89 z "},"‰":{"ha":1764,"x_min":56,"x_max":1708,"o":"m 1460 -17 q 1281 53 1344 -17 q 1218 236 1218 122 q 1282 422 1218 350 q 1469 493 1346 493 q 1649 425 1590 493 q 1708 250 1708 357 q 1644 57 1708 131 q 1460 -17 1579 -17 m 1463 89 q 1542 128 1519 89 q 1564 242 1564 168 q 1542 351 1564 315 q 1467 388 1521 388 q 1385 349 1408 388 q 1361 235 1361 311 q 1384 127 1361 165 q 1463 89 1407 89 m 193 -18 l 851 993 l 1010 993 l 353 -18 l 193 -18 m 297 479 q 119 548 182 479 q 56 732 56 617 q 119 917 56 846 q 307 989 183 989 q 488 921 429 989 q 546 744 546 853 q 482 553 546 626 q 297 479 418 479 m 300 585 q 379 624 357 585 q 401 736 401 664 q 381 847 403 811 q 304 883 360 883 q 224 844 247 883 q 200 731 200 806 q 223 622 200 660 q 300 585 246 585 m 901 -17 q 723 53 786 -17 q 660 236 660 122 q 724 422 660 350 q 911 493 788 493 q 1091 425 1032 493 q 1150 250 1150 357 q 1085 57 1150 131 q 901 -17 1021 -17 m 904 89 q 983 128 961 89 q 1006 242 1006 168 q 984 351 1006 315 q 908 388 963 388 q 826 349 850 388 q 803 235 803 311 q 826 127 803 165 q 904 89 849 89 z "},"|":{"ha":433,"x_min":143,"x_max":290,"o":"m 143 1126 l 290 1126 l 290 -149 l 143 -149 l 143 1126 z "},"¦":{"ha":433,"x_min":143,"x_max":290,"o":"m 143 606 l 143 1126 l 290 1126 l 290 606 l 143 606 m 143 -149 l 143 372 l 290 372 l 290 -149 l 143 -149 z "},"†":{"ha":683,"x_min":33,"x_max":651,"o":"m 340 588 l 33 633 l 33 742 l 303 742 l 272 682 l 261 950 l 424 957 l 411 682 l 381 742 l 651 742 l 651 633 l 340 588 m 340 -97 l 261 -35 l 240 513 l 342 489 l 444 513 l 422 -35 l 340 -97 z "},"‡":{"ha":683,"x_min":33,"x_max":651,"o":"m 342 588 l 33 633 l 33 742 l 303 742 l 272 682 l 261 950 l 424 957 l 411 682 l 381 742 l 651 742 l 651 633 l 342 588 m 342 -97 l 261 -35 l 250 313 l 342 292 l 435 313 l 422 -35 l 342 -97 m 342 376 l 97 428 l 97 542 l 342 501 l 585 542 l 585 428 l 342 376 z "},"©":{"ha":1193,"x_min":79,"x_max":1114,"o":"m 589 210 q 410 281 481 210 q 340 483 340 353 q 376 640 340 576 q 474 735 413 703 q 610 768 535 768 q 794 724 701 768 l 790 579 l 700 579 l 686 660 l 694 651 q 659 660 681 657 q 621 664 638 664 q 524 617 554 664 q 493 493 493 569 q 528 360 493 403 q 621 317 563 317 q 691 329 653 317 q 767 369 729 342 l 815 293 q 701 230 760 250 q 589 210 643 210 m 579 -17 q 379 19 471 -17 q 220 122 288 56 q 116 279 153 189 q 79 479 79 369 q 118 685 79 590 q 227 849 157 779 q 393 956 297 918 q 601 994 489 994 q 804 958 711 994 q 967 856 897 922 q 1075 699 1036 789 q 1114 500 1114 608 q 1073 294 1114 389 q 959 130 1032 200 q 789 22 886 60 q 579 -17 692 -17 m 589 89 q 749 119 676 89 q 873 203 821 149 q 954 331 925 257 q 983 492 983 404 q 933 698 983 608 q 795 838 883 788 q 592 889 707 889 q 390 838 475 889 q 257 696 304 786 q 210 489 210 606 q 256 283 210 372 q 388 141 303 193 q 589 89 474 89 z "},"®":{"ha":989,"x_min":75,"x_max":915,"o":"m 294 419 l 294 471 l 356 492 l 340 469 l 340 804 l 361 781 l 294 799 l 294 851 l 456 856 l 511 856 q 634 824 592 856 q 676 735 676 793 q 642 656 676 688 q 532 614 607 624 l 539 629 q 600 613 579 628 q 636 568 621 599 l 685 471 l 651 490 l 711 471 l 711 419 l 597 419 l 542 546 q 520 581 532 571 q 494 594 508 592 q 461 597 481 597 l 426 597 l 443 614 l 443 469 l 429 492 l 499 471 l 499 419 l 294 419 m 443 647 l 426 664 l 474 664 q 543 680 519 664 q 567 728 567 696 q 548 769 567 754 q 490 783 529 783 l 426 783 l 443 801 l 443 647 m 482 219 q 271 272 363 221 q 127 414 179 324 q 75 624 75 504 q 130 840 75 746 q 281 990 185 935 q 499 1044 378 1044 q 713 992 619 1044 q 861 850 807 940 q 915 640 915 760 q 882 474 915 551 q 790 340 849 397 q 652 251 731 283 q 482 219 574 219 m 485 303 q 656 346 581 303 q 776 465 732 389 q 819 639 819 542 q 778 808 819 736 q 663 919 736 879 q 497 960 590 960 q 328 917 403 960 q 213 799 254 875 q 171 625 171 724 q 210 456 171 529 q 321 343 250 383 q 485 303 392 303 z "},"™":{"ha":1444,"x_min":74,"x_max":1335,"o":"m 179 440 l 179 517 l 283 540 l 256 504 l 256 892 l 286 872 l 154 872 l 186 897 l 164 797 l 74 797 l 74 978 l 588 978 l 588 797 l 497 797 l 475 892 l 506 872 l 376 872 l 404 892 l 404 504 l 381 540 l 483 517 l 483 440 l 179 440 m 1335 904 l 1251 875 l 1272 913 l 1272 515 l 1251 540 l 1335 517 l 1335 440 l 1067 440 l 1067 517 l 1157 540 l 1131 515 l 1131 865 l 1156 856 l 1014 578 l 929 574 l 789 850 l 814 865 l 814 515 l 796 539 l 878 517 l 878 440 l 640 440 l 636 517 l 721 540 l 701 515 l 701 913 l 721 878 l 636 901 l 636 976 l 878 981 l 1019 674 l 958 674 l 1100 976 l 1335 979 l 1335 904 z "},"°":{"ha":613,"x_min":51,"x_max":511,"o":"m 281 585 q 115 644 179 585 q 51 807 51 703 q 81 924 51 874 q 162 1001 110 974 q 282 1029 214 1029 q 447 970 383 1029 q 511 811 511 911 q 447 646 511 707 q 281 585 383 585 m 281 692 q 355 722 329 692 q 381 810 381 751 q 354 895 382 867 q 281 924 326 924 q 209 895 236 924 q 181 810 182 867 q 208 722 182 751 q 281 692 233 692 z "},"*":{"ha":633,"x_min":71,"x_max":557,"o":"m 410 596 l 315 751 l 328 807 l 386 801 l 501 664 l 410 596 m 225 594 l 129 663 l 246 803 l 301 807 l 315 751 l 225 594 m 246 803 l 71 836 l 108 947 l 271 886 l 294 831 l 246 803 m 314 849 l 271 886 l 254 1054 l 371 1057 l 360 885 l 314 849 m 386 801 l 339 835 l 360 885 l 518 951 l 557 838 l 386 801 z "},"#":{"ha":933,"x_min":49,"x_max":886,"o":"m 101 740 l 886 740 l 886 621 l 101 621 l 101 740 m 49 365 l 833 365 l 833 246 l 49 246 l 49 365 m 282 978 l 439 978 l 301 0 l 144 0 l 282 978 m 632 978 l 789 978 l 651 0 l 494 0 l 632 978 z "},"&":{"ha":933,"x_min":79,"x_max":897,"o":"m 426 -17 q 249 14 328 -17 q 124 106 169 44 q 79 263 79 168 q 108 385 79 329 q 196 478 136 440 q 346 528 256 517 l 351 506 q 167 581 231 518 q 104 736 104 644 q 152 885 104 828 q 278 968 200 942 q 449 994 357 994 q 599 981 522 994 q 747 939 675 967 l 735 719 l 613 719 l 586 847 l 622 822 q 542 842 581 835 q 465 849 504 849 q 349 818 393 849 q 306 718 306 788 q 355 618 306 653 q 479 583 404 583 l 897 583 l 897 479 l 782 446 l 801 481 l 801 313 q 755 133 801 207 q 624 22 708 60 q 426 -17 540 -17 m 449 136 q 566 178 522 136 q 610 300 610 219 l 610 468 l 644 442 l 461 442 q 361 422 401 442 q 301 367 321 401 q 282 290 282 333 q 328 177 282 218 q 449 136 375 136 z "},"@":{"ha":1206,"x_min":67,"x_max":1150,"o":"m 547 -156 q 299 -94 408 -156 q 128 85 190 -32 q 67 365 67 203 q 110 604 67 501 q 228 777 153 707 q 406 882 304 847 q 621 917 507 917 q 831 883 735 917 q 999 784 928 849 q 1110 626 1071 719 q 1150 413 1150 532 q 1078 171 1150 254 q 881 88 1007 88 q 760 118 807 88 q 696 215 714 149 l 724 215 q 635 122 690 156 q 522 88 581 88 q 440 108 478 88 q 380 167 403 128 q 357 261 357 206 q 406 383 357 339 q 561 428 454 428 l 708 428 l 689 404 l 689 483 q 659 546 689 528 q 583 564 629 564 q 503 555 547 564 q 418 532 460 546 l 394 629 q 513 665 454 653 q 624 676 572 676 q 778 630 718 676 q 839 478 839 583 l 839 260 q 855 205 839 221 q 900 189 871 189 q 974 245 951 189 q 997 383 997 301 q 951 610 997 518 q 820 749 906 701 q 615 796 735 796 q 406 747 496 796 q 268 603 317 699 q 219 368 219 508 q 262 151 219 242 q 381 13 304 61 q 565 -36 458 -36 q 665 -26 613 -36 q 772 3 718 -17 l 813 -103 q 678 -142 746 -129 q 547 -156 610 -156 m 582 197 q 646 219 614 197 q 703 276 678 240 l 689 232 l 689 376 l 708 353 l 607 353 q 536 333 557 353 q 515 276 515 313 q 534 217 515 238 q 582 197 553 197 z "},"§":{"ha":764,"x_min":85,"x_max":686,"o":"m 338 -253 q 224 -244 283 -253 q 104 -218 165 -235 l 114 -19 l 232 -19 l 249 -137 l 232 -111 q 284 -126 257 -121 q 336 -131 311 -131 q 430 -106 392 -131 q 468 -31 468 -81 q 441 42 468 11 q 369 99 414 72 q 276 152 325 125 q 184 212 228 179 q 113 288 140 244 q 85 393 85 332 q 120 507 85 463 q 215 576 156 551 q 344 607 274 600 l 367 553 q 316 528 343 549 q 271 478 289 508 q 253 414 253 449 q 281 341 253 372 q 356 283 310 310 q 451 228 401 256 q 547 166 501 200 q 622 86 593 132 q 650 -25 650 40 q 609 -151 650 -100 q 497 -227 568 -201 q 338 -253 426 -253 m 403 138 l 394 193 q 447 221 419 200 q 494 272 475 242 q 514 336 514 303 q 485 410 514 379 q 413 468 457 442 q 317 523 368 494 q 222 585 267 551 q 149 667 178 619 q 121 779 121 714 q 201 939 121 885 q 407 993 281 993 q 522 983 461 993 q 647 954 583 974 l 639 778 l 519 778 l 497 885 l 524 854 q 472 867 497 863 q 419 871 446 871 q 333 848 367 871 q 299 781 299 825 q 326 708 299 739 q 399 651 354 678 q 492 599 443 625 q 585 540 542 572 q 658 465 629 508 q 686 360 686 421 q 647 246 686 293 q 544 172 608 199 q 403 138 481 146 z "},"¶":{"ha":894,"x_min":40,"x_max":838,"o":"m 194 -236 l 194 -136 l 322 -99 l 296 -139 l 296 451 l 328 422 q 178 456 243 422 q 77 551 114 489 q 40 700 40 614 q 77 846 40 783 q 179 943 114 908 q 329 978 244 978 l 838 978 l 838 878 l 708 835 l 736 876 l 736 -236 l 574 -236 l 574 881 l 604 835 l 428 835 l 458 881 l 458 -236 l 194 -236 z "},"№":{"ha":1726,"x_min":50,"x_max":1647,"o":"m 1369 990 q 1576 919 1504 990 q 1647 718 1647 849 q 1613 560 1647 628 q 1511 457 1578 493 q 1347 421 1444 421 q 1147 490 1217 421 q 1076 693 1076 560 q 1112 855 1076 789 q 1213 956 1147 921 q 1369 990 1278 990 m 1363 875 q 1302 858 1328 875 q 1263 803 1276 840 q 1249 703 1249 765 q 1278 574 1249 613 q 1357 536 1307 536 q 1444 578 1413 536 q 1475 711 1475 619 q 1446 837 1475 799 q 1363 875 1417 875 m 1617 347 l 1617 208 l 1107 208 l 1107 347 l 1617 347 m 671 971 l 1039 978 l 1039 878 l 908 835 l 938 876 l 938 0 l 708 0 l 289 768 l 317 768 l 317 97 l 288 139 l 419 100 l 419 0 l 50 0 l 50 100 l 182 139 l 153 97 l 153 875 l 172 839 l 50 871 l 50 971 l 389 978 l 801 225 l 772 225 l 772 876 l 803 836 l 671 871 l 671 971 z "},"^":{"ha":756,"x_min":40,"x_max":715,"o":"m 40 742 l 307 1224 l 447 1224 l 715 742 l 536 742 l 329 1151 l 422 1151 l 214 742 l 40 742 z "},"~":{"ha":818,"x_min":60,"x_max":758,"o":"m 553 378 q 474 392 513 378 q 400 424 436 406 q 331 457 364 443 q 263 471 297 471 q 202 456 232 471 q 139 399 172 440 l 60 450 q 157 576 106 539 q 265 613 208 613 q 345 599 307 613 q 419 566 383 585 q 490 533 456 547 q 558 519 525 519 q 619 535 589 519 q 681 592 649 551 l 758 539 q 660 414 711 450 q 553 378 610 378 z "},"Á":{"ha":990,"x_min":4,"x_max":986,"o":"m 918 93 l 867 139 l 986 100 l 986 0 l 588 0 l 588 100 l 708 135 l 689 107 l 633 288 l 664 263 l 297 263 l 321 286 l 261 110 l 256 131 l 367 100 l 367 0 l 4 0 l 4 100 l 119 136 l 75 97 l 403 975 l 607 981 l 918 93 m 347 374 l 333 400 l 632 400 l 613 369 l 468 871 l 514 871 l 347 374 m 371 1046 l 315 1151 l 635 1329 l 710 1182 l 371 1046 z "},"Ă":{"ha":990,"x_min":4,"x_max":986,"o":"m 918 93 l 867 139 l 986 100 l 986 0 l 588 0 l 588 100 l 708 135 l 689 107 l 633 288 l 664 263 l 297 263 l 321 286 l 261 110 l 256 131 l 367 100 l 367 0 l 4 0 l 4 100 l 119 136 l 75 97 l 403 975 l 607 981 l 918 93 m 347 374 l 333 400 l 632 400 l 613 369 l 468 871 l 514 871 l 347 374 m 503 1064 q 397 1088 447 1064 q 313 1160 346 1113 q 279 1279 281 1208 l 392 1292 q 435 1213 399 1239 q 510 1188 471 1188 q 583 1211 550 1188 q 619 1283 615 1235 l 729 1288 q 699 1165 732 1215 q 613 1090 665 1115 q 503 1064 560 1064 z "},"Ắ":{"ha":990,"x_min":4,"x_max":986,"o":"m 918 93 l 867 139 l 986 100 l 986 0 l 588 0 l 588 100 l 708 135 l 689 107 l 633 288 l 664 263 l 297 263 l 321 286 l 261 110 l 256 131 l 367 100 l 367 0 l 4 0 l 4 100 l 119 136 l 75 97 l 403 975 l 607 981 l 918 93 m 347 374 l 333 400 l 632 400 l 613 369 l 468 871 l 514 871 l 347 374 m 503 1026 q 397 1051 447 1026 q 313 1123 346 1075 q 279 1242 281 1171 l 392 1254 q 435 1176 399 1201 q 510 1150 471 1150 q 583 1174 550 1150 q 619 1246 615 1197 l 729 1250 q 699 1128 732 1178 q 613 1052 665 1078 q 503 1026 560 1026 m 489 1222 l 411 1300 l 608 1510 l 710 1407 l 489 1222 z "},"Ặ":{"ha":990,"x_min":4,"x_max":986,"o":"m 918 93 l 867 139 l 986 100 l 986 0 l 588 0 l 588 100 l 708 135 l 689 107 l 633 288 l 664 263 l 297 263 l 321 286 l 261 110 l 256 131 l 367 100 l 367 0 l 4 0 l 4 100 l 119 136 l 75 97 l 403 975 l 607 981 l 918 93 m 347 374 l 333 400 l 632 400 l 613 369 l 468 871 l 514 871 l 347 374 m 479 -304 q 397 -275 428 -304 q 365 -192 365 -246 q 398 -105 365 -133 q 481 -76 431 -76 q 561 -105 529 -76 q 593 -190 593 -133 q 560 -276 593 -247 q 479 -304 528 -304 m 506 1054 q 399 1078 450 1054 q 316 1151 349 1103 q 282 1269 283 1199 l 394 1282 q 438 1203 401 1229 q 513 1178 474 1178 q 585 1201 553 1178 q 622 1274 618 1225 l 732 1278 q 701 1156 735 1206 q 615 1080 668 1106 q 506 1054 563 1054 z "},"Ằ":{"ha":990,"x_min":4,"x_max":986,"o":"m 918 93 l 867 139 l 986 100 l 986 0 l 588 0 l 588 100 l 708 135 l 689 107 l 633 288 l 664 263 l 297 263 l 321 286 l 261 110 l 256 131 l 367 100 l 367 0 l 4 0 l 4 100 l 119 136 l 75 97 l 403 975 l 607 981 l 918 93 m 347 374 l 333 400 l 632 400 l 613 369 l 468 871 l 514 871 l 347 374 m 519 1224 l 597 1300 l 400 1511 l 297 1408 l 519 1224 m 501 1026 q 396 1051 447 1026 q 312 1123 344 1075 q 278 1242 279 1171 l 392 1254 q 434 1176 399 1201 q 510 1150 469 1150 q 582 1174 550 1150 q 618 1246 614 1197 l 729 1251 q 697 1128 731 1178 q 612 1052 664 1078 q 501 1026 560 1026 z "},"Ẳ":{"ha":990,"x_min":4,"x_max":986,"o":"m 918 93 l 867 139 l 986 100 l 986 0 l 588 0 l 588 100 l 708 135 l 689 107 l 633 288 l 664 263 l 297 263 l 321 286 l 261 110 l 256 131 l 367 100 l 367 0 l 4 0 l 4 100 l 119 136 l 75 97 l 403 975 l 607 981 l 918 93 m 347 374 l 333 400 l 632 400 l 613 369 l 468 871 l 514 871 l 347 374 m 503 1026 q 397 1051 447 1026 q 313 1123 346 1075 q 279 1242 281 1171 l 392 1254 q 435 1176 399 1201 q 510 1150 471 1150 q 583 1174 550 1150 q 619 1246 615 1197 l 729 1250 q 699 1128 732 1178 q 613 1052 665 1078 q 503 1026 560 1026 m 440 1225 l 440 1331 q 518 1349 492 1333 q 544 1392 544 1364 q 526 1427 544 1417 q 481 1438 508 1438 q 439 1433 461 1438 q 394 1422 417 1429 l 371 1511 q 442 1530 407 1524 q 513 1536 478 1536 q 635 1504 583 1536 q 686 1401 686 1472 q 657 1320 686 1354 q 564 1274 628 1286 l 564 1225 l 440 1225 z "},"Ẵ":{"ha":990,"x_min":4,"x_max":986,"o":"m 918 93 l 867 139 l 986 100 l 986 0 l 588 0 l 588 100 l 708 135 l 689 107 l 633 288 l 664 263 l 297 263 l 321 286 l 261 110 l 256 131 l 367 100 l 367 0 l 4 0 l 4 100 l 119 136 l 75 97 l 403 975 l 607 981 l 918 93 m 347 374 l 333 400 l 632 400 l 613 369 l 468 871 l 514 871 l 347 374 m 335 1275 l 258 1313 q 318 1433 283 1396 q 400 1471 353 1471 q 469 1456 435 1471 q 534 1426 503 1440 q 590 1411 565 1411 q 631 1426 613 1411 q 669 1475 650 1440 l 747 1439 q 685 1317 722 1354 q 597 1279 647 1279 q 531 1294 565 1279 q 467 1323 497 1308 q 410 1338 436 1338 q 372 1323 389 1338 q 335 1275 354 1308 m 503 1026 q 397 1051 449 1026 q 313 1123 346 1075 q 279 1242 281 1171 l 393 1254 q 435 1176 400 1201 q 511 1150 471 1150 q 583 1174 551 1150 q 619 1246 615 1197 l 731 1251 q 699 1128 732 1178 q 613 1052 665 1078 q 503 1026 561 1026 z "},"Â":{"ha":990,"x_min":4,"x_max":986,"o":"m 918 93 l 867 139 l 986 100 l 986 0 l 588 0 l 588 100 l 708 135 l 689 107 l 633 288 l 664 263 l 297 263 l 321 286 l 261 110 l 256 131 l 367 100 l 367 0 l 4 0 l 4 100 l 119 136 l 75 97 l 403 975 l 607 981 l 918 93 m 347 374 l 333 400 l 632 400 l 613 369 l 468 871 l 514 871 l 347 374 m 304 1040 l 240 1117 l 442 1297 l 553 1307 l 768 1117 l 703 1040 l 432 1206 l 567 1204 l 304 1040 z "},"Ấ":{"ha":990,"x_min":4,"x_max":986,"o":"m 918 93 l 867 139 l 986 100 l 986 0 l 588 0 l 588 100 l 708 135 l 689 107 l 633 288 l 664 263 l 297 263 l 321 286 l 261 110 l 256 131 l 367 100 l 367 0 l 4 0 l 4 100 l 119 136 l 75 97 l 403 975 l 607 981 l 918 93 m 347 374 l 333 400 l 632 400 l 613 369 l 468 871 l 514 871 l 347 374 m 731 1179 l 658 1261 l 869 1457 l 965 1347 l 731 1179 m 307 1017 l 243 1093 l 444 1274 l 556 1285 l 771 1093 l 706 1017 l 435 1183 l 569 1181 l 307 1017 z "},"Ậ":{"ha":990,"x_min":4,"x_max":986,"o":"m 918 93 l 867 139 l 986 100 l 986 0 l 588 0 l 588 100 l 708 135 l 689 107 l 633 288 l 664 263 l 297 263 l 321 286 l 261 110 l 256 131 l 367 100 l 367 0 l 4 0 l 4 100 l 119 136 l 75 97 l 403 975 l 607 981 l 918 93 m 347 374 l 333 400 l 632 400 l 613 369 l 468 871 l 514 871 l 347 374 m 304 1040 l 240 1117 l 442 1297 l 553 1307 l 768 1117 l 703 1040 l 432 1206 l 567 1204 l 304 1040 m 478 -304 q 395 -275 426 -304 q 364 -192 364 -246 q 397 -105 364 -133 q 479 -76 429 -76 q 560 -105 528 -76 q 592 -190 592 -133 q 559 -276 592 -247 q 478 -304 526 -304 z "},"Ầ":{"ha":990,"x_min":4,"x_max":986,"o":"m 918 93 l 867 139 l 986 100 l 986 0 l 588 0 l 588 100 l 708 135 l 689 107 l 633 288 l 664 263 l 297 263 l 321 286 l 261 110 l 256 131 l 367 100 l 367 0 l 4 0 l 4 100 l 119 136 l 75 97 l 403 975 l 607 981 l 918 93 m 347 374 l 333 400 l 632 400 l 613 369 l 468 871 l 514 871 l 347 374 m 772 1175 l 564 1374 l 674 1469 l 856 1246 l 772 1175 m 304 1017 l 240 1093 l 442 1274 l 553 1285 l 768 1093 l 703 1017 l 432 1183 l 567 1181 l 304 1017 z "},"Ẩ":{"ha":990,"x_min":4,"x_max":986,"o":"m 918 93 l 867 139 l 986 100 l 986 0 l 588 0 l 588 100 l 708 135 l 689 107 l 633 288 l 664 263 l 297 263 l 321 286 l 261 110 l 256 131 l 367 100 l 367 0 l 4 0 l 4 100 l 119 136 l 75 97 l 403 975 l 607 981 l 918 93 m 347 374 l 333 400 l 632 400 l 613 369 l 468 871 l 514 871 l 347 374 m 307 1015 l 243 1092 l 444 1272 l 556 1282 l 771 1092 l 706 1015 l 435 1181 l 569 1179 l 307 1015 m 656 1229 l 656 1335 q 733 1353 707 1338 q 760 1396 760 1368 q 742 1431 760 1421 q 696 1442 724 1442 q 654 1438 676 1442 q 610 1426 632 1433 l 586 1515 q 658 1534 622 1528 q 728 1540 693 1540 q 850 1508 799 1540 q 901 1406 901 1476 q 872 1324 901 1358 q 779 1278 843 1290 l 779 1229 l 656 1229 z "},"Ẫ":{"ha":990,"x_min":4,"x_max":986,"o":"m 918 93 l 867 139 l 986 100 l 986 0 l 588 0 l 588 100 l 708 135 l 689 107 l 633 288 l 664 263 l 297 263 l 321 286 l 261 110 l 256 131 l 367 100 l 367 0 l 4 0 l 4 100 l 119 136 l 75 97 l 403 975 l 607 981 l 918 93 m 347 374 l 333 400 l 632 400 l 613 369 l 468 871 l 514 871 l 347 374 m 326 1300 l 246 1336 q 308 1458 272 1421 q 394 1494 344 1494 q 467 1480 432 1494 q 536 1450 503 1465 q 596 1435 569 1435 q 640 1450 621 1435 q 679 1499 660 1465 l 761 1463 q 694 1340 733 1378 q 603 1303 654 1303 q 533 1317 568 1303 q 465 1347 499 1332 q 404 1363 432 1363 q 365 1347 382 1363 q 326 1300 347 1332 m 304 1017 l 242 1093 l 443 1274 l 553 1285 l 769 1093 l 704 1017 l 433 1183 l 568 1181 l 304 1017 z "},"Ȁ":{"ha":990,"x_min":4,"x_max":986,"o":"m 918 93 l 867 139 l 986 100 l 986 0 l 588 0 l 588 100 l 708 135 l 689 107 l 633 288 l 664 263 l 297 263 l 321 286 l 261 110 l 256 131 l 367 100 l 367 0 l 4 0 l 4 100 l 119 136 l 75 97 l 403 975 l 607 981 l 918 93 m 347 374 l 333 400 l 632 400 l 613 369 l 468 871 l 514 871 l 347 374 m 374 1031 l 474 1081 l 354 1354 l 222 1285 l 374 1031 m 603 1031 l 706 1078 l 594 1354 l 460 1290 l 603 1031 z "},"Ä":{"ha":990,"x_min":4,"x_max":986,"o":"m 918 93 l 867 139 l 986 100 l 986 0 l 588 0 l 588 100 l 708 135 l 689 107 l 633 288 l 664 263 l 297 263 l 321 286 l 261 110 l 256 131 l 367 100 l 367 0 l 4 0 l 4 100 l 119 136 l 75 97 l 403 975 l 607 981 l 918 93 m 347 374 l 333 400 l 632 400 l 613 369 l 468 871 l 514 871 l 347 374 m 656 1058 q 585 1085 610 1058 q 560 1161 560 1113 q 587 1238 558 1210 q 656 1265 615 1265 q 728 1238 701 1265 q 754 1161 754 1210 q 726 1085 754 1113 q 656 1058 697 1058 m 350 1058 q 281 1085 306 1058 q 254 1161 256 1113 q 281 1238 253 1210 q 350 1265 310 1265 q 422 1238 396 1265 q 449 1161 449 1210 q 419 1085 449 1113 q 350 1058 390 1058 z "},"Ạ":{"ha":990,"x_min":4,"x_max":986,"o":"m 918 93 l 867 139 l 986 100 l 986 0 l 588 0 l 588 100 l 708 135 l 689 107 l 633 288 l 664 263 l 297 263 l 321 286 l 261 110 l 256 131 l 367 100 l 367 0 l 4 0 l 4 100 l 119 136 l 75 97 l 403 975 l 607 981 l 918 93 m 347 374 l 333 400 l 632 400 l 613 369 l 468 871 l 514 871 l 347 374 m 479 -304 q 397 -275 428 -304 q 365 -192 365 -246 q 398 -105 365 -133 q 481 -76 431 -76 q 561 -105 529 -76 q 593 -190 593 -133 q 560 -276 593 -247 q 479 -304 528 -304 z "},"À":{"ha":990,"x_min":4,"x_max":986,"o":"m 918 93 l 867 139 l 986 100 l 986 0 l 588 0 l 588 100 l 708 135 l 689 107 l 633 288 l 664 263 l 297 263 l 321 286 l 261 110 l 256 131 l 367 100 l 367 0 l 4 0 l 4 100 l 119 136 l 75 97 l 403 975 l 607 981 l 918 93 m 347 374 l 333 400 l 632 400 l 613 369 l 468 871 l 514 871 l 347 374 m 653 1046 l 311 1182 l 388 1329 l 706 1151 l 653 1046 z "},"Ả":{"ha":990,"x_min":4,"x_max":986,"o":"m 918 93 l 867 139 l 986 100 l 986 0 l 588 0 l 588 100 l 708 135 l 689 107 l 633 288 l 664 263 l 297 263 l 321 286 l 261 110 l 256 131 l 367 100 l 367 0 l 4 0 l 4 100 l 119 136 l 75 97 l 403 975 l 607 981 l 918 93 m 347 374 l 333 400 l 632 400 l 613 369 l 468 871 l 514 871 l 347 374 m 433 1038 l 433 1143 q 511 1161 485 1146 q 538 1204 538 1176 q 519 1240 538 1229 q 474 1250 501 1250 q 432 1246 454 1250 q 388 1235 410 1242 l 364 1324 q 435 1342 400 1336 q 506 1349 471 1349 q 628 1317 576 1349 q 679 1214 679 1285 q 650 1133 679 1167 q 557 1086 621 1099 l 557 1038 l 433 1038 z "},"Ȃ":{"ha":990,"x_min":4,"x_max":986,"o":"m 918 93 l 867 139 l 986 100 l 986 0 l 588 0 l 588 100 l 708 135 l 689 107 l 633 288 l 664 263 l 297 263 l 321 286 l 261 110 l 256 131 l 367 100 l 367 0 l 4 0 l 4 100 l 119 136 l 75 97 l 403 975 l 607 981 l 918 93 m 347 374 l 333 400 l 632 400 l 613 369 l 468 871 l 514 871 l 347 374 m 504 1288 q 619 1258 569 1288 q 697 1179 668 1229 q 728 1063 726 1129 l 614 1050 q 577 1126 608 1099 q 499 1154 546 1154 q 426 1128 453 1154 q 394 1058 399 1103 l 282 1053 q 308 1175 281 1122 q 388 1258 336 1228 q 504 1288 439 1288 z "},"Ā":{"ha":990,"x_min":4,"x_max":986,"o":"m 918 93 l 867 139 l 986 100 l 986 0 l 588 0 l 588 100 l 708 135 l 689 107 l 633 288 l 664 263 l 297 263 l 321 286 l 261 110 l 256 131 l 367 100 l 367 0 l 4 0 l 4 100 l 119 136 l 75 97 l 403 975 l 607 981 l 918 93 m 347 374 l 333 400 l 632 400 l 613 369 l 468 871 l 514 871 l 347 374 m 713 1226 l 713 1092 l 296 1092 l 296 1226 l 713 1226 z "},"Ą":{"ha":990,"x_min":4,"x_max":986,"o":"m 918 93 l 867 139 l 986 100 l 986 0 l 719 0 l 633 288 l 664 263 l 297 263 l 321 286 l 261 110 l 256 131 l 367 100 l 367 0 l 4 0 l 4 100 l 119 136 l 75 97 l 403 975 l 607 981 l 918 93 m 347 374 l 333 400 l 632 400 l 613 369 l 468 871 l 514 871 l 347 374 m 679 -311 q 547 -270 593 -311 q 501 -172 501 -229 q 531 -76 501 -128 q 624 18 561 -25 q 788 79 688 61 l 819 0 q 688 -49 735 -15 q 642 -121 642 -83 q 669 -170 642 -154 q 739 -186 696 -186 q 769 -184 754 -186 q 800 -181 785 -182 l 811 -287 q 742 -306 775 -300 q 679 -311 708 -311 z "},"Å":{"ha":990,"x_min":4,"x_max":986,"o":"m 918 93 l 867 139 l 986 100 l 986 0 l 588 0 l 588 100 l 708 135 l 689 107 l 633 288 l 664 263 l 297 263 l 321 286 l 261 110 l 256 131 l 367 100 l 367 0 l 4 0 l 4 100 l 119 136 l 75 97 l 403 975 l 607 981 l 918 93 m 347 374 l 333 400 l 632 400 l 613 369 l 468 871 l 514 871 l 347 374 m 501 1015 q 402 1038 443 1015 q 339 1098 361 1060 q 317 1183 317 1136 q 339 1270 317 1232 q 403 1331 361 1308 q 507 1354 446 1354 q 606 1332 565 1354 q 669 1272 647 1310 q 690 1186 690 1233 q 668 1101 690 1140 q 604 1038 646 1061 q 501 1015 563 1015 m 503 1106 q 556 1128 539 1106 q 574 1186 574 1150 q 556 1242 574 1221 q 504 1264 539 1264 q 451 1242 469 1264 q 433 1183 433 1219 q 450 1127 433 1149 q 503 1106 467 1106 z "},"Ǻ":{"ha":990,"x_min":4,"x_max":986,"o":"m 918 93 l 867 139 l 986 100 l 986 0 l 588 0 l 588 100 l 708 135 l 689 107 l 633 288 l 664 263 l 297 263 l 321 286 l 261 110 l 256 131 l 367 100 l 367 0 l 4 0 l 4 100 l 119 136 l 75 97 l 403 975 l 607 981 l 918 93 m 347 374 l 333 400 l 632 400 l 613 369 l 468 871 l 514 871 l 347 374 m 347 1339 l 292 1444 l 615 1617 l 689 1469 l 347 1339 m 503 1010 q 403 1032 444 1010 q 339 1092 361 1054 q 317 1178 317 1131 q 339 1265 317 1226 q 404 1326 361 1303 q 507 1349 447 1349 q 606 1326 565 1349 q 669 1266 647 1304 q 692 1181 692 1228 q 669 1095 692 1135 q 605 1033 647 1056 q 503 1010 563 1010 m 503 1100 q 556 1122 539 1100 q 574 1181 574 1144 q 557 1237 574 1215 q 504 1258 540 1258 q 452 1236 469 1258 q 435 1178 435 1214 q 451 1122 435 1143 q 503 1100 468 1100 z "},"Ã":{"ha":990,"x_min":4,"x_max":986,"o":"m 918 93 l 867 139 l 986 100 l 986 0 l 588 0 l 588 100 l 708 135 l 689 107 l 633 288 l 664 263 l 297 263 l 321 286 l 261 110 l 256 131 l 367 100 l 367 0 l 4 0 l 4 100 l 119 136 l 75 97 l 403 975 l 607 981 l 918 93 m 347 374 l 333 400 l 632 400 l 613 369 l 468 871 l 514 871 l 347 374 m 324 1078 l 243 1114 q 306 1235 269 1199 q 393 1272 343 1272 q 467 1258 431 1272 q 537 1228 503 1243 q 597 1213 571 1213 q 642 1228 622 1213 q 682 1276 661 1243 l 764 1240 q 697 1118 736 1156 q 604 1081 657 1081 q 533 1096 569 1081 q 464 1126 497 1111 q 403 1140 431 1140 q 363 1125 381 1140 q 324 1078 344 1110 z "},"Ǽ":{"ha":1308,"x_min":1,"x_max":1239,"o":"m 1 0 l 1 100 l 121 136 l 68 96 l 433 864 l 454 833 l 318 871 l 318 971 l 632 978 l 1221 978 l 1221 728 l 1103 728 l 1074 871 l 1110 835 l 790 835 l 821 865 l 821 542 l 790 574 l 1113 574 l 1113 435 l 790 435 l 821 471 l 821 111 l 790 143 l 1126 143 l 1090 108 l 1121 261 l 1239 261 l 1238 0 l 529 0 l 529 100 l 647 139 l 622 106 l 622 313 l 653 281 l 314 281 l 357 313 l 254 94 l 243 136 l 365 100 l 365 0 l 1 0 m 390 393 l 368 419 l 653 419 l 622 393 l 622 856 l 653 835 l 565 835 l 604 854 l 390 393 m 633 1046 l 578 1151 l 897 1329 l 972 1182 l 633 1046 z "},"Ć":{"ha":878,"x_min":57,"x_max":833,"o":"m 474 -17 q 265 40 360 -17 q 114 208 171 96 q 57 483 57 319 q 113 758 57 644 q 269 933 168 872 q 507 994 371 994 q 656 976 579 994 q 819 922 732 958 l 807 672 l 689 672 l 656 835 l 689 803 q 596 832 640 822 q 514 842 551 842 q 381 802 435 842 q 299 688 326 763 q 271 508 271 613 q 303 305 271 386 q 394 184 336 224 q 524 144 451 144 q 638 167 578 144 q 760 238 699 190 l 833 122 q 655 18 747 53 q 474 -17 563 -17 m 350 1046 l 294 1151 l 614 1329 l 689 1182 l 350 1046 z "},"Č":{"ha":878,"x_min":57,"x_max":833,"o":"m 474 -17 q 265 40 360 -17 q 114 208 171 96 q 57 483 57 319 q 113 758 57 644 q 269 933 168 872 q 507 994 371 994 q 656 976 579 994 q 819 922 732 958 l 807 672 l 689 672 l 656 835 l 689 803 q 596 832 640 822 q 514 842 551 842 q 381 802 435 842 q 299 688 326 763 q 271 508 271 613 q 303 305 271 386 q 394 184 336 224 q 524 144 451 144 q 638 167 578 144 q 760 238 699 190 l 833 122 q 655 18 747 53 q 474 -17 563 -17 m 683 1321 l 747 1244 l 546 1063 l 435 1053 l 218 1244 l 283 1321 l 556 1154 l 421 1156 l 683 1321 z "},"Ç":{"ha":878,"x_min":57,"x_max":833,"o":"m 474 -17 q 265 40 360 -17 q 114 208 171 96 q 57 483 57 319 q 113 758 57 644 q 269 933 168 872 q 507 994 371 994 q 656 976 579 994 q 819 922 732 958 l 807 672 l 689 672 l 656 835 l 689 803 q 596 832 640 822 q 514 842 551 842 q 381 802 435 842 q 299 688 326 763 q 271 508 271 613 q 303 305 271 386 q 394 184 336 224 q 524 144 451 144 q 638 167 578 144 q 760 238 699 190 l 833 122 q 655 18 747 53 q 474 -17 563 -17 m 489 -353 q 412 -344 451 -353 q 338 -318 372 -336 l 374 -225 q 431 -242 400 -235 q 488 -249 463 -249 q 535 -237 517 -249 q 554 -206 554 -226 q 535 -175 554 -187 q 483 -156 515 -162 q 411 -149 450 -150 l 419 0 l 535 0 l 535 -68 q 654 -112 615 -76 q 693 -199 693 -147 q 665 -284 693 -250 q 590 -335 636 -318 q 489 -353 543 -353 z "},"Ĉ":{"ha":878,"x_min":57,"x_max":833,"o":"m 474 -17 q 265 40 360 -17 q 114 208 171 96 q 57 483 57 319 q 113 758 57 644 q 269 933 168 872 q 507 994 371 994 q 656 976 579 994 q 819 922 732 958 l 807 672 l 689 672 l 656 835 l 689 803 q 596 832 640 822 q 514 842 551 842 q 381 802 435 842 q 299 688 326 763 q 271 508 271 613 q 303 305 271 386 q 394 184 336 224 q 524 144 451 144 q 638 167 578 144 q 760 238 699 190 l 833 122 q 655 18 747 53 q 474 -17 563 -17 m 283 1040 l 219 1117 l 421 1297 l 532 1307 l 747 1117 l 682 1040 l 411 1206 l 546 1204 l 283 1040 z "},"Ċ":{"ha":878,"x_min":57,"x_max":833,"o":"m 474 -17 q 265 40 360 -17 q 114 208 171 96 q 57 483 57 319 q 113 758 57 644 q 269 933 168 872 q 507 994 371 994 q 656 976 579 994 q 819 922 732 958 l 807 672 l 689 672 l 656 835 l 689 803 q 596 832 640 822 q 514 842 551 842 q 381 802 435 842 q 299 688 326 763 q 271 508 271 613 q 303 305 271 386 q 394 184 336 224 q 524 144 451 144 q 638 167 578 144 q 760 238 699 190 l 833 122 q 655 18 747 53 q 474 -17 563 -17 m 483 1058 q 401 1088 432 1058 q 369 1171 369 1117 q 402 1258 369 1229 q 485 1286 435 1286 q 565 1258 533 1286 q 597 1172 597 1229 q 565 1087 597 1115 q 483 1058 532 1058 z "},"Ď":{"ha":989,"x_min":50,"x_max":933,"o":"m 488 978 q 672 949 589 978 q 813 860 754 919 q 902 712 871 800 q 933 506 933 624 q 874 228 933 340 q 709 58 815 115 q 458 0 603 0 l 50 0 l 50 100 l 179 138 l 153 97 l 153 875 l 182 835 l 50 871 l 50 971 l 365 978 l 488 978 m 468 143 q 557 156 513 143 q 638 206 601 169 q 697 311 675 242 q 719 494 719 381 q 699 672 719 604 q 643 774 678 739 q 566 822 608 810 q 482 835 524 835 l 321 835 l 351 865 l 351 113 l 321 143 l 468 143 m 642 1321 l 706 1244 l 504 1063 l 393 1053 l 176 1244 l 242 1321 l 514 1154 l 379 1156 l 642 1321 z "},"Đ":{"ha":989,"x_min":50,"x_max":933,"o":"m 50 432 l 50 563 l 531 563 l 531 432 l 50 432 m 488 978 q 672 949 589 978 q 813 860 754 919 q 902 712 871 800 q 933 506 933 624 q 874 228 933 340 q 709 58 815 115 q 458 0 603 0 l 50 0 l 50 100 l 179 138 l 153 97 l 153 875 l 182 835 l 50 871 l 50 971 l 365 978 l 488 978 m 468 143 q 557 156 513 143 q 638 206 601 169 q 697 311 675 242 q 719 494 719 381 q 699 672 719 604 q 643 774 678 739 q 566 822 608 810 q 482 835 524 835 l 321 835 l 351 865 l 351 113 l 321 143 l 468 143 z "},"É":{"ha":846,"x_min":50,"x_max":776,"o":"m 658 261 l 776 261 l 774 0 l 50 0 l 50 100 l 179 138 l 153 97 l 153 875 l 178 836 l 50 871 l 50 971 l 347 978 l 758 978 l 758 728 l 640 728 l 613 863 l 650 835 l 321 835 l 351 865 l 351 536 l 321 567 l 650 567 l 650 429 l 321 429 l 351 464 l 351 113 l 321 143 l 667 143 l 629 113 l 658 261 m 300 1046 l 244 1151 l 564 1329 l 639 1182 l 300 1046 z "},"Ĕ":{"ha":846,"x_min":50,"x_max":776,"o":"m 658 261 l 776 261 l 774 0 l 50 0 l 50 100 l 179 138 l 153 97 l 153 875 l 178 836 l 50 871 l 50 971 l 347 978 l 758 978 l 758 728 l 640 728 l 613 863 l 650 835 l 321 835 l 351 865 l 351 536 l 321 567 l 650 567 l 650 429 l 321 429 l 351 464 l 351 113 l 321 143 l 667 143 l 629 113 l 658 261 m 432 1064 q 326 1088 376 1064 q 242 1160 275 1113 q 208 1279 210 1208 l 321 1292 q 364 1213 328 1239 q 439 1188 400 1188 q 512 1211 479 1188 q 549 1283 544 1235 l 658 1288 q 628 1165 661 1215 q 542 1090 594 1115 q 432 1064 489 1064 z "},"Ě":{"ha":846,"x_min":50,"x_max":776,"o":"m 658 261 l 776 261 l 774 0 l 50 0 l 50 100 l 179 138 l 153 97 l 153 875 l 178 836 l 50 871 l 50 971 l 347 978 l 758 978 l 758 728 l 640 728 l 613 863 l 650 835 l 321 835 l 351 865 l 351 536 l 321 567 l 650 567 l 650 429 l 321 429 l 351 464 l 351 113 l 321 143 l 667 143 l 629 113 l 658 261 m 633 1321 l 697 1244 l 496 1063 l 385 1053 l 168 1244 l 233 1321 l 506 1154 l 371 1156 l 633 1321 z "},"Ê":{"ha":846,"x_min":50,"x_max":776,"o":"m 658 261 l 776 261 l 774 0 l 50 0 l 50 100 l 179 138 l 153 97 l 153 875 l 178 836 l 50 871 l 50 971 l 347 978 l 758 978 l 758 728 l 640 728 l 613 863 l 650 835 l 321 835 l 351 865 l 351 536 l 321 567 l 650 567 l 650 429 l 321 429 l 351 464 l 351 113 l 321 143 l 667 143 l 629 113 l 658 261 m 233 1040 l 169 1117 l 371 1297 l 482 1307 l 697 1117 l 632 1040 l 361 1206 l 496 1204 l 233 1040 z "},"Ế":{"ha":846,"x_min":50,"x_max":894,"o":"m 658 261 l 776 261 l 774 0 l 50 0 l 50 100 l 179 138 l 153 97 l 153 875 l 178 836 l 50 871 l 50 971 l 347 978 l 758 978 l 758 728 l 640 728 l 613 863 l 650 835 l 321 835 l 351 865 l 351 536 l 321 567 l 650 567 l 650 429 l 321 429 l 351 464 l 351 113 l 321 143 l 667 143 l 629 113 l 658 261 m 660 1179 l 588 1261 l 799 1457 l 894 1347 l 660 1179 m 236 1017 l 172 1093 l 374 1274 l 485 1285 l 700 1093 l 635 1017 l 364 1183 l 499 1181 l 236 1017 z "},"Ệ":{"ha":846,"x_min":50,"x_max":776,"o":"m 658 261 l 776 261 l 774 0 l 50 0 l 50 100 l 179 138 l 153 97 l 153 875 l 178 836 l 50 871 l 50 971 l 347 978 l 758 978 l 758 728 l 640 728 l 613 863 l 650 835 l 321 835 l 351 865 l 351 536 l 321 567 l 650 567 l 650 429 l 321 429 l 351 464 l 351 113 l 321 143 l 667 143 l 629 113 l 658 261 m 233 1040 l 169 1117 l 371 1297 l 482 1307 l 697 1117 l 632 1040 l 361 1206 l 496 1204 l 233 1040 m 433 -304 q 351 -275 382 -304 q 319 -192 319 -246 q 352 -105 319 -133 q 435 -76 385 -76 q 515 -105 483 -76 q 547 -190 547 -133 q 515 -276 547 -247 q 433 -304 482 -304 z "},"Ề":{"ha":846,"x_min":50,"x_max":786,"o":"m 658 261 l 776 261 l 774 0 l 50 0 l 50 100 l 179 138 l 153 97 l 153 875 l 178 836 l 50 871 l 50 971 l 347 978 l 758 978 l 758 728 l 640 728 l 613 863 l 650 835 l 321 835 l 351 865 l 351 536 l 321 567 l 650 567 l 650 429 l 321 429 l 351 464 l 351 113 l 321 143 l 667 143 l 629 113 l 658 261 m 703 1175 l 494 1374 l 604 1469 l 786 1246 l 703 1175 m 235 1017 l 171 1093 l 372 1274 l 483 1285 l 699 1093 l 633 1017 l 363 1183 l 497 1181 l 235 1017 z "},"Ể":{"ha":846,"x_min":50,"x_max":831,"o":"m 658 261 l 776 261 l 774 0 l 50 0 l 50 100 l 179 138 l 153 97 l 153 875 l 178 836 l 50 871 l 50 971 l 347 978 l 758 978 l 758 728 l 640 728 l 613 863 l 650 835 l 321 835 l 351 865 l 351 536 l 321 567 l 650 567 l 650 429 l 321 429 l 351 464 l 351 113 l 321 143 l 667 143 l 629 113 l 658 261 m 236 1015 l 172 1092 l 374 1272 l 485 1282 l 700 1092 l 635 1015 l 364 1181 l 499 1179 l 236 1015 m 585 1229 l 585 1335 q 663 1353 636 1338 q 689 1396 689 1368 q 671 1431 689 1421 q 625 1442 653 1442 q 583 1438 606 1442 q 539 1426 561 1433 l 515 1515 q 587 1534 551 1528 q 657 1540 622 1540 q 779 1508 728 1540 q 831 1406 831 1476 q 801 1324 831 1358 q 708 1278 772 1290 l 708 1229 l 585 1229 z "},"Ễ":{"ha":846,"x_min":50,"x_max":776,"o":"m 658 261 l 776 261 l 774 0 l 50 0 l 50 100 l 179 138 l 153 97 l 153 875 l 178 836 l 50 871 l 50 971 l 347 978 l 758 978 l 758 728 l 640 728 l 613 863 l 650 835 l 321 835 l 351 865 l 351 536 l 321 567 l 650 567 l 650 429 l 321 429 l 351 464 l 351 113 l 321 143 l 667 143 l 629 113 l 658 261 m 256 1300 l 175 1336 q 238 1458 201 1421 q 324 1494 274 1494 q 397 1480 361 1494 q 465 1450 432 1465 q 525 1435 499 1435 q 569 1450 550 1435 q 608 1499 589 1465 l 690 1463 q 623 1340 663 1378 q 532 1303 583 1303 q 463 1317 497 1303 q 394 1347 428 1332 q 333 1363 361 1363 q 294 1347 311 1363 q 256 1300 276 1332 m 233 1017 l 171 1093 l 372 1274 l 482 1285 l 699 1093 l 633 1017 l 363 1183 l 497 1181 l 233 1017 z "},"Ȅ":{"ha":846,"x_min":50,"x_max":776,"o":"m 658 261 l 776 261 l 774 0 l 50 0 l 50 100 l 179 138 l 153 97 l 153 875 l 178 836 l 50 871 l 50 971 l 347 978 l 758 978 l 758 728 l 640 728 l 613 863 l 650 835 l 321 835 l 351 865 l 351 536 l 321 567 l 650 567 l 650 429 l 321 429 l 351 464 l 351 113 l 321 143 l 667 143 l 629 113 l 658 261 m 303 1031 l 403 1081 l 283 1354 l 151 1285 l 303 1031 m 532 1031 l 635 1078 l 524 1354 l 389 1290 l 532 1031 z "},"Ë":{"ha":846,"x_min":50,"x_max":776,"o":"m 658 261 l 776 261 l 774 0 l 50 0 l 50 100 l 179 138 l 153 97 l 153 875 l 178 836 l 50 871 l 50 971 l 347 978 l 758 978 l 758 728 l 640 728 l 613 863 l 650 835 l 321 835 l 351 865 l 351 536 l 321 567 l 650 567 l 650 429 l 321 429 l 351 464 l 351 113 l 321 143 l 667 143 l 629 113 l 658 261 m 585 1058 q 514 1085 539 1058 q 489 1161 489 1113 q 516 1238 488 1210 q 585 1265 544 1265 q 657 1238 631 1265 q 683 1161 683 1210 q 655 1085 683 1113 q 585 1058 626 1058 m 279 1058 q 210 1085 235 1058 q 183 1161 185 1113 q 210 1238 182 1210 q 279 1265 239 1265 q 351 1238 325 1265 q 378 1161 378 1210 q 349 1085 378 1113 q 279 1058 319 1058 z "},"Ė":{"ha":846,"x_min":50,"x_max":776,"o":"m 658 261 l 776 261 l 774 0 l 50 0 l 50 100 l 179 138 l 153 97 l 153 875 l 178 836 l 50 871 l 50 971 l 347 978 l 758 978 l 758 728 l 640 728 l 613 863 l 650 835 l 321 835 l 351 865 l 351 536 l 321 567 l 650 567 l 650 429 l 321 429 l 351 464 l 351 113 l 321 143 l 667 143 l 629 113 l 658 261 m 433 1058 q 351 1088 382 1058 q 319 1171 319 1117 q 352 1258 319 1229 q 435 1286 385 1286 q 515 1258 483 1286 q 547 1172 547 1229 q 515 1087 547 1115 q 433 1058 482 1058 z "},"Ẹ":{"ha":846,"x_min":50,"x_max":776,"o":"m 658 261 l 776 261 l 774 0 l 50 0 l 50 100 l 179 138 l 153 97 l 153 875 l 178 836 l 50 871 l 50 971 l 347 978 l 758 978 l 758 728 l 640 728 l 613 863 l 650 835 l 321 835 l 351 865 l 351 536 l 321 567 l 650 567 l 650 429 l 321 429 l 351 464 l 351 113 l 321 143 l 667 143 l 629 113 l 658 261 m 433 -304 q 351 -275 382 -304 q 319 -192 319 -246 q 352 -105 319 -133 q 435 -76 385 -76 q 515 -105 483 -76 q 547 -190 547 -133 q 515 -276 547 -247 q 433 -304 482 -304 z "},"È":{"ha":846,"x_min":50,"x_max":776,"o":"m 658 261 l 776 261 l 774 0 l 50 0 l 50 100 l 179 138 l 153 97 l 153 875 l 178 836 l 50 871 l 50 971 l 347 978 l 758 978 l 758 728 l 640 728 l 613 863 l 650 835 l 321 835 l 351 865 l 351 536 l 321 567 l 650 567 l 650 429 l 321 429 l 351 464 l 351 113 l 321 143 l 667 143 l 629 113 l 658 261 m 582 1046 l 240 1182 l 317 1329 l 635 1151 l 582 1046 z "},"Ẻ":{"ha":846,"x_min":50,"x_max":776,"o":"m 658 261 l 776 261 l 774 0 l 50 0 l 50 100 l 179 138 l 153 97 l 153 875 l 178 836 l 50 871 l 50 971 l 347 978 l 758 978 l 758 728 l 640 728 l 613 863 l 650 835 l 321 835 l 351 865 l 351 536 l 321 567 l 650 567 l 650 429 l 321 429 l 351 464 l 351 113 l 321 143 l 667 143 l 629 113 l 658 261 m 363 1038 l 363 1143 q 440 1161 414 1146 q 467 1204 467 1176 q 449 1240 467 1229 q 403 1250 431 1250 q 361 1246 383 1250 q 317 1235 339 1242 l 293 1324 q 365 1342 329 1336 q 435 1349 400 1349 q 557 1317 506 1349 q 608 1214 608 1285 q 579 1133 608 1167 q 486 1086 550 1099 l 486 1038 l 363 1038 z "},"Ȇ":{"ha":846,"x_min":50,"x_max":776,"o":"m 658 261 l 776 261 l 774 0 l 50 0 l 50 100 l 179 138 l 153 97 l 153 875 l 178 836 l 50 871 l 50 971 l 347 978 l 758 978 l 758 728 l 640 728 l 613 863 l 650 835 l 321 835 l 351 865 l 351 536 l 321 567 l 650 567 l 650 429 l 321 429 l 351 464 l 351 113 l 321 143 l 667 143 l 629 113 l 658 261 m 433 1288 q 548 1258 499 1288 q 626 1179 597 1229 q 657 1063 656 1129 l 543 1050 q 506 1126 538 1099 q 428 1154 475 1154 q 355 1128 382 1154 q 324 1058 328 1103 l 211 1053 q 238 1175 210 1122 q 317 1258 265 1228 q 433 1288 368 1288 z "},"Ē":{"ha":846,"x_min":50,"x_max":776,"o":"m 658 261 l 776 261 l 774 0 l 50 0 l 50 100 l 179 138 l 153 97 l 153 875 l 178 836 l 50 871 l 50 971 l 347 978 l 758 978 l 758 728 l 640 728 l 613 863 l 650 835 l 321 835 l 351 865 l 351 536 l 321 567 l 650 567 l 650 429 l 321 429 l 351 464 l 351 113 l 321 143 l 667 143 l 629 113 l 658 261 m 642 1226 l 642 1092 l 225 1092 l 225 1226 l 642 1226 z "},"Ŋ":{"ha":1093,"x_min":50,"x_max":1057,"o":"m 646 -336 q 599 -334 622 -336 q 553 -328 575 -332 l 567 -189 q 597 -192 583 -190 q 624 -193 611 -193 q 722 -165 692 -193 q 751 -69 751 -136 l 751 35 l 763 -24 l 300 740 l 324 740 l 324 97 l 293 139 l 442 100 l 442 0 l 50 0 l 50 100 l 192 139 l 161 97 l 161 875 l 182 839 l 50 871 l 50 971 l 389 978 l 810 253 l 785 251 l 785 876 l 814 836 l 667 871 l 667 971 l 1057 978 l 1057 878 l 918 835 l 946 876 l 946 -44 q 903 -215 946 -151 q 793 -308 861 -279 q 646 -336 725 -336 z "},"Ę":{"ha":846,"x_min":50,"x_max":776,"o":"m 658 261 l 776 261 l 774 0 l 50 0 l 50 100 l 179 138 l 153 97 l 153 875 l 178 836 l 50 871 l 50 971 l 347 978 l 758 978 l 758 728 l 640 728 l 613 863 l 650 835 l 321 835 l 351 865 l 351 536 l 321 567 l 650 567 l 650 429 l 321 429 l 351 464 l 351 113 l 321 143 l 667 143 l 629 113 l 658 261 m 633 -311 q 501 -270 547 -311 q 456 -172 456 -229 q 485 -76 456 -128 q 578 18 515 -25 q 742 79 642 61 l 774 0 q 642 -49 689 -15 q 596 -121 596 -83 q 623 -170 596 -154 q 693 -186 650 -186 q 724 -184 708 -186 q 754 -181 739 -182 l 765 -287 q 696 -306 729 -300 q 633 -311 663 -311 z "},"Ð":{"ha":989,"x_min":50,"x_max":933,"o":"m 50 432 l 50 563 l 531 563 l 531 432 l 50 432 m 488 978 q 672 949 589 978 q 813 860 754 919 q 902 712 871 800 q 933 506 933 624 q 874 228 933 340 q 709 58 815 115 q 458 0 603 0 l 50 0 l 50 100 l 179 138 l 153 97 l 153 875 l 182 835 l 50 871 l 50 971 l 365 978 l 488 978 m 468 143 q 557 156 513 143 q 638 206 601 169 q 697 311 675 242 q 719 494 719 381 q 699 672 719 604 q 643 774 678 739 q 566 822 608 810 q 482 835 524 835 l 321 835 l 351 865 l 351 113 l 321 143 l 468 143 z "},"Ẽ":{"ha":846,"x_min":50,"x_max":776,"o":"m 658 261 l 776 261 l 774 0 l 50 0 l 50 100 l 179 138 l 153 97 l 153 875 l 178 836 l 50 871 l 50 971 l 347 978 l 758 978 l 758 728 l 640 728 l 613 863 l 650 835 l 321 835 l 351 865 l 351 536 l 321 567 l 650 567 l 650 429 l 321 429 l 351 464 l 351 113 l 321 143 l 667 143 l 629 113 l 658 261 m 253 1078 l 172 1114 q 235 1235 199 1199 q 322 1272 272 1272 q 396 1258 360 1272 q 466 1228 432 1243 q 526 1213 500 1213 q 571 1228 551 1213 q 611 1276 590 1243 l 693 1240 q 626 1118 665 1156 q 533 1081 586 1081 q 463 1096 499 1081 q 393 1126 426 1111 q 332 1140 360 1140 q 292 1125 310 1140 q 253 1078 274 1110 z "},"Ğ":{"ha":994,"x_min":58,"x_max":968,"o":"m 513 -17 q 274 40 376 -17 q 115 208 171 97 q 58 483 58 319 q 115 759 58 644 q 276 934 171 874 q 531 994 382 994 q 698 976 611 994 q 874 921 785 958 l 860 672 l 742 672 l 708 833 l 739 806 q 640 833 690 822 q 546 843 590 843 q 399 803 460 843 q 305 683 338 763 q 272 486 272 604 q 340 229 272 322 q 536 136 407 136 q 618 145 575 136 q 707 171 661 154 l 683 129 l 683 393 l 715 358 l 582 385 l 582 488 l 968 494 l 968 390 l 849 358 l 868 393 l 868 61 q 682 3 772 22 q 513 -17 592 -17 m 510 1064 q 403 1088 454 1064 q 320 1160 353 1113 q 286 1279 288 1208 l 399 1292 q 442 1213 406 1239 q 517 1188 478 1188 q 590 1211 557 1188 q 626 1283 622 1235 l 736 1288 q 706 1165 739 1215 q 619 1090 672 1115 q 510 1064 567 1064 z "},"Ǧ":{"ha":994,"x_min":58,"x_max":968,"o":"m 513 -17 q 274 40 376 -17 q 115 208 171 97 q 58 483 58 319 q 115 759 58 644 q 276 934 171 874 q 531 994 382 994 q 698 976 611 994 q 874 921 785 958 l 860 672 l 742 672 l 708 833 l 739 806 q 640 833 690 822 q 546 843 590 843 q 399 803 460 843 q 305 683 338 763 q 272 486 272 604 q 340 229 272 322 q 536 136 407 136 q 618 145 575 136 q 707 171 661 154 l 683 129 l 683 393 l 715 358 l 582 385 l 582 488 l 968 494 l 968 390 l 849 358 l 868 393 l 868 61 q 682 3 772 22 q 513 -17 592 -17 m 711 1321 l 775 1244 l 574 1063 l 463 1053 l 246 1244 l 311 1321 l 583 1154 l 449 1156 l 711 1321 z "},"Ĝ":{"ha":994,"x_min":58,"x_max":968,"o":"m 513 -17 q 274 40 376 -17 q 115 208 171 97 q 58 483 58 319 q 115 759 58 644 q 276 934 171 874 q 531 994 382 994 q 698 976 611 994 q 874 921 785 958 l 860 672 l 742 672 l 708 833 l 739 806 q 640 833 690 822 q 546 843 590 843 q 399 803 460 843 q 305 683 338 763 q 272 486 272 604 q 340 229 272 322 q 536 136 407 136 q 618 145 575 136 q 707 171 661 154 l 683 129 l 683 393 l 715 358 l 582 385 l 582 488 l 968 494 l 968 390 l 849 358 l 868 393 l 868 61 q 682 3 772 22 q 513 -17 592 -17 m 311 1040 l 247 1117 l 449 1297 l 560 1307 l 775 1117 l 710 1040 l 439 1206 l 574 1204 l 311 1040 z "},"Ģ":{"ha":994,"x_min":58,"x_max":968,"o":"m 513 -17 q 274 40 376 -17 q 115 208 171 97 q 58 483 58 319 q 115 759 58 644 q 276 934 171 874 q 531 994 382 994 q 698 976 611 994 q 874 921 785 958 l 860 672 l 742 672 l 708 833 l 739 806 q 640 833 690 822 q 546 843 590 843 q 399 803 460 843 q 305 683 338 763 q 272 486 272 604 q 340 229 272 322 q 536 136 407 136 q 618 145 575 136 q 707 171 661 154 l 683 129 l 683 393 l 715 358 l 582 385 l 582 488 l 968 494 l 968 390 l 849 358 l 868 393 l 868 61 q 682 3 772 22 q 513 -17 592 -17 m 461 -446 l 397 -401 q 439 -326 428 -351 q 450 -283 450 -300 q 441 -253 450 -267 q 422 -221 432 -239 q 413 -175 413 -203 q 443 -103 413 -128 q 511 -79 474 -79 q 580 -105 549 -79 q 611 -181 611 -131 q 578 -296 611 -232 q 461 -446 544 -360 z "},"Ġ":{"ha":994,"x_min":58,"x_max":968,"o":"m 513 -17 q 274 40 376 -17 q 115 208 171 97 q 58 483 58 319 q 115 759 58 644 q 276 934 171 874 q 531 994 382 994 q 698 976 611 994 q 874 921 785 958 l 860 672 l 742 672 l 708 833 l 739 806 q 640 833 690 822 q 546 843 590 843 q 399 803 460 843 q 305 683 338 763 q 272 486 272 604 q 340 229 272 322 q 536 136 407 136 q 618 145 575 136 q 707 171 661 154 l 683 129 l 683 393 l 715 358 l 582 385 l 582 488 l 968 494 l 968 390 l 849 358 l 868 393 l 868 61 q 682 3 772 22 q 513 -17 592 -17 m 510 1058 q 427 1088 458 1058 q 396 1171 396 1117 q 428 1258 396 1229 q 511 1286 461 1286 q 592 1258 560 1286 q 624 1172 624 1229 q 591 1087 624 1115 q 510 1058 558 1058 z "},"Ħ":{"ha":1107,"x_min":57,"x_max":1050,"o":"m 57 661 l 57 758 l 1050 758 l 1050 661 l 57 661 m 57 0 l 57 100 l 186 138 l 160 97 l 160 875 l 192 833 l 57 871 l 57 971 l 460 978 l 460 878 l 328 833 l 358 876 l 358 521 l 328 551 l 781 551 l 750 521 l 750 875 l 781 835 l 647 871 l 647 971 l 1050 978 l 1050 878 l 921 835 l 949 876 l 949 97 l 921 138 l 1050 100 l 1050 0 l 647 0 l 647 100 l 775 138 l 750 97 l 750 444 l 781 413 l 328 413 l 358 444 l 358 97 l 333 138 l 460 100 l 460 0 l 57 0 z "},"Ĥ":{"ha":1093,"x_min":50,"x_max":1043,"o":"m 50 0 l 50 100 l 179 138 l 153 97 l 153 875 l 185 833 l 50 871 l 50 971 l 453 978 l 453 878 l 321 833 l 351 876 l 351 539 l 321 569 l 774 569 l 743 539 l 743 875 l 774 835 l 640 871 l 640 971 l 1043 978 l 1043 878 l 914 835 l 942 876 l 942 97 l 914 138 l 1043 100 l 1043 0 l 640 0 l 640 100 l 768 138 l 743 97 l 743 458 l 774 426 l 321 426 l 351 458 l 351 97 l 326 138 l 453 100 l 453 0 l 50 0 m 344 1040 l 281 1117 l 482 1297 l 593 1307 l 808 1117 l 743 1040 l 472 1206 l 607 1204 l 344 1040 z "},"Í":{"ha":503,"x_min":50,"x_max":457,"o":"m 453 878 l 331 836 l 351 867 l 351 107 l 331 136 l 453 100 l 453 0 l 50 0 l 50 100 l 171 135 l 153 107 l 153 867 l 178 836 l 50 871 l 50 971 l 453 978 l 453 878 m 118 1046 l 63 1151 l 382 1329 l 457 1182 l 118 1046 z "},"Ĭ":{"ha":503,"x_min":25,"x_max":478,"o":"m 453 878 l 331 836 l 351 867 l 351 107 l 331 136 l 453 100 l 453 0 l 50 0 l 50 100 l 171 135 l 153 107 l 153 867 l 178 836 l 50 871 l 50 971 l 453 978 l 453 878 m 250 1064 q 144 1088 194 1064 q 60 1160 93 1113 q 26 1279 28 1208 l 139 1292 q 182 1213 146 1239 q 257 1188 218 1188 q 330 1211 297 1188 q 367 1283 363 1235 l 476 1288 q 446 1165 479 1215 q 360 1090 413 1115 q 250 1064 307 1064 z "},"Î":{"ha":503,"x_min":-12,"x_max":515,"o":"m 453 878 l 331 836 l 351 867 l 351 107 l 331 136 l 453 100 l 453 0 l 50 0 l 50 100 l 171 135 l 153 107 l 153 867 l 178 836 l 50 871 l 50 971 l 453 978 l 453 878 m 51 1040 l -12 1117 l 189 1297 l 300 1307 l 515 1117 l 450 1040 l 179 1206 l 314 1204 l 51 1040 z "},"Ȉ":{"ha":503,"x_min":-31,"x_max":453,"o":"m 453 878 l 331 836 l 351 867 l 351 107 l 331 136 l 453 100 l 453 0 l 50 0 l 50 100 l 171 135 l 153 107 l 153 867 l 178 836 l 50 871 l 50 971 l 453 978 l 453 878 m 121 1031 l 221 1081 l 101 1354 l -31 1285 l 121 1031 m 350 1031 l 453 1078 l 342 1354 l 207 1290 l 350 1031 z "},"Ï":{"ha":503,"x_min":0,"x_max":501,"o":"m 453 878 l 331 836 l 351 867 l 351 107 l 331 136 l 453 100 l 453 0 l 50 0 l 50 100 l 171 135 l 153 107 l 153 867 l 178 836 l 50 871 l 50 971 l 453 978 l 453 878 m 403 1058 q 332 1085 357 1058 q 307 1161 307 1113 q 334 1238 306 1210 q 403 1265 363 1265 q 475 1238 449 1265 q 501 1161 501 1210 q 473 1085 501 1113 q 403 1058 444 1058 m 97 1058 q 28 1085 53 1058 q 1 1161 3 1113 q 28 1238 0 1210 q 97 1265 57 1265 q 169 1238 143 1265 q 196 1161 196 1210 q 167 1085 196 1113 q 97 1058 138 1058 z "},"İ":{"ha":503,"x_min":50,"x_max":453,"o":"m 453 878 l 331 836 l 351 867 l 351 107 l 331 136 l 453 100 l 453 0 l 50 0 l 50 100 l 171 135 l 153 107 l 153 867 l 178 836 l 50 871 l 50 971 l 453 978 l 453 878 m 250 1058 q 167 1088 199 1058 q 136 1171 136 1117 q 169 1258 136 1229 q 251 1286 201 1286 q 332 1258 300 1286 q 364 1172 364 1229 q 331 1087 364 1115 q 250 1058 299 1058 z "},"Ị":{"ha":503,"x_min":50,"x_max":453,"o":"m 453 878 l 331 836 l 351 867 l 351 107 l 331 136 l 453 100 l 453 0 l 50 0 l 50 100 l 171 135 l 153 107 l 153 867 l 178 836 l 50 871 l 50 971 l 453 978 l 453 878 m 253 -304 q 170 -275 201 -304 q 139 -192 139 -246 q 172 -105 139 -133 q 254 -76 204 -76 q 335 -105 303 -76 q 367 -190 367 -133 q 334 -276 367 -247 q 253 -304 301 -304 z "},"Ì":{"ha":503,"x_min":50,"x_max":453,"o":"m 453 878 l 331 836 l 351 867 l 351 107 l 331 136 l 453 100 l 453 0 l 50 0 l 50 100 l 171 135 l 153 107 l 153 867 l 178 836 l 50 871 l 50 971 l 453 978 l 453 878 m 400 1046 l 58 1182 l 135 1329 l 453 1151 l 400 1046 z "},"Ỉ":{"ha":503,"x_min":50,"x_max":453,"o":"m 453 878 l 331 836 l 351 867 l 351 107 l 331 136 l 453 100 l 453 0 l 50 0 l 50 100 l 171 135 l 153 107 l 153 867 l 178 836 l 50 871 l 50 971 l 453 978 l 453 878 m 181 1038 l 181 1143 q 258 1161 232 1146 q 285 1204 285 1176 q 267 1240 285 1229 q 221 1250 249 1250 q 179 1246 201 1250 q 135 1235 157 1242 l 111 1324 q 183 1342 147 1336 q 253 1349 218 1349 q 375 1317 324 1349 q 426 1214 426 1285 q 397 1133 426 1167 q 304 1086 368 1099 l 304 1038 l 181 1038 z "},"Ȋ":{"ha":503,"x_min":28,"x_max":475,"o":"m 453 878 l 331 836 l 351 867 l 351 107 l 331 136 l 453 100 l 453 0 l 50 0 l 50 100 l 171 135 l 153 107 l 153 867 l 178 836 l 50 871 l 50 971 l 453 978 l 453 878 m 251 1288 q 366 1258 317 1288 q 444 1179 415 1229 q 475 1063 474 1129 l 361 1050 q 324 1126 356 1099 q 246 1154 293 1154 q 173 1128 200 1154 q 142 1058 146 1103 l 29 1053 q 56 1175 28 1122 q 135 1258 83 1228 q 251 1288 186 1288 z "},"Ī":{"ha":503,"x_min":43,"x_max":460,"o":"m 453 878 l 331 836 l 351 867 l 351 107 l 331 136 l 453 100 l 453 0 l 50 0 l 50 100 l 171 135 l 153 107 l 153 867 l 178 836 l 50 871 l 50 971 l 453 978 l 453 878 m 460 1226 l 460 1092 l 43 1092 l 43 1226 l 460 1226 z "},"Į":{"ha":503,"x_min":50,"x_max":453,"o":"m 453 878 l 331 836 l 351 867 l 351 107 l 331 136 l 453 100 l 453 0 l 50 0 l 50 100 l 171 135 l 153 107 l 153 867 l 178 836 l 50 871 l 50 971 l 453 978 l 453 878 m 285 -311 q 158 -274 207 -311 q 108 -172 108 -237 q 137 -80 108 -128 q 222 8 165 -32 q 367 72 279 49 l 385 0 q 285 -56 321 -21 q 249 -125 249 -92 q 275 -170 249 -154 q 339 -186 301 -186 q 364 -185 351 -186 q 389 -181 376 -183 l 400 -292 q 340 -306 369 -301 q 285 -311 311 -311 z "},"Ĩ":{"ha":503,"x_min":-10,"x_max":511,"o":"m 453 878 l 331 836 l 351 867 l 351 107 l 331 136 l 453 100 l 453 0 l 50 0 l 50 100 l 171 135 l 153 107 l 153 867 l 178 836 l 50 871 l 50 971 l 453 978 l 453 878 m 71 1078 l -10 1114 q 53 1235 17 1199 q 140 1272 90 1272 q 214 1258 178 1272 q 284 1228 250 1243 q 344 1213 318 1213 q 389 1228 369 1213 q 429 1276 408 1243 l 511 1240 q 444 1118 483 1156 q 351 1081 404 1081 q 281 1096 317 1081 q 211 1126 244 1111 q 150 1140 178 1140 q 110 1125 128 1140 q 71 1078 92 1110 z "},"Ĵ":{"ha":475,"x_min":-61,"x_max":496,"o":"m 28 971 l 439 978 l 439 881 l 315 835 l 338 875 l 338 147 q 324 -10 338 60 q 276 -128 310 -79 q 187 -203 243 -178 q 44 -229 131 -229 q -6 -227 19 -229 q -61 -221 -32 -225 l -44 -79 q -19 -82 -31 -81 q 3 -83 -8 -83 q 108 -37 78 -83 q 139 107 139 10 l 139 875 l 163 838 l 28 871 l 28 971 m 32 1040 l -32 1117 l 169 1297 l 281 1307 l 496 1117 l 431 1040 l 160 1206 l 294 1204 l 32 1040 z "},"Ķ":{"ha":997,"x_min":50,"x_max":979,"o":"m 914 94 l 860 136 l 979 100 l 979 0 l 585 0 l 585 100 l 690 136 l 686 103 l 449 467 l 501 428 l 321 428 l 351 468 l 351 97 l 326 140 l 449 100 l 449 0 l 50 0 l 50 100 l 174 136 l 153 97 l 153 876 l 174 839 l 50 871 l 50 971 l 449 978 l 449 881 l 326 839 l 351 881 l 351 539 l 321 571 l 515 571 l 464 540 l 661 874 l 676 844 l 560 871 l 560 971 l 935 978 l 935 878 l 811 839 l 854 872 l 614 483 l 614 535 l 914 94 m 439 -446 l 375 -401 q 417 -326 406 -351 q 428 -283 428 -300 q 419 -253 428 -267 q 400 -221 410 -239 q 390 -175 390 -203 q 421 -103 390 -128 q 489 -79 451 -79 q 558 -105 526 -79 q 589 -181 589 -131 q 556 -296 589 -232 q 439 -446 522 -360 z "},"Ĺ":{"ha":775,"x_min":50,"x_max":746,"o":"m 628 294 l 746 294 l 746 0 l 50 0 l 50 100 l 175 136 l 153 97 l 153 875 l 175 838 l 50 871 l 50 971 l 463 978 l 463 878 l 331 838 l 351 875 l 351 113 l 321 143 l 624 143 l 596 111 l 628 294 m 119 1046 l 64 1151 l 383 1329 l 458 1182 l 119 1046 z "},"Ľ":{"ha":775,"x_min":50,"x_max":746,"o":"m 628 294 l 746 294 l 746 0 l 50 0 l 50 100 l 175 136 l 153 97 l 153 875 l 175 838 l 50 871 l 50 971 l 463 978 l 463 878 l 331 838 l 351 875 l 351 113 l 321 143 l 624 143 l 596 111 l 628 294 m 661 693 l 547 708 q 565 850 560 779 q 567 997 571 921 l 731 990 q 706 846 724 921 q 661 693 688 771 z "},"Ļ":{"ha":775,"x_min":50,"x_max":746,"o":"m 628 294 l 746 294 l 746 0 l 50 0 l 50 100 l 175 136 l 153 97 l 153 875 l 175 838 l 50 871 l 50 971 l 463 978 l 463 878 l 331 838 l 351 875 l 351 113 l 321 143 l 624 143 l 596 111 l 628 294 m 367 -446 l 303 -401 q 344 -326 333 -351 q 356 -283 356 -300 q 347 -253 356 -267 q 328 -221 338 -239 q 318 -175 318 -203 q 349 -103 318 -128 q 417 -79 379 -79 q 485 -105 454 -79 q 517 -181 517 -131 q 483 -296 517 -232 q 367 -446 450 -360 z "},"Ŀ":{"ha":821,"x_min":50,"x_max":747,"o":"m 628 294 l 746 294 l 746 0 l 50 0 l 50 100 l 175 136 l 153 97 l 153 875 l 175 838 l 50 871 l 50 971 l 463 978 l 463 878 l 331 838 l 351 875 l 351 113 l 321 143 l 624 143 l 596 111 l 628 294 m 526 557 q 559 635 526 606 q 636 665 592 665 q 717 635 688 665 q 747 557 747 606 q 714 478 747 508 q 636 449 681 449 q 556 478 586 449 q 526 557 526 508 z "},"Ł":{"ha":807,"x_min":40,"x_max":778,"o":"m 40 418 l 565 692 l 608 590 l 85 317 l 40 418 m 660 294 l 778 294 l 778 0 l 82 0 l 82 100 l 206 136 l 183 97 l 183 875 l 206 838 l 82 871 l 82 971 l 494 978 l 494 878 l 361 838 l 382 875 l 382 113 l 351 143 l 656 143 l 628 111 l 660 294 z "},"Ń":{"ha":1072,"x_min":50,"x_max":1039,"o":"m 671 971 l 1039 978 l 1039 878 l 908 835 l 938 876 l 938 0 l 708 0 l 289 768 l 317 768 l 317 97 l 288 139 l 419 100 l 419 0 l 50 0 l 50 100 l 182 139 l 153 97 l 153 875 l 172 839 l 50 871 l 50 971 l 389 978 l 801 225 l 772 225 l 772 876 l 803 836 l 671 871 l 671 971 m 419 1046 l 364 1151 l 683 1329 l 758 1182 l 419 1046 z "},"Ň":{"ha":1072,"x_min":50,"x_max":1039,"o":"m 671 971 l 1039 978 l 1039 878 l 908 835 l 938 876 l 938 0 l 708 0 l 289 768 l 317 768 l 317 97 l 288 139 l 419 100 l 419 0 l 50 0 l 50 100 l 182 139 l 153 97 l 153 875 l 172 839 l 50 871 l 50 971 l 389 978 l 801 225 l 772 225 l 772 876 l 803 836 l 671 871 l 671 971 m 753 1321 l 817 1244 l 615 1063 l 504 1053 l 288 1244 l 353 1321 l 625 1154 l 490 1156 l 753 1321 z "},"Ņ":{"ha":1072,"x_min":50,"x_max":1039,"o":"m 671 971 l 1039 978 l 1039 878 l 908 835 l 938 876 l 938 0 l 708 0 l 289 768 l 317 768 l 317 97 l 288 139 l 419 100 l 419 0 l 50 0 l 50 100 l 182 139 l 153 97 l 153 875 l 172 839 l 50 871 l 50 971 l 389 978 l 801 225 l 772 225 l 772 876 l 803 836 l 671 871 l 671 971 m 488 -446 l 424 -401 q 465 -326 454 -351 q 476 -283 476 -300 q 467 -253 476 -267 q 449 -221 458 -239 q 439 -175 439 -203 q 469 -103 439 -128 q 538 -79 500 -79 q 606 -105 575 -79 q 638 -181 638 -131 q 604 -296 638 -232 q 488 -446 571 -360 z "},"Ñ":{"ha":1072,"x_min":50,"x_max":1039,"o":"m 671 971 l 1039 978 l 1039 878 l 908 835 l 938 876 l 938 0 l 708 0 l 289 768 l 317 768 l 317 97 l 288 139 l 419 100 l 419 0 l 50 0 l 50 100 l 182 139 l 153 97 l 153 875 l 172 839 l 50 871 l 50 971 l 389 978 l 801 225 l 772 225 l 772 876 l 803 836 l 671 871 l 671 971 m 372 1078 l 292 1114 q 355 1235 318 1199 q 442 1272 392 1272 q 515 1258 479 1272 q 585 1228 551 1243 q 646 1213 619 1213 q 690 1228 671 1213 q 731 1276 710 1243 l 813 1240 q 745 1118 785 1156 q 653 1081 706 1081 q 582 1096 618 1081 q 513 1126 546 1111 q 451 1140 479 1140 q 411 1125 429 1140 q 372 1078 393 1110 z "},"Ó":{"ha":1017,"x_min":58,"x_max":961,"o":"m 489 -17 q 260 40 357 -17 q 111 206 164 96 q 58 476 58 315 q 92 703 58 606 q 186 865 125 800 q 331 962 247 929 q 518 994 415 994 q 701 963 619 994 q 840 869 782 931 q 929 717 897 808 q 961 507 961 626 q 902 227 961 344 q 738 47 843 110 q 489 -17 632 -17 m 504 136 q 628 170 574 136 q 715 284 682 204 q 747 499 747 364 q 717 699 747 624 q 635 808 688 775 q 510 842 582 842 q 386 808 440 842 q 302 697 332 775 q 272 483 272 619 q 300 283 272 358 q 380 172 328 207 q 504 136 432 136 m 381 1046 l 325 1151 l 644 1329 l 719 1182 l 381 1046 z "},"Ŏ":{"ha":1017,"x_min":58,"x_max":961,"o":"m 489 -17 q 260 40 357 -17 q 111 206 164 96 q 58 476 58 315 q 92 703 58 606 q 186 865 125 800 q 331 962 247 929 q 518 994 415 994 q 701 963 619 994 q 840 869 782 931 q 929 717 897 808 q 961 507 961 626 q 902 227 961 344 q 738 47 843 110 q 489 -17 632 -17 m 504 136 q 628 170 574 136 q 715 284 682 204 q 747 499 747 364 q 717 699 747 624 q 635 808 688 775 q 510 842 582 842 q 386 808 440 842 q 302 697 332 775 q 272 483 272 619 q 300 283 272 358 q 380 172 328 207 q 504 136 432 136 m 511 1064 q 405 1088 456 1064 q 322 1160 354 1113 q 288 1279 289 1208 l 400 1292 q 443 1213 407 1239 q 518 1188 479 1188 q 591 1211 558 1188 q 628 1283 624 1235 l 738 1288 q 707 1165 740 1215 q 621 1090 674 1115 q 511 1064 568 1064 z "},"Ô":{"ha":1017,"x_min":58,"x_max":961,"o":"m 489 -17 q 260 40 357 -17 q 111 206 164 96 q 58 476 58 315 q 92 703 58 606 q 186 865 125 800 q 331 962 247 929 q 518 994 415 994 q 701 963 619 994 q 840 869 782 931 q 929 717 897 808 q 961 507 961 626 q 902 227 961 344 q 738 47 843 110 q 489 -17 632 -17 m 504 136 q 628 170 574 136 q 715 284 682 204 q 747 499 747 364 q 717 699 747 624 q 635 808 688 775 q 510 842 582 842 q 386 808 440 842 q 302 697 332 775 q 272 483 272 619 q 300 283 272 358 q 380 172 328 207 q 504 136 432 136 m 313 1040 l 249 1117 l 450 1297 l 561 1307 l 776 1117 l 711 1040 l 440 1206 l 575 1204 l 313 1040 z "},"Ố":{"ha":1017,"x_min":58,"x_max":974,"o":"m 489 -17 q 260 40 357 -17 q 111 206 164 96 q 58 476 58 315 q 92 703 58 606 q 186 865 125 800 q 331 962 247 929 q 518 994 415 994 q 701 963 619 994 q 840 869 782 931 q 929 717 897 808 q 961 507 961 626 q 902 227 961 344 q 738 47 843 110 q 489 -17 632 -17 m 504 136 q 628 170 574 136 q 715 284 682 204 q 747 499 747 364 q 717 699 747 624 q 635 808 688 775 q 510 842 582 842 q 386 808 440 842 q 302 697 332 775 q 272 483 272 619 q 300 283 272 358 q 380 172 328 207 q 504 136 432 136 m 739 1179 l 667 1261 l 878 1457 l 974 1347 l 739 1179 m 315 1017 l 251 1093 l 453 1274 l 564 1285 l 779 1093 l 714 1017 l 443 1183 l 578 1181 l 315 1017 z "},"Ộ":{"ha":1017,"x_min":58,"x_max":961,"o":"m 489 -17 q 260 40 357 -17 q 111 206 164 96 q 58 476 58 315 q 92 703 58 606 q 186 865 125 800 q 331 962 247 929 q 518 994 415 994 q 701 963 619 994 q 840 869 782 931 q 929 717 897 808 q 961 507 961 626 q 902 227 961 344 q 738 47 843 110 q 489 -17 632 -17 m 504 136 q 628 170 574 136 q 715 284 682 204 q 747 499 747 364 q 717 699 747 624 q 635 808 688 775 q 510 842 582 842 q 386 808 440 842 q 302 697 332 775 q 272 483 272 619 q 300 283 272 358 q 380 172 328 207 q 504 136 432 136 m 313 1040 l 249 1117 l 450 1297 l 561 1307 l 776 1117 l 711 1040 l 440 1206 l 575 1204 l 313 1040 m 507 -304 q 424 -275 456 -304 q 393 -192 393 -246 q 426 -105 393 -133 q 508 -76 458 -76 q 589 -105 557 -76 q 621 -190 621 -133 q 588 -276 621 -247 q 507 -304 556 -304 z "},"Ồ":{"ha":1017,"x_min":58,"x_max":961,"o":"m 489 -17 q 260 40 357 -17 q 111 206 164 96 q 58 476 58 315 q 92 703 58 606 q 186 865 125 800 q 331 962 247 929 q 518 994 415 994 q 701 963 619 994 q 840 869 782 931 q 929 717 897 808 q 961 507 961 626 q 902 227 961 344 q 738 47 843 110 q 489 -17 632 -17 m 504 136 q 628 170 574 136 q 715 284 682 204 q 747 499 747 364 q 717 699 747 624 q 635 808 688 775 q 510 842 582 842 q 386 808 440 842 q 302 697 332 775 q 272 483 272 619 q 300 283 272 358 q 380 172 328 207 q 504 136 432 136 m 782 1175 l 574 1374 l 683 1469 l 865 1246 l 782 1175 m 314 1017 l 250 1093 l 451 1274 l 563 1285 l 778 1093 l 713 1017 l 442 1183 l 576 1181 l 314 1017 z "},"Ổ":{"ha":1017,"x_min":58,"x_max":961,"o":"m 489 -17 q 260 40 357 -17 q 111 206 164 96 q 58 476 58 315 q 92 703 58 606 q 186 865 125 800 q 331 962 247 929 q 518 994 415 994 q 701 963 619 994 q 840 869 782 931 q 929 717 897 808 q 961 507 961 626 q 902 227 961 344 q 738 47 843 110 q 489 -17 632 -17 m 504 136 q 628 170 574 136 q 715 284 682 204 q 747 499 747 364 q 717 699 747 624 q 635 808 688 775 q 510 842 582 842 q 386 808 440 842 q 302 697 332 775 q 272 483 272 619 q 300 283 272 358 q 380 172 328 207 q 504 136 432 136 m 315 1015 l 251 1092 l 453 1272 l 564 1282 l 779 1092 l 714 1015 l 443 1181 l 578 1179 l 315 1015 m 665 1229 l 665 1335 q 743 1353 717 1338 q 769 1396 769 1368 q 751 1431 769 1421 q 706 1442 733 1442 q 664 1438 686 1442 q 619 1426 642 1433 l 596 1515 q 667 1534 632 1528 q 738 1540 703 1540 q 860 1508 808 1540 q 911 1406 911 1476 q 882 1324 911 1358 q 789 1278 853 1290 l 789 1229 l 665 1229 z "},"Ỗ":{"ha":1017,"x_min":58,"x_max":961,"o":"m 489 -17 q 260 40 357 -17 q 111 206 164 96 q 58 476 58 315 q 92 703 58 606 q 186 865 125 800 q 331 962 247 929 q 518 994 415 994 q 701 963 619 994 q 840 869 782 931 q 929 717 897 808 q 961 507 961 626 q 902 227 961 344 q 738 47 843 110 q 489 -17 632 -17 m 504 136 q 628 170 574 136 q 715 284 682 204 q 747 499 747 364 q 717 699 747 624 q 635 808 688 775 q 510 842 582 842 q 386 808 440 842 q 302 697 332 775 q 272 483 272 619 q 300 283 272 358 q 380 172 328 207 q 504 136 432 136 m 335 1300 l 254 1336 q 317 1458 281 1421 q 403 1494 353 1494 q 476 1480 440 1494 q 544 1450 511 1465 q 604 1435 578 1435 q 649 1450 629 1435 q 688 1499 668 1465 l 769 1463 q 702 1340 742 1378 q 611 1303 663 1303 q 542 1317 576 1303 q 474 1347 507 1332 q 413 1363 440 1363 q 373 1347 390 1363 q 335 1300 356 1332 m 313 1017 l 250 1093 l 451 1274 l 561 1285 l 778 1093 l 713 1017 l 442 1183 l 576 1181 l 313 1017 z "},"Ȍ":{"ha":1017,"x_min":58,"x_max":961,"o":"m 489 -17 q 260 40 357 -17 q 111 206 164 96 q 58 476 58 315 q 92 703 58 606 q 186 865 125 800 q 331 962 247 929 q 518 994 415 994 q 701 963 619 994 q 840 869 782 931 q 929 717 897 808 q 961 507 961 626 q 902 227 961 344 q 738 47 843 110 q 489 -17 632 -17 m 504 136 q 628 170 574 136 q 715 284 682 204 q 747 499 747 364 q 717 699 747 624 q 635 808 688 775 q 510 842 582 842 q 386 808 440 842 q 302 697 332 775 q 272 483 272 619 q 300 283 272 358 q 380 172 328 207 q 504 136 432 136 m 382 1031 l 482 1081 l 363 1354 l 231 1285 l 382 1031 m 611 1031 l 714 1078 l 603 1354 l 468 1290 l 611 1031 z "},"Ö":{"ha":1017,"x_min":58,"x_max":961,"o":"m 489 -17 q 260 40 357 -17 q 111 206 164 96 q 58 476 58 315 q 92 703 58 606 q 186 865 125 800 q 331 962 247 929 q 518 994 415 994 q 701 963 619 994 q 840 869 782 931 q 929 717 897 808 q 961 507 961 626 q 902 227 961 344 q 738 47 843 110 q 489 -17 632 -17 m 504 136 q 628 170 574 136 q 715 284 682 204 q 747 499 747 364 q 717 699 747 624 q 635 808 688 775 q 510 842 582 842 q 386 808 440 842 q 302 697 332 775 q 272 483 272 619 q 300 283 272 358 q 380 172 328 207 q 504 136 432 136 m 665 1058 q 594 1085 619 1058 q 569 1161 569 1113 q 597 1238 568 1210 q 665 1265 625 1265 q 738 1238 711 1265 q 764 1161 764 1210 q 735 1085 764 1113 q 665 1058 707 1058 m 360 1058 q 290 1085 315 1058 q 264 1161 265 1113 q 291 1238 263 1210 q 360 1265 319 1265 q 432 1238 406 1265 q 458 1161 458 1210 q 429 1085 458 1113 q 360 1058 400 1058 z "},"Ȫ":{"ha":1017,"x_min":58,"x_max":961,"o":"m 489 -17 q 260 40 357 -17 q 111 206 164 96 q 58 476 58 315 q 92 703 58 606 q 186 865 125 800 q 331 962 247 929 q 518 994 415 994 q 701 963 619 994 q 840 869 782 931 q 929 717 897 808 q 961 507 961 626 q 902 227 961 344 q 738 47 843 110 q 489 -17 632 -17 m 504 136 q 628 170 574 136 q 715 284 682 204 q 747 499 747 364 q 717 699 747 624 q 635 808 688 775 q 510 842 582 842 q 386 808 440 842 q 302 697 332 775 q 272 483 272 619 q 300 283 272 358 q 380 172 328 207 q 504 136 432 136 m 665 1044 q 594 1072 619 1044 q 569 1147 569 1099 q 597 1224 568 1196 q 665 1251 625 1251 q 738 1224 711 1251 q 764 1147 764 1196 q 735 1072 764 1099 q 665 1044 707 1044 m 360 1044 q 290 1072 315 1044 q 264 1147 265 1099 q 291 1224 263 1196 q 360 1251 319 1251 q 432 1224 406 1251 q 458 1147 458 1196 q 429 1072 458 1099 q 360 1044 400 1044 m 722 1439 l 722 1304 l 306 1304 l 306 1439 l 722 1439 z "},"Ȱ":{"ha":1017,"x_min":58,"x_max":961,"o":"m 489 -17 q 260 40 357 -17 q 111 206 164 96 q 58 476 58 315 q 92 703 58 606 q 186 865 125 800 q 331 962 247 929 q 518 994 415 994 q 701 963 619 994 q 840 869 782 931 q 929 717 897 808 q 961 507 961 626 q 902 227 961 344 q 738 47 843 110 q 489 -17 632 -17 m 504 136 q 628 170 574 136 q 715 284 682 204 q 747 499 747 364 q 717 699 747 624 q 635 808 688 775 q 510 842 582 842 q 386 808 440 842 q 302 697 332 775 q 272 483 272 619 q 300 283 272 358 q 380 172 328 207 q 504 136 432 136 m 514 1036 q 431 1065 463 1036 q 400 1149 400 1094 q 433 1235 400 1207 q 515 1264 465 1264 q 596 1235 564 1264 q 628 1150 628 1207 q 595 1065 628 1093 q 514 1036 563 1036 m 722 1439 l 722 1304 l 306 1304 l 306 1439 l 722 1439 z "},"Ọ":{"ha":1017,"x_min":58,"x_max":961,"o":"m 489 -17 q 260 40 357 -17 q 111 206 164 96 q 58 476 58 315 q 92 703 58 606 q 186 865 125 800 q 331 962 247 929 q 518 994 415 994 q 701 963 619 994 q 840 869 782 931 q 929 717 897 808 q 961 507 961 626 q 902 227 961 344 q 738 47 843 110 q 489 -17 632 -17 m 504 136 q 628 170 574 136 q 715 284 682 204 q 747 499 747 364 q 717 699 747 624 q 635 808 688 775 q 510 842 582 842 q 386 808 440 842 q 302 697 332 775 q 272 483 272 619 q 300 283 272 358 q 380 172 328 207 q 504 136 432 136 m 508 -304 q 426 -275 457 -304 q 394 -192 394 -246 q 427 -105 394 -133 q 510 -76 460 -76 q 590 -105 558 -76 q 622 -190 622 -133 q 590 -276 622 -247 q 508 -304 557 -304 z "},"Ò":{"ha":1017,"x_min":58,"x_max":961,"o":"m 489 -17 q 260 40 357 -17 q 111 206 164 96 q 58 476 58 315 q 92 703 58 606 q 186 865 125 800 q 331 962 247 929 q 518 994 415 994 q 701 963 619 994 q 840 869 782 931 q 929 717 897 808 q 961 507 961 626 q 902 227 961 344 q 738 47 843 110 q 489 -17 632 -17 m 504 136 q 628 170 574 136 q 715 284 682 204 q 747 499 747 364 q 717 699 747 624 q 635 808 688 775 q 510 842 582 842 q 386 808 440 842 q 302 697 332 775 q 272 483 272 619 q 300 283 272 358 q 380 172 328 207 q 504 136 432 136 m 661 1046 l 319 1182 l 396 1329 l 714 1151 l 661 1046 z "},"Ỏ":{"ha":1017,"x_min":58,"x_max":961,"o":"m 489 -17 q 260 40 357 -17 q 111 206 164 96 q 58 476 58 315 q 92 703 58 606 q 186 865 125 800 q 331 962 247 929 q 518 994 415 994 q 701 963 619 994 q 840 869 782 931 q 929 717 897 808 q 961 507 961 626 q 902 227 961 344 q 738 47 843 110 q 489 -17 632 -17 m 504 136 q 628 170 574 136 q 715 284 682 204 q 747 499 747 364 q 717 699 747 624 q 635 808 688 775 q 510 842 582 842 q 386 808 440 842 q 302 697 332 775 q 272 483 272 619 q 300 283 272 358 q 380 172 328 207 q 504 136 432 136 m 443 1038 l 443 1143 q 521 1161 494 1146 q 547 1204 547 1176 q 529 1240 547 1229 q 483 1250 511 1250 q 442 1246 464 1250 q 397 1235 419 1242 l 374 1324 q 445 1342 410 1336 q 515 1349 481 1349 q 638 1317 586 1349 q 689 1214 689 1285 q 660 1133 689 1167 q 567 1086 631 1099 l 567 1038 l 443 1038 z "},"Ơ":{"ha":1033,"x_min":58,"x_max":982,"o":"m 489 -17 q 260 40 357 -17 q 111 206 164 96 q 58 476 58 315 q 92 703 58 606 q 186 865 125 800 q 331 962 247 929 q 518 994 415 994 q 701 963 619 994 q 840 869 782 931 q 929 717 897 808 q 961 507 961 626 q 902 227 961 344 q 738 47 843 110 q 489 -17 632 -17 m 504 136 q 628 170 574 136 q 715 284 682 204 q 747 499 747 364 q 717 699 747 624 q 635 808 688 775 q 510 842 582 842 q 386 808 440 842 q 302 697 332 775 q 272 483 272 619 q 300 283 272 358 q 380 172 328 207 q 504 136 432 136 m 719 872 l 667 964 q 786 985 746 964 q 826 1054 826 1007 q 820 1097 826 1072 q 804 1151 814 1121 l 944 1183 q 973 1108 964 1143 q 982 1043 982 1074 q 911 915 982 960 q 719 872 840 869 z "},"Ớ":{"ha":1033,"x_min":58,"x_max":982,"o":"m 489 -17 q 260 40 357 -17 q 111 206 164 96 q 58 476 58 315 q 92 703 58 606 q 186 865 125 800 q 331 962 247 929 q 518 994 415 994 q 701 963 619 994 q 840 869 782 931 q 929 717 897 808 q 961 507 961 626 q 902 227 961 344 q 738 47 843 110 q 489 -17 632 -17 m 504 136 q 628 170 574 136 q 715 284 682 204 q 747 499 747 364 q 717 699 747 624 q 635 808 688 775 q 510 842 582 842 q 386 808 440 842 q 302 697 332 775 q 272 483 272 619 q 300 283 272 358 q 380 172 328 207 q 504 136 432 136 m 719 872 l 667 964 q 786 985 746 964 q 826 1054 826 1007 q 820 1097 826 1072 q 804 1151 814 1121 l 944 1183 q 973 1108 964 1143 q 982 1043 982 1074 q 911 915 982 960 q 719 872 840 869 m 381 1046 l 325 1151 l 644 1329 l 719 1182 l 381 1046 z "},"Ợ":{"ha":1033,"x_min":58,"x_max":982,"o":"m 489 -17 q 260 40 357 -17 q 111 206 164 96 q 58 476 58 315 q 92 703 58 606 q 186 865 125 800 q 331 962 247 929 q 518 994 415 994 q 701 963 619 994 q 840 869 782 931 q 929 717 897 808 q 961 507 961 626 q 902 227 961 344 q 738 47 843 110 q 489 -17 632 -17 m 504 136 q 628 170 574 136 q 715 284 682 204 q 747 499 747 364 q 717 699 747 624 q 635 808 688 775 q 510 842 582 842 q 386 808 440 842 q 302 697 332 775 q 272 483 272 619 q 300 283 272 358 q 380 172 328 207 q 504 136 432 136 m 719 872 l 667 964 q 786 985 746 964 q 826 1054 826 1007 q 820 1097 826 1072 q 804 1151 814 1121 l 944 1183 q 973 1108 964 1143 q 982 1043 982 1074 q 911 915 982 960 q 719 872 840 869 m 508 -304 q 426 -275 457 -304 q 394 -192 394 -246 q 427 -105 394 -133 q 510 -76 460 -76 q 590 -105 558 -76 q 622 -190 622 -133 q 590 -276 622 -247 q 508 -304 557 -304 z "},"Ờ":{"ha":1033,"x_min":58,"x_max":982,"o":"m 489 -17 q 260 40 357 -17 q 111 206 164 96 q 58 476 58 315 q 92 703 58 606 q 186 865 125 800 q 331 962 247 929 q 518 994 415 994 q 701 963 619 994 q 840 869 782 931 q 929 717 897 808 q 961 507 961 626 q 902 227 961 344 q 738 47 843 110 q 489 -17 632 -17 m 504 136 q 628 170 574 136 q 715 284 682 204 q 747 499 747 364 q 717 699 747 624 q 635 808 688 775 q 510 842 582 842 q 386 808 440 842 q 302 697 332 775 q 272 483 272 619 q 300 283 272 358 q 380 172 328 207 q 504 136 432 136 m 719 872 l 667 964 q 786 985 746 964 q 826 1054 826 1007 q 820 1097 826 1072 q 804 1151 814 1121 l 944 1183 q 973 1108 964 1143 q 982 1043 982 1074 q 911 915 982 960 q 719 872 840 869 m 661 1046 l 319 1182 l 396 1329 l 714 1151 l 661 1046 z "},"Ở":{"ha":1033,"x_min":58,"x_max":982,"o":"m 489 -17 q 260 40 357 -17 q 111 206 164 96 q 58 476 58 315 q 92 703 58 606 q 186 865 125 800 q 331 962 247 929 q 518 994 415 994 q 701 963 619 994 q 840 869 782 931 q 929 717 897 808 q 961 507 961 626 q 902 227 961 344 q 738 47 843 110 q 489 -17 632 -17 m 504 136 q 628 170 574 136 q 715 284 682 204 q 747 499 747 364 q 717 699 747 624 q 635 808 688 775 q 510 842 582 842 q 386 808 440 842 q 302 697 332 775 q 272 483 272 619 q 300 283 272 358 q 380 172 328 207 q 504 136 432 136 m 719 872 l 667 964 q 786 985 746 964 q 826 1054 826 1007 q 820 1097 826 1072 q 804 1151 814 1121 l 944 1183 q 973 1108 964 1143 q 982 1043 982 1074 q 911 915 982 960 q 719 872 840 869 m 443 1038 l 443 1143 q 521 1161 494 1146 q 547 1204 547 1176 q 529 1240 547 1229 q 483 1250 511 1250 q 442 1246 464 1250 q 397 1235 419 1242 l 374 1324 q 445 1342 410 1336 q 515 1349 481 1349 q 638 1317 586 1349 q 689 1214 689 1285 q 660 1133 689 1167 q 567 1086 631 1099 l 567 1038 l 443 1038 z "},"Ỡ":{"ha":1033,"x_min":58,"x_max":982,"o":"m 489 -17 q 260 40 357 -17 q 111 206 164 96 q 58 476 58 315 q 92 703 58 606 q 186 865 125 800 q 331 962 247 929 q 518 994 415 994 q 701 963 619 994 q 840 869 782 931 q 929 717 897 808 q 961 507 961 626 q 902 227 961 344 q 738 47 843 110 q 489 -17 632 -17 m 504 136 q 628 170 574 136 q 715 284 682 204 q 747 499 747 364 q 717 699 747 624 q 635 808 688 775 q 510 842 582 842 q 386 808 440 842 q 302 697 332 775 q 272 483 272 619 q 300 283 272 358 q 380 172 328 207 q 504 136 432 136 m 719 872 l 667 964 q 786 985 746 964 q 826 1054 826 1007 q 820 1097 826 1072 q 804 1151 814 1121 l 944 1183 q 973 1108 964 1143 q 982 1043 982 1074 q 911 915 982 960 q 719 872 840 869 m 333 1078 l 253 1114 q 316 1235 279 1199 q 403 1272 353 1272 q 476 1258 440 1272 q 547 1228 513 1243 q 607 1213 581 1213 q 651 1228 632 1213 q 692 1276 671 1243 l 774 1240 q 706 1118 746 1156 q 614 1081 667 1081 q 543 1096 579 1081 q 474 1126 507 1111 q 413 1140 440 1140 q 372 1125 390 1140 q 333 1078 354 1110 z "},"Ő":{"ha":1017,"x_min":58,"x_max":961,"o":"m 489 -17 q 260 40 357 -17 q 111 206 164 96 q 58 476 58 315 q 92 703 58 606 q 186 865 125 800 q 331 962 247 929 q 518 994 415 994 q 701 963 619 994 q 840 869 782 931 q 929 717 897 808 q 961 507 961 626 q 902 227 961 344 q 738 47 843 110 q 489 -17 632 -17 m 504 136 q 628 170 574 136 q 715 284 682 204 q 747 499 747 364 q 717 699 747 624 q 635 808 688 775 q 510 842 582 842 q 386 808 440 842 q 302 697 332 775 q 272 483 272 619 q 300 283 272 358 q 380 172 328 207 q 504 136 432 136 m 650 1032 l 550 1082 l 669 1356 l 801 1286 l 650 1032 m 421 1032 l 319 1079 l 431 1356 l 564 1290 l 421 1032 z "},"Ȏ":{"ha":1017,"x_min":58,"x_max":961,"o":"m 489 -17 q 260 40 357 -17 q 111 206 164 96 q 58 476 58 315 q 92 703 58 606 q 186 865 125 800 q 331 962 247 929 q 518 994 415 994 q 701 963 619 994 q 840 869 782 931 q 929 717 897 808 q 961 507 961 626 q 902 227 961 344 q 738 47 843 110 q 489 -17 632 -17 m 504 136 q 628 170 574 136 q 715 284 682 204 q 747 499 747 364 q 717 699 747 624 q 635 808 688 775 q 510 842 582 842 q 386 808 440 842 q 302 697 332 775 q 272 483 272 619 q 300 283 272 358 q 380 172 328 207 q 504 136 432 136 m 513 1288 q 627 1258 578 1288 q 706 1179 676 1229 q 736 1063 735 1129 l 622 1050 q 585 1126 617 1099 q 507 1154 554 1154 q 434 1128 461 1154 q 403 1058 407 1103 l 290 1053 q 317 1175 289 1122 q 396 1258 344 1228 q 513 1288 447 1288 z "},"Ō":{"ha":1017,"x_min":58,"x_max":961,"o":"m 489 -17 q 260 40 357 -17 q 111 206 164 96 q 58 476 58 315 q 92 703 58 606 q 186 865 125 800 q 331 962 247 929 q 518 994 415 994 q 701 963 619 994 q 840 869 782 931 q 929 717 897 808 q 961 507 961 626 q 902 227 961 344 q 738 47 843 110 q 489 -17 632 -17 m 504 136 q 628 170 574 136 q 715 284 682 204 q 747 499 747 364 q 717 699 747 624 q 635 808 688 775 q 510 842 582 842 q 386 808 440 842 q 302 697 332 775 q 272 483 272 619 q 300 283 272 358 q 380 172 328 207 q 504 136 432 136 m 722 1226 l 722 1092 l 306 1092 l 306 1226 l 722 1226 z "},"Ǫ":{"ha":1017,"x_min":58,"x_max":961,"o":"m 489 -17 q 260 40 357 -17 q 111 206 164 96 q 58 476 58 315 q 92 703 58 606 q 186 865 125 800 q 331 962 247 929 q 518 994 415 994 q 701 963 619 994 q 840 869 782 931 q 929 717 897 808 q 961 507 961 626 q 902 227 961 344 q 738 47 843 110 q 489 -17 632 -17 m 504 136 q 628 170 574 136 q 715 284 682 204 q 747 499 747 364 q 717 699 747 624 q 635 808 688 775 q 510 842 582 842 q 386 808 440 842 q 302 697 332 775 q 272 483 272 619 q 300 283 272 358 q 380 172 328 207 q 504 136 432 136 m 524 -311 q 397 -274 446 -311 q 347 -172 347 -237 q 376 -80 347 -128 q 461 8 404 -32 q 606 72 518 49 l 624 0 q 524 -56 560 -21 q 488 -125 488 -92 q 514 -170 488 -154 q 578 -186 540 -186 q 603 -185 590 -186 q 628 -181 615 -183 l 639 -292 q 579 -306 608 -301 q 524 -311 550 -311 z "},"Ø":{"ha":1021,"x_min":61,"x_max":964,"o":"m 813 1085 l 915 1024 l 807 851 l 778 815 l 340 121 l 329 94 l 201 -110 l 99 -47 l 226 154 l 246 178 l 694 886 l 703 910 l 813 1085 m 492 -17 q 263 40 360 -17 q 114 206 167 96 q 61 476 61 315 q 94 703 61 606 q 189 865 128 800 q 334 962 250 929 q 521 994 418 994 q 703 963 622 994 q 842 869 785 931 q 932 717 900 808 q 964 507 964 626 q 905 227 964 344 q 740 47 846 110 q 492 -17 635 -17 m 507 136 q 631 170 576 136 q 717 284 685 204 q 750 499 750 364 q 720 699 750 624 q 638 808 690 775 q 513 842 585 842 q 389 808 443 842 q 305 697 335 775 q 275 483 275 619 q 303 283 275 358 q 383 172 331 207 q 507 136 435 136 z "},"Ǿ":{"ha":1021,"x_min":61,"x_max":964,"o":"m 813 1085 l 915 1024 l 807 851 l 778 815 l 340 121 l 329 94 l 201 -110 l 99 -47 l 226 154 l 246 178 l 694 886 l 703 910 l 813 1085 m 492 -17 q 263 40 360 -17 q 114 206 167 96 q 61 476 61 315 q 94 703 61 606 q 189 865 128 800 q 334 962 250 929 q 521 994 418 994 q 703 963 622 994 q 842 869 785 931 q 932 717 900 808 q 964 507 964 626 q 905 227 964 344 q 740 47 846 110 q 492 -17 635 -17 m 507 136 q 631 170 576 136 q 717 284 685 204 q 750 499 750 364 q 720 699 750 624 q 638 808 690 775 q 513 842 585 842 q 389 808 443 842 q 305 697 335 775 q 275 483 275 619 q 303 283 275 358 q 383 172 331 207 q 507 136 435 136 m 383 1046 l 328 1151 l 647 1329 l 722 1182 l 383 1046 z "},"Õ":{"ha":1017,"x_min":58,"x_max":961,"o":"m 489 -17 q 260 40 357 -17 q 111 206 164 96 q 58 476 58 315 q 92 703 58 606 q 186 865 125 800 q 331 962 247 929 q 518 994 415 994 q 701 963 619 994 q 840 869 782 931 q 929 717 897 808 q 961 507 961 626 q 902 227 961 344 q 738 47 843 110 q 489 -17 632 -17 m 504 136 q 628 170 574 136 q 715 284 682 204 q 747 499 747 364 q 717 699 747 624 q 635 808 688 775 q 510 842 582 842 q 386 808 440 842 q 302 697 332 775 q 272 483 272 619 q 300 283 272 358 q 380 172 328 207 q 504 136 432 136 m 333 1078 l 253 1114 q 316 1235 279 1199 q 403 1272 353 1272 q 476 1258 440 1272 q 547 1228 513 1243 q 607 1213 581 1213 q 651 1228 632 1213 q 692 1276 671 1243 l 774 1240 q 706 1118 746 1156 q 614 1081 667 1081 q 543 1096 579 1081 q 474 1126 507 1111 q 413 1140 440 1140 q 372 1125 390 1140 q 333 1078 354 1110 z "},"Ȭ":{"ha":1017,"x_min":58,"x_max":961,"o":"m 489 -17 q 260 40 357 -17 q 111 206 164 96 q 58 476 58 315 q 92 703 58 606 q 186 865 125 800 q 331 962 247 929 q 518 994 415 994 q 701 963 619 994 q 840 869 782 931 q 929 717 897 808 q 961 507 961 626 q 902 227 961 344 q 738 47 843 110 q 489 -17 632 -17 m 504 136 q 628 170 574 136 q 715 284 682 204 q 747 499 747 364 q 717 699 747 624 q 635 808 688 775 q 510 842 582 842 q 386 808 440 842 q 302 697 332 775 q 272 483 272 619 q 300 283 272 358 q 380 172 328 207 q 504 136 432 136 m 333 1029 l 253 1065 q 316 1187 279 1150 q 403 1224 353 1224 q 476 1209 440 1224 q 547 1179 513 1194 q 607 1164 581 1164 q 651 1179 632 1164 q 692 1228 671 1194 l 774 1192 q 706 1069 746 1107 q 614 1032 667 1032 q 543 1047 579 1032 q 474 1077 507 1063 q 413 1092 440 1092 q 372 1076 390 1092 q 333 1029 354 1061 m 714 1413 l 714 1278 l 297 1278 l 297 1413 l 714 1413 z "},"Ŕ":{"ha":926,"x_min":50,"x_max":907,"o":"m 50 0 l 50 100 l 178 136 l 153 97 l 153 875 l 188 833 l 50 871 l 50 971 l 360 978 l 494 978 q 746 908 661 978 q 831 708 831 839 q 759 515 831 592 q 535 422 688 439 l 536 444 q 625 428 590 443 q 683 385 660 413 q 725 321 706 358 l 836 107 l 779 142 l 907 100 l 907 0 l 679 0 l 554 268 q 511 349 529 321 q 467 388 493 378 q 390 397 440 399 l 318 397 l 351 425 l 351 97 l 325 138 l 465 100 l 465 0 l 50 0 m 351 486 l 318 535 l 433 535 q 579 575 531 535 q 628 694 628 615 q 589 799 628 761 q 469 836 550 836 l 318 836 l 351 867 l 351 486 m 308 1046 l 253 1151 l 572 1329 l 647 1182 l 308 1046 z "},"Ř":{"ha":926,"x_min":50,"x_max":907,"o":"m 50 0 l 50 100 l 178 136 l 153 97 l 153 875 l 188 833 l 50 871 l 50 971 l 360 978 l 494 978 q 746 908 661 978 q 831 708 831 839 q 759 515 831 592 q 535 422 688 439 l 536 444 q 625 428 590 443 q 683 385 660 413 q 725 321 706 358 l 836 107 l 779 142 l 907 100 l 907 0 l 679 0 l 554 268 q 511 349 529 321 q 467 388 493 378 q 390 397 440 399 l 318 397 l 351 425 l 351 97 l 325 138 l 465 100 l 465 0 l 50 0 m 351 486 l 318 535 l 433 535 q 579 575 531 535 q 628 694 628 615 q 589 799 628 761 q 469 836 550 836 l 318 836 l 351 867 l 351 486 m 640 1321 l 704 1244 l 503 1063 l 392 1053 l 175 1244 l 240 1321 l 513 1154 l 378 1156 l 640 1321 z "},"Ŗ":{"ha":926,"x_min":50,"x_max":907,"o":"m 50 0 l 50 100 l 178 136 l 153 97 l 153 875 l 188 833 l 50 871 l 50 971 l 360 978 l 494 978 q 746 908 661 978 q 831 708 831 839 q 759 515 831 592 q 535 422 688 439 l 536 444 q 625 428 590 443 q 683 385 660 413 q 725 321 706 358 l 836 107 l 779 142 l 907 100 l 907 0 l 679 0 l 554 268 q 511 349 529 321 q 467 388 493 378 q 390 397 440 399 l 318 397 l 351 425 l 351 97 l 325 138 l 465 100 l 465 0 l 50 0 m 351 486 l 318 535 l 433 535 q 579 575 531 535 q 628 694 628 615 q 589 799 628 761 q 469 836 550 836 l 318 836 l 351 867 l 351 486 m 426 -446 l 363 -401 q 404 -326 393 -351 q 415 -283 415 -300 q 406 -253 415 -267 q 388 -221 397 -239 q 378 -175 378 -203 q 408 -103 378 -128 q 476 -79 439 -79 q 545 -105 514 -79 q 576 -181 576 -131 q 543 -296 576 -232 q 426 -446 510 -360 z "},"Ȑ":{"ha":926,"x_min":50,"x_max":907,"o":"m 50 0 l 50 100 l 178 136 l 153 97 l 153 875 l 188 833 l 50 871 l 50 971 l 360 978 l 494 978 q 746 908 661 978 q 831 708 831 839 q 759 515 831 592 q 535 422 688 439 l 536 444 q 625 428 590 443 q 683 385 660 413 q 725 321 706 358 l 836 107 l 779 142 l 907 100 l 907 0 l 679 0 l 554 268 q 511 349 529 321 q 467 388 493 378 q 390 397 440 399 l 318 397 l 351 425 l 351 97 l 325 138 l 465 100 l 465 0 l 50 0 m 351 486 l 318 535 l 433 535 q 579 575 531 535 q 628 694 628 615 q 589 799 628 761 q 469 836 550 836 l 318 836 l 351 867 l 351 486 m 310 1031 l 410 1081 l 290 1354 l 158 1285 l 310 1031 m 539 1031 l 642 1078 l 531 1354 l 396 1290 l 539 1031 z "},"Ȓ":{"ha":926,"x_min":50,"x_max":907,"o":"m 50 0 l 50 100 l 178 136 l 153 97 l 153 875 l 188 833 l 50 871 l 50 971 l 360 978 l 494 978 q 746 908 661 978 q 831 708 831 839 q 759 515 831 592 q 535 422 688 439 l 536 444 q 625 428 590 443 q 683 385 660 413 q 725 321 706 358 l 836 107 l 779 142 l 907 100 l 907 0 l 679 0 l 554 268 q 511 349 529 321 q 467 388 493 378 q 390 397 440 399 l 318 397 l 351 425 l 351 97 l 325 138 l 465 100 l 465 0 l 50 0 m 351 486 l 318 535 l 433 535 q 579 575 531 535 q 628 694 628 615 q 589 799 628 761 q 469 836 550 836 l 318 836 l 351 867 l 351 486 m 440 1288 q 555 1258 506 1288 q 633 1179 604 1229 q 664 1063 663 1129 l 550 1050 q 513 1126 544 1099 q 435 1154 482 1154 q 362 1128 389 1154 q 331 1058 335 1103 l 218 1053 q 244 1175 217 1122 q 324 1258 272 1228 q 440 1288 375 1288 z "},"Ś":{"ha":835,"x_min":78,"x_max":774,"o":"m 271 732 q 299 665 271 692 q 371 620 326 639 q 469 584 415 601 q 576 545 524 567 q 674 491 629 524 q 747 408 719 458 q 774 283 774 358 q 720 114 774 181 q 578 15 667 47 q 381 -18 489 -18 q 230 -3 307 -18 q 78 40 153 11 l 85 304 l 200 304 l 229 136 l 211 169 q 299 140 253 150 q 390 129 346 129 q 485 143 442 129 q 553 186 528 157 q 578 258 578 215 q 551 329 578 301 q 480 376 525 357 q 382 410 435 394 q 276 447 329 426 q 177 500 222 468 q 106 581 132 532 q 79 706 79 631 q 126 867 79 804 q 254 963 174 931 q 436 994 335 994 q 586 979 508 994 q 742 933 664 964 l 726 690 l 608 690 l 579 842 l 601 819 q 527 841 567 833 q 447 849 488 849 q 360 837 400 849 q 295 799 319 825 q 271 732 271 774 m 300 1046 l 244 1151 l 564 1329 l 639 1182 l 300 1046 z "},"Š":{"ha":835,"x_min":78,"x_max":774,"o":"m 271 732 q 299 665 271 692 q 371 620 326 639 q 469 584 415 601 q 576 545 524 567 q 674 491 629 524 q 747 408 719 458 q 774 283 774 358 q 720 114 774 181 q 578 15 667 47 q 381 -18 489 -18 q 230 -3 307 -18 q 78 40 153 11 l 85 304 l 200 304 l 229 136 l 211 169 q 299 140 253 150 q 390 129 346 129 q 485 143 442 129 q 553 186 528 157 q 578 258 578 215 q 551 329 578 301 q 480 376 525 357 q 382 410 435 394 q 276 447 329 426 q 177 500 222 468 q 106 581 132 532 q 79 706 79 631 q 126 867 79 804 q 254 963 174 931 q 436 994 335 994 q 586 979 508 994 q 742 933 664 964 l 726 690 l 608 690 l 579 842 l 601 819 q 527 841 567 833 q 447 849 488 849 q 360 837 400 849 q 295 799 319 825 q 271 732 271 774 m 632 1321 l 696 1244 l 494 1063 l 383 1053 l 167 1244 l 232 1321 l 504 1154 l 369 1156 l 632 1321 z "},"Ş":{"ha":835,"x_min":78,"x_max":774,"o":"m 271 732 q 299 665 271 692 q 371 620 326 639 q 469 584 415 601 q 576 545 524 567 q 674 491 629 524 q 747 408 719 458 q 774 283 774 358 q 720 114 774 181 q 578 15 667 47 q 381 -18 489 -18 q 230 -3 307 -18 q 78 40 153 11 l 85 304 l 200 304 l 229 136 l 211 169 q 299 140 253 150 q 390 129 346 129 q 485 143 442 129 q 553 186 528 157 q 578 258 578 215 q 551 329 578 301 q 480 376 525 357 q 382 410 435 394 q 276 447 329 426 q 177 500 222 468 q 106 581 132 532 q 79 706 79 631 q 126 867 79 804 q 254 963 174 931 q 436 994 335 994 q 586 979 508 994 q 742 933 664 964 l 726 690 l 608 690 l 579 842 l 601 819 q 527 841 567 833 q 447 849 488 849 q 360 837 400 849 q 295 799 319 825 q 271 732 271 774 m 436 -353 q 359 -344 399 -353 q 285 -318 319 -336 l 321 -225 q 378 -242 347 -235 q 435 -249 410 -249 q 483 -237 464 -249 q 501 -206 501 -226 q 482 -175 501 -187 q 430 -156 463 -162 q 358 -149 397 -150 l 367 0 l 482 0 l 482 -68 q 601 -112 563 -76 q 640 -199 640 -147 q 612 -284 640 -250 q 537 -335 583 -318 q 436 -353 490 -353 z "},"Ŝ":{"ha":835,"x_min":78,"x_max":774,"o":"m 271 732 q 299 665 271 692 q 371 620 326 639 q 469 584 415 601 q 576 545 524 567 q 674 491 629 524 q 747 408 719 458 q 774 283 774 358 q 720 114 774 181 q 578 15 667 47 q 381 -18 489 -18 q 230 -3 307 -18 q 78 40 153 11 l 85 304 l 200 304 l 229 136 l 211 169 q 299 140 253 150 q 390 129 346 129 q 485 143 442 129 q 553 186 528 157 q 578 258 578 215 q 551 329 578 301 q 480 376 525 357 q 382 410 435 394 q 276 447 329 426 q 177 500 222 468 q 106 581 132 532 q 79 706 79 631 q 126 867 79 804 q 254 963 174 931 q 436 994 335 994 q 586 979 508 994 q 742 933 664 964 l 726 690 l 608 690 l 579 842 l 601 819 q 527 841 567 833 q 447 849 488 849 q 360 837 400 849 q 295 799 319 825 q 271 732 271 774 m 232 1040 l 168 1117 l 369 1297 l 481 1307 l 696 1117 l 631 1040 l 360 1206 l 494 1204 l 232 1040 z "},"Ș":{"ha":835,"x_min":78,"x_max":774,"o":"m 271 732 q 299 665 271 692 q 371 620 326 639 q 469 584 415 601 q 576 545 524 567 q 674 491 629 524 q 747 408 719 458 q 774 283 774 358 q 720 114 774 181 q 578 15 667 47 q 381 -18 489 -18 q 230 -3 307 -18 q 78 40 153 11 l 85 304 l 200 304 l 229 136 l 211 169 q 299 140 253 150 q 390 129 346 129 q 485 143 442 129 q 553 186 528 157 q 578 258 578 215 q 551 329 578 301 q 480 376 525 357 q 382 410 435 394 q 276 447 329 426 q 177 500 222 468 q 106 581 132 532 q 79 706 79 631 q 126 867 79 804 q 254 963 174 931 q 436 994 335 994 q 586 979 508 994 q 742 933 664 964 l 726 690 l 608 690 l 579 842 l 601 819 q 527 841 567 833 q 447 849 488 849 q 360 837 400 849 q 295 799 319 825 q 271 732 271 774 m 368 -446 l 304 -401 q 346 -326 335 -351 q 357 -283 357 -300 q 348 -253 357 -267 q 329 -221 339 -239 q 319 -175 319 -203 q 350 -103 319 -128 q 418 -79 381 -79 q 487 -105 456 -79 q 518 -181 518 -131 q 485 -296 518 -232 q 368 -446 451 -360 z "},"Ŧ":{"ha":850,"x_min":28,"x_max":822,"o":"m 144 411 l 144 542 l 706 542 l 706 411 l 144 411 m 207 0 l 207 100 l 361 139 l 325 89 l 325 865 l 365 835 l 139 835 l 183 874 l 146 697 l 28 697 l 28 978 l 822 978 l 822 697 l 704 697 l 669 865 l 711 835 l 485 835 l 525 865 l 525 89 l 490 139 l 643 100 l 643 0 l 207 0 z "},"Ť":{"ha":850,"x_min":28,"x_max":822,"o":"m 207 0 l 207 100 l 361 139 l 325 89 l 325 865 l 365 835 l 139 835 l 183 874 l 146 697 l 28 697 l 28 978 l 822 978 l 822 697 l 704 697 l 669 865 l 711 835 l 485 835 l 525 865 l 525 89 l 490 139 l 643 100 l 643 0 l 207 0 m 625 1321 l 689 1244 l 488 1063 l 376 1053 l 160 1244 l 225 1321 l 497 1154 l 363 1156 l 625 1321 z "},"Ţ":{"ha":850,"x_min":28,"x_max":822,"o":"m 207 0 l 207 100 l 361 139 l 325 89 l 325 865 l 365 835 l 139 835 l 183 874 l 146 697 l 28 697 l 28 978 l 822 978 l 822 697 l 704 697 l 669 865 l 711 835 l 485 835 l 525 865 l 525 89 l 490 139 l 643 100 l 643 0 l 207 0 m 436 -353 q 359 -344 399 -353 q 285 -318 319 -336 l 321 -225 q 378 -242 347 -235 q 435 -249 410 -249 q 483 -237 464 -249 q 501 -206 501 -226 q 482 -175 501 -187 q 430 -156 463 -162 q 358 -149 397 -150 l 367 0 l 482 0 l 482 -68 q 601 -112 563 -76 q 640 -199 640 -147 q 612 -284 640 -250 q 537 -335 583 -318 q 436 -353 490 -353 z "},"Ț":{"ha":850,"x_min":28,"x_max":822,"o":"m 207 0 l 207 100 l 361 139 l 325 89 l 325 865 l 365 835 l 139 835 l 183 874 l 146 697 l 28 697 l 28 978 l 822 978 l 822 697 l 704 697 l 669 865 l 711 835 l 485 835 l 525 865 l 525 89 l 490 139 l 643 100 l 643 0 l 207 0 m 368 -446 l 304 -401 q 346 -326 335 -351 q 357 -283 357 -300 q 348 -253 357 -267 q 329 -221 339 -239 q 319 -175 319 -203 q 350 -103 319 -128 q 418 -79 381 -79 q 487 -105 456 -79 q 518 -181 518 -131 q 485 -296 518 -232 q 368 -446 451 -360 z "},"Ú":{"ha":1031,"x_min":25,"x_max":1006,"o":"m 603 971 l 1006 978 l 1006 878 l 882 836 l 904 886 l 904 382 q 891 251 904 311 q 849 141 878 190 q 774 56 819 92 q 662 2 728 21 q 510 -17 596 -17 q 322 12 394 -17 q 210 85 250 40 q 152 183 169 131 q 131 283 135 235 q 128 364 128 331 l 128 885 l 150 838 l 25 871 l 25 971 l 428 978 l 428 878 l 307 836 l 326 885 l 326 364 q 330 294 326 328 q 343 231 333 260 q 373 181 353 203 q 427 148 393 160 q 513 136 461 136 q 600 149 565 136 q 656 184 635 161 q 688 238 678 207 q 702 305 699 268 q 706 382 706 342 l 706 886 l 724 840 l 603 871 l 603 971 m 385 1046 l 329 1151 l 649 1329 l 724 1182 l 385 1046 z "},"Ŭ":{"ha":1031,"x_min":25,"x_max":1006,"o":"m 603 971 l 1006 978 l 1006 878 l 882 836 l 904 886 l 904 382 q 891 251 904 311 q 849 141 878 190 q 774 56 819 92 q 662 2 728 21 q 510 -17 596 -17 q 322 12 394 -17 q 210 85 250 40 q 152 183 169 131 q 131 283 135 235 q 128 364 128 331 l 128 885 l 150 838 l 25 871 l 25 971 l 428 978 l 428 878 l 307 836 l 326 885 l 326 364 q 330 294 326 328 q 343 231 333 260 q 373 181 353 203 q 427 148 393 160 q 513 136 461 136 q 600 149 565 136 q 656 184 635 161 q 688 238 678 207 q 702 305 699 268 q 706 382 706 342 l 706 886 l 724 840 l 603 871 l 603 971 m 517 1064 q 410 1088 461 1064 q 327 1160 360 1113 q 293 1279 294 1208 l 406 1292 q 449 1213 413 1239 q 524 1188 485 1188 q 597 1211 564 1188 q 633 1283 629 1235 l 743 1288 q 713 1165 746 1215 q 626 1090 679 1115 q 517 1064 574 1064 z "},"Û":{"ha":1031,"x_min":25,"x_max":1006,"o":"m 603 971 l 1006 978 l 1006 878 l 882 836 l 904 886 l 904 382 q 891 251 904 311 q 849 141 878 190 q 774 56 819 92 q 662 2 728 21 q 510 -17 596 -17 q 322 12 394 -17 q 210 85 250 40 q 152 183 169 131 q 131 283 135 235 q 128 364 128 331 l 128 885 l 150 838 l 25 871 l 25 971 l 428 978 l 428 878 l 307 836 l 326 885 l 326 364 q 330 294 326 328 q 343 231 333 260 q 373 181 353 203 q 427 148 393 160 q 513 136 461 136 q 600 149 565 136 q 656 184 635 161 q 688 238 678 207 q 702 305 699 268 q 706 382 706 342 l 706 886 l 724 840 l 603 871 l 603 971 m 318 1040 l 254 1117 l 456 1297 l 567 1307 l 782 1117 l 717 1040 l 446 1206 l 581 1204 l 318 1040 z "},"Ȕ":{"ha":1031,"x_min":25,"x_max":1006,"o":"m 603 971 l 1006 978 l 1006 878 l 882 836 l 904 886 l 904 382 q 891 251 904 311 q 849 141 878 190 q 774 56 819 92 q 662 2 728 21 q 510 -17 596 -17 q 322 12 394 -17 q 210 85 250 40 q 152 183 169 131 q 131 283 135 235 q 128 364 128 331 l 128 885 l 150 838 l 25 871 l 25 971 l 428 978 l 428 878 l 307 836 l 326 885 l 326 364 q 330 294 326 328 q 343 231 333 260 q 373 181 353 203 q 427 148 393 160 q 513 136 461 136 q 600 149 565 136 q 656 184 635 161 q 688 238 678 207 q 702 305 699 268 q 706 382 706 342 l 706 886 l 724 840 l 603 871 l 603 971 m 388 1031 l 488 1081 l 368 1354 l 236 1285 l 388 1031 m 617 1031 l 719 1078 l 608 1354 l 474 1290 l 617 1031 z "},"Ü":{"ha":1031,"x_min":25,"x_max":1006,"o":"m 603 971 l 1006 978 l 1006 878 l 882 836 l 904 886 l 904 382 q 891 251 904 311 q 849 141 878 190 q 774 56 819 92 q 662 2 728 21 q 510 -17 596 -17 q 322 12 394 -17 q 210 85 250 40 q 152 183 169 131 q 131 283 135 235 q 128 364 128 331 l 128 885 l 150 838 l 25 871 l 25 971 l 428 978 l 428 878 l 307 836 l 326 885 l 326 364 q 330 294 326 328 q 343 231 333 260 q 373 181 353 203 q 427 148 393 160 q 513 136 461 136 q 600 149 565 136 q 656 184 635 161 q 688 238 678 207 q 702 305 699 268 q 706 382 706 342 l 706 886 l 724 840 l 603 871 l 603 971 m 669 1058 q 599 1085 624 1058 q 574 1161 574 1113 q 601 1238 572 1210 q 669 1265 629 1265 q 742 1238 715 1265 q 768 1161 768 1210 q 740 1085 768 1113 q 669 1058 711 1058 m 364 1058 q 294 1085 319 1058 q 268 1161 269 1113 q 295 1238 267 1210 q 364 1265 324 1265 q 436 1238 410 1265 q 463 1161 463 1210 q 433 1085 463 1113 q 364 1058 404 1058 z "},"Ụ":{"ha":1031,"x_min":25,"x_max":1006,"o":"m 603 971 l 1006 978 l 1006 878 l 882 836 l 904 886 l 904 382 q 891 251 904 311 q 849 141 878 190 q 774 56 819 92 q 662 2 728 21 q 510 -17 596 -17 q 322 12 394 -17 q 210 85 250 40 q 152 183 169 131 q 131 283 135 235 q 128 364 128 331 l 128 885 l 150 838 l 25 871 l 25 971 l 428 978 l 428 878 l 307 836 l 326 885 l 326 364 q 330 294 326 328 q 343 231 333 260 q 373 181 353 203 q 427 148 393 160 q 513 136 461 136 q 600 149 565 136 q 656 184 635 161 q 688 238 678 207 q 702 305 699 268 q 706 382 706 342 l 706 886 l 724 840 l 603 871 l 603 971 m 511 -304 q 428 -275 460 -304 q 397 -192 397 -246 q 430 -105 397 -133 q 513 -76 463 -76 q 593 -105 561 -76 q 625 -190 625 -133 q 592 -276 625 -247 q 511 -304 560 -304 z "},"Ù":{"ha":1031,"x_min":25,"x_max":1006,"o":"m 603 971 l 1006 978 l 1006 878 l 882 836 l 904 886 l 904 382 q 891 251 904 311 q 849 141 878 190 q 774 56 819 92 q 662 2 728 21 q 510 -17 596 -17 q 322 12 394 -17 q 210 85 250 40 q 152 183 169 131 q 131 283 135 235 q 128 364 128 331 l 128 885 l 150 838 l 25 871 l 25 971 l 428 978 l 428 878 l 307 836 l 326 885 l 326 364 q 330 294 326 328 q 343 231 333 260 q 373 181 353 203 q 427 148 393 160 q 513 136 461 136 q 600 149 565 136 q 656 184 635 161 q 688 238 678 207 q 702 305 699 268 q 706 382 706 342 l 706 886 l 724 840 l 603 871 l 603 971 m 667 1046 l 325 1182 l 401 1329 l 719 1151 l 667 1046 z "},"Ủ":{"ha":1031,"x_min":25,"x_max":1006,"o":"m 603 971 l 1006 978 l 1006 878 l 882 836 l 904 886 l 904 382 q 891 251 904 311 q 849 141 878 190 q 774 56 819 92 q 662 2 728 21 q 510 -17 596 -17 q 322 12 394 -17 q 210 85 250 40 q 152 183 169 131 q 131 283 135 235 q 128 364 128 331 l 128 885 l 150 838 l 25 871 l 25 971 l 428 978 l 428 878 l 307 836 l 326 885 l 326 364 q 330 294 326 328 q 343 231 333 260 q 373 181 353 203 q 427 148 393 160 q 513 136 461 136 q 600 149 565 136 q 656 184 635 161 q 688 238 678 207 q 702 305 699 268 q 706 382 706 342 l 706 886 l 724 840 l 603 871 l 603 971 m 447 1038 l 447 1143 q 525 1161 499 1146 q 551 1204 551 1176 q 533 1240 551 1229 q 488 1250 515 1250 q 446 1246 468 1250 q 401 1235 424 1242 l 378 1324 q 449 1342 414 1336 q 519 1349 485 1349 q 642 1317 590 1349 q 693 1214 693 1285 q 664 1133 693 1167 q 571 1086 635 1099 l 571 1038 l 447 1038 z "},"Ư":{"ha":1044,"x_min":25,"x_max":1056,"o":"m 818 874 l 904 914 l 904 382 q 860 158 904 246 q 728 26 817 69 q 506 -17 640 -17 q 219 75 311 -17 q 128 364 128 167 l 128 885 l 150 838 l 25 871 l 25 971 l 428 978 l 428 878 l 307 836 l 326 885 l 326 364 q 365 192 326 247 q 511 136 403 136 q 631 163 589 136 q 689 244 672 190 q 706 382 706 299 l 706 886 l 724 840 l 603 871 l 603 971 l 808 976 q 878 997 857 978 q 900 1050 900 1015 q 876 1151 900 1089 l 1018 1183 q 1047 1110 1038 1144 q 1056 1044 1056 1076 q 994 918 1056 967 q 818 874 933 869 z "},"Ứ":{"ha":1044,"x_min":25,"x_max":1056,"o":"m 818 874 l 904 914 l 904 382 q 860 158 904 246 q 728 26 817 69 q 506 -17 640 -17 q 219 75 311 -17 q 128 364 128 167 l 128 885 l 150 838 l 25 871 l 25 971 l 428 978 l 428 878 l 307 836 l 326 885 l 326 364 q 365 192 326 247 q 511 136 403 136 q 631 163 589 136 q 689 244 672 190 q 706 382 706 299 l 706 886 l 724 840 l 603 871 l 603 971 l 808 976 q 878 997 857 978 q 900 1050 900 1015 q 876 1151 900 1089 l 1018 1183 q 1047 1110 1038 1144 q 1056 1044 1056 1076 q 994 918 1056 967 q 818 874 933 869 m 385 1046 l 329 1151 l 649 1329 l 724 1182 l 385 1046 z "},"Ự":{"ha":1044,"x_min":25,"x_max":1056,"o":"m 818 874 l 904 914 l 904 382 q 860 158 904 246 q 728 26 817 69 q 506 -17 640 -17 q 219 75 311 -17 q 128 364 128 167 l 128 885 l 150 838 l 25 871 l 25 971 l 428 978 l 428 878 l 307 836 l 326 885 l 326 364 q 365 192 326 247 q 511 136 403 136 q 631 163 589 136 q 689 244 672 190 q 706 382 706 299 l 706 886 l 724 840 l 603 871 l 603 971 l 808 976 q 878 997 857 978 q 900 1050 900 1015 q 876 1151 900 1089 l 1018 1183 q 1047 1110 1038 1144 q 1056 1044 1056 1076 q 994 918 1056 967 q 818 874 933 869 m 511 -304 q 428 -275 460 -304 q 397 -192 397 -246 q 430 -105 397 -133 q 513 -76 463 -76 q 593 -105 561 -76 q 625 -190 625 -133 q 592 -276 625 -247 q 511 -304 560 -304 z "},"Ừ":{"ha":1044,"x_min":25,"x_max":1056,"o":"m 818 874 l 904 914 l 904 382 q 860 158 904 246 q 728 26 817 69 q 506 -17 640 -17 q 219 75 311 -17 q 128 364 128 167 l 128 885 l 150 838 l 25 871 l 25 971 l 428 978 l 428 878 l 307 836 l 326 885 l 326 364 q 365 192 326 247 q 511 136 403 136 q 631 163 589 136 q 689 244 672 190 q 706 382 706 299 l 706 886 l 724 840 l 603 871 l 603 971 l 808 976 q 878 997 857 978 q 900 1050 900 1015 q 876 1151 900 1089 l 1018 1183 q 1047 1110 1038 1144 q 1056 1044 1056 1076 q 994 918 1056 967 q 818 874 933 869 m 667 1046 l 325 1182 l 401 1329 l 719 1151 l 667 1046 z "},"Ử":{"ha":1044,"x_min":25,"x_max":1056,"o":"m 818 874 l 904 914 l 904 382 q 860 158 904 246 q 728 26 817 69 q 506 -17 640 -17 q 219 75 311 -17 q 128 364 128 167 l 128 885 l 150 838 l 25 871 l 25 971 l 428 978 l 428 878 l 307 836 l 326 885 l 326 364 q 365 192 326 247 q 511 136 403 136 q 631 163 589 136 q 689 244 672 190 q 706 382 706 299 l 706 886 l 724 840 l 603 871 l 603 971 l 808 976 q 878 997 857 978 q 900 1050 900 1015 q 876 1151 900 1089 l 1018 1183 q 1047 1110 1038 1144 q 1056 1044 1056 1076 q 994 918 1056 967 q 818 874 933 869 m 447 1038 l 447 1143 q 525 1161 499 1146 q 551 1204 551 1176 q 533 1240 551 1229 q 488 1250 515 1250 q 446 1246 468 1250 q 401 1235 424 1242 l 378 1324 q 449 1342 414 1336 q 519 1349 485 1349 q 642 1317 590 1349 q 693 1214 693 1285 q 664 1133 693 1167 q 571 1086 635 1099 l 571 1038 l 447 1038 z "},"Ữ":{"ha":1044,"x_min":25,"x_max":1056,"o":"m 818 874 l 904 914 l 904 382 q 860 158 904 246 q 728 26 817 69 q 506 -17 640 -17 q 219 75 311 -17 q 128 364 128 167 l 128 885 l 150 838 l 25 871 l 25 971 l 428 978 l 428 878 l 307 836 l 326 885 l 326 364 q 365 192 326 247 q 511 136 403 136 q 631 163 589 136 q 689 244 672 190 q 706 382 706 299 l 706 886 l 724 840 l 603 871 l 603 971 l 808 976 q 878 997 857 978 q 900 1050 900 1015 q 876 1151 900 1089 l 1018 1183 q 1047 1110 1038 1144 q 1056 1044 1056 1076 q 994 918 1056 967 q 818 874 933 869 m 338 1078 l 257 1114 q 320 1235 283 1199 q 407 1272 357 1272 q 481 1258 444 1272 q 551 1228 517 1243 q 611 1213 585 1213 q 656 1228 636 1213 q 696 1276 675 1243 l 778 1240 q 710 1118 750 1156 q 618 1081 671 1081 q 547 1096 583 1081 q 478 1126 511 1111 q 417 1140 444 1140 q 376 1125 394 1140 q 338 1078 358 1110 z "},"Ű":{"ha":1031,"x_min":25,"x_max":1006,"o":"m 603 971 l 1006 978 l 1006 878 l 882 836 l 904 886 l 904 382 q 891 251 904 311 q 849 141 878 190 q 774 56 819 92 q 662 2 728 21 q 510 -17 596 -17 q 322 12 394 -17 q 210 85 250 40 q 152 183 169 131 q 131 283 135 235 q 128 364 128 331 l 128 885 l 150 838 l 25 871 l 25 971 l 428 978 l 428 878 l 307 836 l 326 885 l 326 364 q 330 294 326 328 q 343 231 333 260 q 373 181 353 203 q 427 148 393 160 q 513 136 461 136 q 600 149 565 136 q 656 184 635 161 q 688 238 678 207 q 702 305 699 268 q 706 382 706 342 l 706 886 l 724 840 l 603 871 l 603 971 m 654 1032 l 554 1082 l 674 1356 l 806 1286 l 654 1032 m 425 1032 l 324 1079 l 435 1356 l 568 1290 l 425 1032 z "},"Ȗ":{"ha":1031,"x_min":25,"x_max":1006,"o":"m 603 971 l 1006 978 l 1006 878 l 882 836 l 904 886 l 904 382 q 891 251 904 311 q 849 141 878 190 q 774 56 819 92 q 662 2 728 21 q 510 -17 596 -17 q 322 12 394 -17 q 210 85 250 40 q 152 183 169 131 q 131 283 135 235 q 128 364 128 331 l 128 885 l 150 838 l 25 871 l 25 971 l 428 978 l 428 878 l 307 836 l 326 885 l 326 364 q 330 294 326 328 q 343 231 333 260 q 373 181 353 203 q 427 148 393 160 q 513 136 461 136 q 600 149 565 136 q 656 184 635 161 q 688 238 678 207 q 702 305 699 268 q 706 382 706 342 l 706 886 l 724 840 l 603 871 l 603 971 m 518 1288 q 633 1258 583 1288 q 711 1179 682 1229 q 742 1063 740 1129 l 628 1050 q 591 1126 622 1099 q 513 1154 560 1154 q 440 1128 467 1154 q 408 1058 413 1103 l 296 1053 q 322 1175 294 1122 q 401 1258 350 1228 q 518 1288 453 1288 z "},"Ū":{"ha":1031,"x_min":25,"x_max":1006,"o":"m 603 971 l 1006 978 l 1006 878 l 882 836 l 904 886 l 904 382 q 891 251 904 311 q 849 141 878 190 q 774 56 819 92 q 662 2 728 21 q 510 -17 596 -17 q 322 12 394 -17 q 210 85 250 40 q 152 183 169 131 q 131 283 135 235 q 128 364 128 331 l 128 885 l 150 838 l 25 871 l 25 971 l 428 978 l 428 878 l 307 836 l 326 885 l 326 364 q 330 294 326 328 q 343 231 333 260 q 373 181 353 203 q 427 148 393 160 q 513 136 461 136 q 600 149 565 136 q 656 184 635 161 q 688 238 678 207 q 702 305 699 268 q 706 382 706 342 l 706 886 l 724 840 l 603 871 l 603 971 m 726 1226 l 726 1092 l 310 1092 l 310 1226 l 726 1226 z "},"Ų":{"ha":1031,"x_min":25,"x_max":1006,"o":"m 603 971 l 1006 978 l 1006 878 l 882 836 l 904 886 l 904 382 q 891 251 904 311 q 849 141 878 190 q 774 56 819 92 q 662 2 728 21 q 510 -17 596 -17 q 322 12 394 -17 q 210 85 250 40 q 152 183 169 131 q 131 283 135 235 q 128 364 128 331 l 128 885 l 150 838 l 25 871 l 25 971 l 428 978 l 428 878 l 307 836 l 326 885 l 326 364 q 330 294 326 328 q 343 231 333 260 q 373 181 353 203 q 427 148 393 160 q 513 136 461 136 q 600 149 565 136 q 656 184 635 161 q 688 238 678 207 q 702 305 699 268 q 706 382 706 342 l 706 886 l 724 840 l 603 871 l 603 971 m 553 -311 q 426 -274 475 -311 q 376 -172 376 -237 q 405 -80 376 -128 q 490 8 433 -32 q 635 72 547 49 l 653 0 q 553 -56 589 -21 q 517 -125 517 -92 q 543 -170 517 -154 q 607 -186 569 -186 q 632 -185 619 -186 q 657 -181 644 -183 l 668 -292 q 608 -306 638 -301 q 553 -311 579 -311 z "},"Ů":{"ha":1031,"x_min":25,"x_max":1006,"o":"m 603 971 l 1006 978 l 1006 878 l 882 836 l 904 886 l 904 382 q 891 251 904 311 q 849 141 878 190 q 774 56 819 92 q 662 2 728 21 q 510 -17 596 -17 q 322 12 394 -17 q 210 85 250 40 q 152 183 169 131 q 131 283 135 235 q 128 364 128 331 l 128 885 l 150 838 l 25 871 l 25 971 l 428 978 l 428 878 l 307 836 l 326 885 l 326 364 q 330 294 326 328 q 343 231 333 260 q 373 181 353 203 q 427 148 393 160 q 513 136 461 136 q 600 149 565 136 q 656 184 635 161 q 688 238 678 207 q 702 305 699 268 q 706 382 706 342 l 706 886 l 724 840 l 603 871 l 603 971 m 515 1015 q 416 1038 457 1015 q 353 1098 375 1060 q 331 1183 331 1136 q 353 1270 331 1232 q 417 1331 375 1308 q 521 1354 460 1354 q 620 1332 579 1354 q 683 1272 661 1310 q 704 1186 704 1233 q 682 1101 704 1140 q 618 1038 660 1061 q 515 1015 576 1015 m 517 1106 q 570 1128 553 1106 q 588 1186 588 1150 q 570 1242 588 1221 q 518 1264 553 1264 q 465 1242 483 1264 q 447 1183 447 1219 q 464 1127 447 1149 q 517 1106 481 1106 z "},"Ũ":{"ha":1031,"x_min":25,"x_max":1006,"o":"m 603 971 l 1006 978 l 1006 878 l 882 836 l 904 886 l 904 382 q 891 251 904 311 q 849 141 878 190 q 774 56 819 92 q 662 2 728 21 q 510 -17 596 -17 q 322 12 394 -17 q 210 85 250 40 q 152 183 169 131 q 131 283 135 235 q 128 364 128 331 l 128 885 l 150 838 l 25 871 l 25 971 l 428 978 l 428 878 l 307 836 l 326 885 l 326 364 q 330 294 326 328 q 343 231 333 260 q 373 181 353 203 q 427 148 393 160 q 513 136 461 136 q 600 149 565 136 q 656 184 635 161 q 688 238 678 207 q 702 305 699 268 q 706 382 706 342 l 706 886 l 724 840 l 603 871 l 603 971 m 338 1078 l 257 1114 q 320 1235 283 1199 q 407 1272 357 1272 q 481 1258 444 1272 q 551 1228 517 1243 q 611 1213 585 1213 q 656 1228 636 1213 q 696 1276 675 1243 l 778 1240 q 710 1118 750 1156 q 618 1081 671 1081 q 547 1096 583 1081 q 478 1126 511 1111 q 417 1140 444 1140 q 376 1125 394 1140 q 338 1078 358 1110 z "},"Ẃ":{"ha":1418,"x_min":6,"x_max":1414,"o":"m 1049 971 l 1414 978 l 1414 878 l 1288 842 l 1333 893 l 1082 -1 l 894 -1 l 686 738 l 722 738 l 506 -1 l 319 -1 l 89 876 l 108 844 l 6 871 l 6 971 l 389 978 l 389 878 l 268 839 l 292 876 l 449 178 l 408 179 l 626 972 l 810 978 l 1021 182 l 981 181 l 1158 876 l 1175 840 l 1049 871 l 1049 971 m 590 1046 l 535 1151 l 854 1329 l 929 1182 l 590 1046 z "},"Ŵ":{"ha":1418,"x_min":6,"x_max":1414,"o":"m 1049 971 l 1414 978 l 1414 878 l 1288 842 l 1333 893 l 1082 -1 l 894 -1 l 686 738 l 722 738 l 506 -1 l 319 -1 l 89 876 l 108 844 l 6 871 l 6 971 l 389 978 l 389 878 l 268 839 l 292 876 l 449 178 l 408 179 l 626 972 l 810 978 l 1021 182 l 981 181 l 1158 876 l 1175 840 l 1049 871 l 1049 971 m 522 1040 l 458 1117 l 660 1297 l 771 1307 l 986 1117 l 921 1040 l 650 1206 l 785 1204 l 522 1040 z "},"Ẅ":{"ha":1418,"x_min":6,"x_max":1414,"o":"m 1049 971 l 1414 978 l 1414 878 l 1288 842 l 1333 893 l 1082 -1 l 894 -1 l 686 738 l 722 738 l 506 -1 l 319 -1 l 89 876 l 108 844 l 6 871 l 6 971 l 389 978 l 389 878 l 268 839 l 292 876 l 449 178 l 408 179 l 626 972 l 810 978 l 1021 182 l 981 181 l 1158 876 l 1175 840 l 1049 871 l 1049 971 m 875 1058 q 804 1085 829 1058 q 779 1161 779 1113 q 806 1238 778 1210 q 875 1265 835 1265 q 947 1238 921 1265 q 974 1161 974 1210 q 945 1085 974 1113 q 875 1058 917 1058 m 569 1058 q 500 1085 525 1058 q 474 1161 475 1113 q 501 1238 472 1210 q 569 1265 529 1265 q 642 1238 615 1265 q 668 1161 668 1210 q 639 1085 668 1113 q 569 1058 610 1058 z "},"Ẁ":{"ha":1418,"x_min":6,"x_max":1414,"o":"m 1049 971 l 1414 978 l 1414 878 l 1288 842 l 1333 893 l 1082 -1 l 894 -1 l 686 738 l 722 738 l 506 -1 l 319 -1 l 89 876 l 108 844 l 6 871 l 6 971 l 389 978 l 389 878 l 268 839 l 292 876 l 449 178 l 408 179 l 626 972 l 810 978 l 1021 182 l 981 181 l 1158 876 l 1175 840 l 1049 871 l 1049 971 m 871 1046 l 529 1182 l 606 1329 l 924 1151 l 871 1046 z "},"Ý":{"ha":900,"x_min":3,"x_max":896,"o":"m 240 0 l 240 100 l 374 139 l 347 97 l 347 385 l 364 317 l 76 868 l 113 838 l 3 871 l 3 971 l 390 978 l 390 878 l 267 844 l 282 879 l 482 456 l 444 456 l 647 871 l 663 836 l 535 871 l 535 971 l 896 978 l 896 878 l 785 844 l 824 874 l 531 317 l 546 385 l 546 97 l 518 139 l 651 100 l 651 0 l 240 0 m 322 1046 l 267 1151 l 586 1329 l 661 1182 l 322 1046 z "},"Ŷ":{"ha":900,"x_min":3,"x_max":896,"o":"m 240 0 l 240 100 l 374 139 l 347 97 l 347 385 l 364 317 l 76 868 l 113 838 l 3 871 l 3 971 l 390 978 l 390 878 l 267 844 l 282 879 l 482 456 l 444 456 l 647 871 l 663 836 l 535 871 l 535 971 l 896 978 l 896 878 l 785 844 l 824 874 l 531 317 l 546 385 l 546 97 l 518 139 l 651 100 l 651 0 l 240 0 m 254 1040 l 190 1117 l 392 1297 l 503 1307 l 718 1117 l 653 1040 l 382 1206 l 517 1204 l 254 1040 z "},"Ÿ":{"ha":900,"x_min":3,"x_max":896,"o":"m 240 0 l 240 100 l 374 139 l 347 97 l 347 385 l 364 317 l 76 868 l 113 838 l 3 871 l 3 971 l 390 978 l 390 878 l 267 844 l 282 879 l 482 456 l 444 456 l 647 871 l 663 836 l 535 871 l 535 971 l 896 978 l 896 878 l 785 844 l 824 874 l 531 317 l 546 385 l 546 97 l 518 139 l 651 100 l 651 0 l 240 0 m 607 1058 q 536 1085 561 1058 q 511 1161 511 1113 q 538 1238 510 1210 q 607 1265 567 1265 q 679 1238 653 1265 q 706 1161 706 1210 q 677 1085 706 1113 q 607 1058 649 1058 m 301 1058 q 232 1085 257 1058 q 206 1161 207 1113 q 233 1238 204 1210 q 301 1265 261 1265 q 374 1238 347 1265 q 400 1161 400 1210 q 371 1085 400 1113 q 301 1058 342 1058 z "},"Ỵ":{"ha":900,"x_min":3,"x_max":896,"o":"m 240 0 l 240 100 l 374 139 l 347 97 l 347 385 l 364 317 l 76 868 l 113 838 l 3 871 l 3 971 l 390 978 l 390 878 l 267 844 l 282 879 l 482 456 l 444 456 l 647 871 l 663 836 l 535 871 l 535 971 l 896 978 l 896 878 l 785 844 l 824 874 l 531 317 l 546 385 l 546 97 l 518 139 l 651 100 l 651 0 l 240 0 m 449 -304 q 366 -275 397 -304 q 335 -192 335 -246 q 367 -105 335 -133 q 450 -76 400 -76 q 531 -105 499 -76 q 563 -190 563 -133 q 530 -276 563 -247 q 449 -304 497 -304 z "},"Ỳ":{"ha":900,"x_min":3,"x_max":896,"o":"m 240 0 l 240 100 l 374 139 l 347 97 l 347 385 l 364 317 l 76 868 l 113 838 l 3 871 l 3 971 l 390 978 l 390 878 l 267 844 l 282 879 l 482 456 l 444 456 l 647 871 l 663 836 l 535 871 l 535 971 l 896 978 l 896 878 l 785 844 l 824 874 l 531 317 l 546 385 l 546 97 l 518 139 l 651 100 l 651 0 l 240 0 m 603 1046 l 261 1182 l 338 1329 l 656 1151 l 603 1046 z "},"Ỷ":{"ha":900,"x_min":3,"x_max":896,"o":"m 240 0 l 240 100 l 374 139 l 347 97 l 347 385 l 364 317 l 76 868 l 113 838 l 3 871 l 3 971 l 390 978 l 390 878 l 267 844 l 282 879 l 482 456 l 444 456 l 647 871 l 663 836 l 535 871 l 535 971 l 896 978 l 896 878 l 785 844 l 824 874 l 531 317 l 546 385 l 546 97 l 518 139 l 651 100 l 651 0 l 240 0 m 385 1038 l 385 1143 q 463 1161 436 1146 q 489 1204 489 1176 q 471 1240 489 1229 q 425 1250 453 1250 q 383 1246 406 1250 q 339 1235 361 1242 l 315 1324 q 387 1342 351 1336 q 457 1349 422 1349 q 579 1317 528 1349 q 631 1214 631 1285 q 601 1133 631 1167 q 508 1086 572 1099 l 508 1038 l 385 1038 z "},"Ȳ":{"ha":900,"x_min":3,"x_max":896,"o":"m 240 0 l 240 100 l 374 139 l 347 97 l 347 385 l 364 317 l 76 868 l 113 838 l 3 871 l 3 971 l 390 978 l 390 878 l 267 844 l 282 879 l 482 456 l 444 456 l 647 871 l 663 836 l 535 871 l 535 971 l 896 978 l 896 878 l 785 844 l 824 874 l 531 317 l 546 385 l 546 97 l 518 139 l 651 100 l 651 0 l 240 0 m 664 1226 l 664 1092 l 247 1092 l 247 1226 l 664 1226 z "},"Ỹ":{"ha":900,"x_min":3,"x_max":896,"o":"m 240 0 l 240 100 l 374 139 l 347 97 l 347 385 l 364 317 l 76 868 l 113 838 l 3 871 l 3 971 l 390 978 l 390 878 l 267 844 l 282 879 l 482 456 l 444 456 l 647 871 l 663 836 l 535 871 l 535 971 l 896 978 l 896 878 l 785 844 l 824 874 l 531 317 l 546 385 l 546 97 l 518 139 l 651 100 l 651 0 l 240 0 m 275 1078 l 194 1114 q 258 1235 221 1199 q 344 1272 294 1272 q 418 1258 382 1272 q 488 1228 454 1243 q 549 1213 522 1213 q 593 1228 574 1213 q 633 1276 613 1243 l 715 1240 q 648 1118 688 1156 q 556 1081 608 1081 q 485 1096 521 1081 q 415 1126 449 1111 q 354 1140 382 1140 q 314 1125 332 1140 q 275 1078 296 1110 z "},"Ź":{"ha":865,"x_min":47,"x_max":807,"o":"m 47 0 l 47 132 l 585 856 l 606 832 l 183 832 l 229 854 l 197 697 l 79 697 l 79 978 l 801 978 l 801 846 l 265 115 l 258 146 l 701 146 l 660 117 l 688 281 l 807 281 l 806 0 l 47 0 m 301 1046 l 246 1151 l 565 1329 l 640 1182 l 301 1046 z "},"Ž":{"ha":865,"x_min":47,"x_max":807,"o":"m 47 0 l 47 132 l 585 856 l 606 832 l 183 832 l 229 854 l 197 697 l 79 697 l 79 978 l 801 978 l 801 846 l 265 115 l 258 146 l 701 146 l 660 117 l 688 281 l 807 281 l 806 0 l 47 0 m 635 1321 l 699 1244 l 497 1063 l 386 1053 l 169 1244 l 235 1321 l 507 1154 l 372 1156 l 635 1321 z "},"Ż":{"ha":865,"x_min":47,"x_max":807,"o":"m 47 0 l 47 132 l 585 856 l 606 832 l 183 832 l 229 854 l 197 697 l 79 697 l 79 978 l 801 978 l 801 846 l 265 115 l 258 146 l 701 146 l 660 117 l 688 281 l 807 281 l 806 0 l 47 0 m 433 1058 q 351 1088 382 1058 q 319 1171 319 1117 q 352 1258 319 1229 q 435 1286 385 1286 q 515 1258 483 1286 q 547 1172 547 1229 q 515 1087 547 1115 q 433 1058 482 1058 z "},"á":{"ha":779,"x_min":46,"x_max":763,"o":"m 669 99 l 643 138 l 763 100 l 763 1 l 519 -11 l 493 122 l 507 118 q 386 17 451 50 q 251 -17 321 -17 q 104 40 163 -17 q 46 204 46 97 q 80 330 46 283 q 179 397 114 376 q 338 418 244 418 l 489 418 l 475 403 l 475 494 q 444 588 475 560 q 353 615 413 615 q 290 610 324 615 q 218 593 257 604 l 238 614 l 219 501 l 99 501 l 88 704 q 260 745 182 732 q 404 758 339 758 q 601 703 533 758 q 669 531 669 647 l 669 99 m 242 224 q 266 148 242 172 q 328 124 290 124 q 404 145 363 124 q 483 204 446 167 l 475 171 l 475 329 l 489 315 l 369 315 q 269 293 297 315 q 242 224 242 271 m 290 842 l 222 936 l 511 1161 l 610 1028 l 290 842 z "},"ă":{"ha":779,"x_min":46,"x_max":763,"o":"m 669 99 l 643 138 l 763 100 l 763 1 l 519 -11 l 493 122 l 507 118 q 386 17 451 50 q 251 -17 321 -17 q 104 40 163 -17 q 46 204 46 97 q 80 330 46 283 q 179 397 114 376 q 338 418 244 418 l 489 418 l 475 403 l 475 494 q 444 588 475 560 q 353 615 413 615 q 290 610 324 615 q 218 593 257 604 l 238 614 l 219 501 l 99 501 l 88 704 q 260 745 182 732 q 404 758 339 758 q 601 703 533 758 q 669 531 669 647 l 669 99 m 242 224 q 266 148 242 172 q 328 124 290 124 q 404 145 363 124 q 483 204 446 167 l 475 171 l 475 329 l 489 315 l 369 315 q 269 293 297 315 q 242 224 242 271 m 385 865 q 271 894 321 865 q 192 974 221 924 q 161 1090 163 1025 l 276 1103 q 313 1027 282 1056 q 390 999 343 999 q 464 1024 436 999 q 496 1094 492 1050 l 607 1100 q 581 978 610 1032 q 502 895 553 925 q 385 865 451 865 z "},"ắ":{"ha":779,"x_min":46,"x_max":763,"o":"m 669 99 l 643 138 l 763 100 l 763 1 l 519 -11 l 493 122 l 507 118 q 386 17 451 50 q 251 -17 321 -17 q 104 40 163 -17 q 46 204 46 97 q 80 330 46 283 q 179 397 114 376 q 338 418 244 418 l 489 418 l 475 403 l 475 494 q 444 588 475 560 q 353 615 413 615 q 290 610 324 615 q 218 593 257 604 l 238 614 l 219 501 l 99 501 l 88 704 q 260 745 182 732 q 404 758 339 758 q 601 703 533 758 q 669 531 669 647 l 669 99 m 242 224 q 266 148 242 172 q 328 124 290 124 q 404 145 363 124 q 483 204 446 167 l 475 171 l 475 329 l 489 315 l 369 315 q 269 293 297 315 q 242 224 242 271 m 386 818 q 280 842 331 818 q 197 915 229 867 q 163 1033 164 963 l 275 1046 q 318 967 282 993 q 393 942 354 942 q 466 965 433 942 q 503 1038 499 989 l 613 1042 q 582 919 615 969 q 496 844 549 869 q 386 818 443 818 m 378 1008 l 300 1086 l 497 1296 l 599 1193 l 378 1008 z "},"ặ":{"ha":779,"x_min":46,"x_max":763,"o":"m 669 99 l 643 138 l 763 100 l 763 1 l 519 -11 l 493 122 l 507 118 q 386 17 451 50 q 251 -17 321 -17 q 104 40 163 -17 q 46 204 46 97 q 80 330 46 283 q 179 397 114 376 q 338 418 244 418 l 489 418 l 475 403 l 475 494 q 444 588 475 560 q 353 615 413 615 q 290 610 324 615 q 218 593 257 604 l 238 614 l 219 501 l 99 501 l 88 704 q 260 745 182 732 q 404 758 339 758 q 601 703 533 758 q 669 531 669 647 l 669 99 m 242 224 q 266 148 242 172 q 328 124 290 124 q 404 145 363 124 q 483 204 446 167 l 475 171 l 475 329 l 489 315 l 369 315 q 269 293 297 315 q 242 224 242 271 m 385 865 q 271 894 321 865 q 192 974 221 924 q 161 1090 163 1025 l 276 1103 q 313 1027 282 1056 q 390 999 343 999 q 464 1024 436 999 q 496 1094 492 1050 l 607 1100 q 581 978 610 1032 q 502 895 553 925 q 385 865 451 865 m 389 -304 q 306 -275 338 -304 q 275 -192 275 -246 q 308 -105 275 -133 q 390 -76 340 -76 q 471 -105 439 -76 q 503 -190 503 -133 q 470 -276 503 -247 q 389 -304 438 -304 z "},"ằ":{"ha":779,"x_min":46,"x_max":763,"o":"m 669 99 l 643 138 l 763 100 l 763 1 l 519 -11 l 493 122 l 507 118 q 386 17 451 50 q 251 -17 321 -17 q 104 40 163 -17 q 46 204 46 97 q 80 330 46 283 q 179 397 114 376 q 338 418 244 418 l 489 418 l 475 403 l 475 494 q 444 588 475 560 q 353 615 413 615 q 290 610 324 615 q 218 593 257 604 l 238 614 l 219 501 l 99 501 l 88 704 q 260 745 182 732 q 404 758 339 758 q 601 703 533 758 q 669 531 669 647 l 669 99 m 242 224 q 266 148 242 172 q 328 124 290 124 q 404 145 363 124 q 483 204 446 167 l 475 171 l 475 329 l 489 315 l 369 315 q 269 293 297 315 q 242 224 242 271 m 403 1008 l 481 1086 l 283 1296 l 182 1193 l 403 1008 m 386 818 q 280 842 331 818 q 197 915 229 867 q 163 1033 164 963 l 275 1046 q 318 967 282 993 q 393 942 354 942 q 466 965 433 942 q 503 1038 499 989 l 613 1042 q 582 919 615 969 q 496 844 549 869 q 386 818 443 818 z "},"ẳ":{"ha":779,"x_min":46,"x_max":763,"o":"m 669 99 l 643 138 l 763 100 l 763 1 l 519 -11 l 493 122 l 507 118 q 386 17 451 50 q 251 -17 321 -17 q 104 40 163 -17 q 46 204 46 97 q 80 330 46 283 q 179 397 114 376 q 338 418 244 418 l 489 418 l 475 403 l 475 494 q 444 588 475 560 q 353 615 413 615 q 290 610 324 615 q 218 593 257 604 l 238 614 l 219 501 l 99 501 l 88 704 q 260 745 182 732 q 404 758 339 758 q 601 703 533 758 q 669 531 669 647 l 669 99 m 242 224 q 266 148 242 172 q 328 124 290 124 q 404 145 363 124 q 483 204 446 167 l 475 171 l 475 329 l 489 315 l 369 315 q 269 293 297 315 q 242 224 242 271 m 386 818 q 280 842 331 818 q 197 915 229 867 q 163 1033 164 963 l 275 1046 q 318 967 282 993 q 393 942 354 942 q 466 965 433 942 q 503 1038 499 989 l 613 1042 q 582 919 615 969 q 496 844 549 869 q 386 818 443 818 m 326 1033 l 326 1139 q 404 1157 378 1142 q 431 1200 431 1172 q 413 1235 431 1225 q 367 1246 394 1246 q 325 1242 347 1246 q 281 1231 303 1238 l 257 1319 q 328 1338 293 1332 q 399 1344 364 1344 q 521 1313 469 1344 q 572 1210 572 1281 q 543 1128 572 1163 q 450 1082 514 1094 l 450 1033 l 326 1033 z "},"ẵ":{"ha":779,"x_min":46,"x_max":763,"o":"m 669 99 l 643 138 l 763 100 l 763 1 l 519 -11 l 493 122 l 507 118 q 386 17 451 50 q 251 -17 321 -17 q 104 40 163 -17 q 46 204 46 97 q 80 330 46 283 q 179 397 114 376 q 338 418 244 418 l 489 418 l 475 403 l 475 494 q 444 588 475 560 q 353 615 413 615 q 290 610 324 615 q 218 593 257 604 l 238 614 l 219 501 l 99 501 l 88 704 q 260 745 182 732 q 404 758 339 758 q 601 703 533 758 q 669 531 669 647 l 669 99 m 242 224 q 266 148 242 172 q 328 124 290 124 q 404 145 363 124 q 483 204 446 167 l 475 171 l 475 329 l 489 315 l 369 315 q 269 293 297 315 q 242 224 242 271 m 222 1083 l 146 1121 q 206 1242 171 1204 q 286 1279 240 1279 q 356 1264 322 1279 q 420 1234 389 1249 q 478 1219 451 1219 q 519 1234 500 1219 q 556 1283 538 1249 l 635 1247 q 572 1125 610 1163 q 485 1088 533 1088 q 419 1102 453 1088 q 353 1131 385 1117 q 297 1146 322 1146 q 258 1131 275 1146 q 222 1083 242 1117 m 390 818 q 284 842 335 818 q 201 915 233 867 q 167 1033 168 963 l 279 1046 q 322 967 286 993 q 397 942 358 942 q 470 965 438 942 q 507 1038 503 989 l 617 1042 q 586 919 619 969 q 500 844 553 869 q 390 818 447 818 z "},"â":{"ha":779,"x_min":46,"x_max":763,"o":"m 669 99 l 643 138 l 763 100 l 763 1 l 519 -11 l 493 122 l 507 118 q 386 17 451 50 q 251 -17 321 -17 q 104 40 163 -17 q 46 204 46 97 q 80 330 46 283 q 179 397 114 376 q 338 418 244 418 l 489 418 l 475 403 l 475 494 q 444 588 475 560 q 353 615 413 615 q 290 610 324 615 q 218 593 257 604 l 238 614 l 219 501 l 99 501 l 88 704 q 260 745 182 732 q 404 758 339 758 q 601 703 533 758 q 669 531 669 647 l 669 99 m 242 224 q 266 148 242 172 q 328 124 290 124 q 404 145 363 124 q 483 204 446 167 l 475 171 l 475 329 l 489 315 l 369 315 q 269 293 297 315 q 242 224 242 271 m 189 861 l 125 932 l 324 1131 l 435 1140 l 649 932 l 582 861 l 314 1043 l 449 1042 l 189 861 z "},"ấ":{"ha":779,"x_min":46,"x_max":803,"o":"m 669 99 l 643 138 l 763 100 l 763 1 l 519 -11 l 493 122 l 507 118 q 386 17 451 50 q 251 -17 321 -17 q 104 40 163 -17 q 46 204 46 97 q 80 330 46 283 q 179 397 114 376 q 338 418 244 418 l 489 418 l 475 403 l 475 494 q 444 588 475 560 q 353 615 413 615 q 290 610 324 615 q 218 593 257 604 l 238 614 l 219 501 l 99 501 l 88 704 q 260 745 182 732 q 404 758 339 758 q 601 703 533 758 q 669 531 669 647 l 669 99 m 242 224 q 266 148 242 172 q 328 124 290 124 q 404 145 363 124 q 483 204 446 167 l 475 171 l 475 329 l 489 315 l 369 315 q 269 293 297 315 q 242 224 242 271 m 601 1007 l 517 1075 l 690 1306 l 803 1214 l 601 1007 m 189 801 l 125 874 l 325 1071 l 436 1082 l 649 874 l 583 801 l 315 983 l 450 982 l 189 801 z "},"ậ":{"ha":779,"x_min":46,"x_max":763,"o":"m 669 99 l 643 138 l 763 100 l 763 1 l 519 -11 l 493 122 l 507 118 q 386 17 451 50 q 251 -17 321 -17 q 104 40 163 -17 q 46 204 46 97 q 80 330 46 283 q 179 397 114 376 q 338 418 244 418 l 489 418 l 475 403 l 475 494 q 444 588 475 560 q 353 615 413 615 q 290 610 324 615 q 218 593 257 604 l 238 614 l 219 501 l 99 501 l 88 704 q 260 745 182 732 q 404 758 339 758 q 601 703 533 758 q 669 531 669 647 l 669 99 m 242 224 q 266 148 242 172 q 328 124 290 124 q 404 145 363 124 q 483 204 446 167 l 475 171 l 475 329 l 489 315 l 369 315 q 269 293 297 315 q 242 224 242 271 m 189 861 l 125 932 l 324 1131 l 435 1140 l 649 932 l 582 861 l 314 1043 l 449 1042 l 189 861 m 389 -304 q 306 -275 338 -304 q 275 -192 275 -246 q 308 -105 275 -133 q 390 -76 340 -76 q 471 -105 439 -76 q 503 -190 503 -133 q 470 -276 503 -247 q 389 -304 438 -304 z "},"ầ":{"ha":779,"x_min":46,"x_max":763,"o":"m 669 99 l 643 138 l 763 100 l 763 1 l 519 -11 l 493 122 l 507 118 q 386 17 451 50 q 251 -17 321 -17 q 104 40 163 -17 q 46 204 46 97 q 80 330 46 283 q 179 397 114 376 q 338 418 244 418 l 489 418 l 475 403 l 475 494 q 444 588 475 560 q 353 615 413 615 q 290 610 324 615 q 218 593 257 604 l 238 614 l 219 501 l 99 501 l 88 704 q 260 745 182 732 q 404 758 339 758 q 601 703 533 758 q 669 531 669 647 l 669 99 m 242 224 q 266 148 242 172 q 328 124 290 124 q 404 145 363 124 q 483 204 446 167 l 475 171 l 475 329 l 489 315 l 369 315 q 269 293 297 315 q 242 224 242 271 m 633 1007 l 425 1204 l 532 1303 l 715 1081 l 633 1007 m 192 801 l 128 874 l 328 1071 l 439 1082 l 651 874 l 586 801 l 318 983 l 453 982 l 192 801 z "},"ẩ":{"ha":779,"x_min":46,"x_max":799,"o":"m 669 99 l 643 138 l 763 100 l 763 1 l 519 -11 l 493 122 l 507 118 q 386 17 451 50 q 251 -17 321 -17 q 104 40 163 -17 q 46 204 46 97 q 80 330 46 283 q 179 397 114 376 q 338 418 244 418 l 489 418 l 475 403 l 475 494 q 444 588 475 560 q 353 615 413 615 q 290 610 324 615 q 218 593 257 604 l 238 614 l 219 501 l 99 501 l 88 704 q 260 745 182 732 q 404 758 339 758 q 601 703 533 758 q 669 531 669 647 l 669 99 m 242 224 q 266 148 242 172 q 328 124 290 124 q 404 145 363 124 q 483 204 446 167 l 475 171 l 475 329 l 489 315 l 369 315 q 269 293 297 315 q 242 224 242 271 m 553 993 l 553 1099 q 631 1117 604 1101 q 657 1160 657 1132 q 639 1195 657 1185 q 593 1206 621 1206 q 551 1201 574 1206 q 507 1190 529 1197 l 483 1279 q 555 1298 519 1292 q 625 1304 590 1304 q 747 1272 696 1304 q 799 1169 799 1240 q 769 1088 799 1122 q 676 1042 740 1054 l 676 993 l 553 993 m 192 801 l 128 872 l 326 1071 l 438 1081 l 651 872 l 585 801 l 317 983 l 451 982 l 192 801 z "},"ẫ":{"ha":779,"x_min":46,"x_max":763,"o":"m 669 99 l 643 138 l 763 100 l 763 1 l 519 -11 l 493 122 l 507 118 q 386 17 451 50 q 251 -17 321 -17 q 104 40 163 -17 q 46 204 46 97 q 80 330 46 283 q 179 397 114 376 q 338 418 244 418 l 489 418 l 475 403 l 475 494 q 444 588 475 560 q 353 615 413 615 q 290 610 324 615 q 218 593 257 604 l 238 614 l 219 501 l 99 501 l 88 704 q 260 745 182 732 q 404 758 339 758 q 601 703 533 758 q 669 531 669 647 l 669 99 m 242 224 q 266 148 242 172 q 328 124 290 124 q 404 145 363 124 q 483 204 446 167 l 475 171 l 475 329 l 489 315 l 369 315 q 269 293 297 315 q 242 224 242 271 m 188 797 l 124 868 l 322 1067 l 433 1076 l 647 868 l 581 797 l 313 979 l 447 978 l 188 797 m 204 1094 l 124 1131 q 187 1252 150 1215 q 274 1289 224 1289 q 347 1274 311 1289 q 417 1244 383 1260 q 478 1229 451 1229 q 522 1244 503 1229 q 563 1293 542 1260 l 644 1257 q 577 1135 617 1172 q 485 1097 538 1097 q 414 1113 450 1097 q 344 1142 378 1128 q 283 1157 311 1157 q 243 1142 261 1157 q 204 1094 225 1126 z "},"ȁ":{"ha":779,"x_min":46,"x_max":763,"o":"m 669 99 l 643 138 l 763 100 l 763 1 l 519 -11 l 493 122 l 507 118 q 386 17 451 50 q 251 -17 321 -17 q 104 40 163 -17 q 46 204 46 97 q 80 330 46 283 q 179 397 114 376 q 338 418 244 418 l 489 418 l 475 403 l 475 494 q 444 588 475 560 q 353 615 413 615 q 290 610 324 615 q 218 593 257 604 l 238 614 l 219 501 l 99 501 l 88 704 q 260 745 182 732 q 404 758 339 758 q 601 703 533 758 q 669 531 669 647 l 669 99 m 242 224 q 266 148 242 172 q 328 124 290 124 q 404 145 363 124 q 483 204 446 167 l 475 171 l 475 329 l 489 315 l 369 315 q 269 293 297 315 q 242 224 242 271 m 242 842 l 342 892 l 221 1165 l 89 1096 l 242 842 m 471 842 l 572 889 l 461 1165 l 326 1100 l 471 842 z "},"ä":{"ha":779,"x_min":46,"x_max":763,"o":"m 669 99 l 643 138 l 763 100 l 763 1 l 519 -11 l 493 122 l 507 118 q 386 17 451 50 q 251 -17 321 -17 q 104 40 163 -17 q 46 204 46 97 q 80 330 46 283 q 179 397 114 376 q 338 418 244 418 l 489 418 l 475 403 l 475 494 q 444 588 475 560 q 353 615 413 615 q 290 610 324 615 q 218 593 257 604 l 238 614 l 219 501 l 99 501 l 88 704 q 260 745 182 732 q 404 758 339 758 q 601 703 533 758 q 669 531 669 647 l 669 99 m 242 224 q 266 148 242 172 q 328 124 290 124 q 404 145 363 124 q 483 204 446 167 l 475 171 l 475 329 l 489 315 l 369 315 q 269 293 297 315 q 242 224 242 271 m 538 867 q 467 894 492 867 q 442 969 442 921 q 469 1046 440 1018 q 538 1074 497 1074 q 610 1046 583 1074 q 636 969 636 1018 q 608 894 636 921 q 538 867 579 867 m 232 867 q 163 894 188 867 q 136 969 138 921 q 163 1046 135 1018 q 232 1074 192 1074 q 304 1046 278 1074 q 331 969 331 1018 q 301 894 331 921 q 232 867 272 867 z "},"ạ":{"ha":779,"x_min":46,"x_max":763,"o":"m 669 99 l 643 138 l 763 100 l 763 1 l 519 -11 l 493 122 l 507 118 q 386 17 451 50 q 251 -17 321 -17 q 104 40 163 -17 q 46 204 46 97 q 80 330 46 283 q 179 397 114 376 q 338 418 244 418 l 489 418 l 475 403 l 475 494 q 444 588 475 560 q 353 615 413 615 q 290 610 324 615 q 218 593 257 604 l 238 614 l 219 501 l 99 501 l 88 704 q 260 745 182 732 q 404 758 339 758 q 601 703 533 758 q 669 531 669 647 l 669 99 m 242 224 q 266 148 242 172 q 328 124 290 124 q 404 145 363 124 q 483 204 446 167 l 475 171 l 475 329 l 489 315 l 369 315 q 269 293 297 315 q 242 224 242 271 m 389 -304 q 306 -275 338 -304 q 275 -192 275 -246 q 308 -105 275 -133 q 390 -76 340 -76 q 471 -105 439 -76 q 503 -190 503 -133 q 470 -276 503 -247 q 389 -304 438 -304 z "},"à":{"ha":779,"x_min":46,"x_max":763,"o":"m 669 99 l 643 138 l 763 100 l 763 1 l 519 -11 l 493 122 l 507 118 q 386 17 451 50 q 251 -17 321 -17 q 104 40 163 -17 q 46 204 46 97 q 80 330 46 283 q 179 397 114 376 q 338 418 244 418 l 489 418 l 475 403 l 475 494 q 444 588 475 560 q 353 615 413 615 q 290 610 324 615 q 218 593 257 604 l 238 614 l 219 501 l 99 501 l 88 704 q 260 745 182 732 q 404 758 339 758 q 601 703 533 758 q 669 531 669 647 l 669 99 m 242 224 q 266 148 242 172 q 328 124 290 124 q 404 145 363 124 q 483 204 446 167 l 475 171 l 475 329 l 489 315 l 369 315 q 269 293 297 315 q 242 224 242 271 m 296 1165 l 585 942 l 511 842 l 194 1029 l 296 1165 z "},"ả":{"ha":779,"x_min":46,"x_max":763,"o":"m 669 99 l 643 138 l 763 100 l 763 1 l 519 -11 l 493 122 l 507 118 q 386 17 451 50 q 251 -17 321 -17 q 104 40 163 -17 q 46 204 46 97 q 80 330 46 283 q 179 397 114 376 q 338 418 244 418 l 489 418 l 475 403 l 475 494 q 444 588 475 560 q 353 615 413 615 q 290 610 324 615 q 218 593 257 604 l 238 614 l 219 501 l 99 501 l 88 704 q 260 745 182 732 q 404 758 339 758 q 601 703 533 758 q 669 531 669 647 l 669 99 m 242 224 q 266 148 242 172 q 328 124 290 124 q 404 145 363 124 q 483 204 446 167 l 475 171 l 475 329 l 489 315 l 369 315 q 269 293 297 315 q 242 224 242 271 m 314 832 l 314 951 q 391 969 364 954 q 418 1011 418 983 q 400 1046 418 1036 q 354 1056 382 1056 q 313 1052 335 1056 q 268 1042 290 1049 l 244 1129 q 315 1149 279 1143 q 386 1156 351 1156 q 510 1124 460 1156 q 561 1021 561 1092 q 532 940 561 974 q 436 893 503 906 l 436 832 l 314 832 z "},"ȃ":{"ha":779,"x_min":46,"x_max":763,"o":"m 669 99 l 643 138 l 763 100 l 763 1 l 519 -11 l 493 122 l 507 118 q 386 17 451 50 q 251 -17 321 -17 q 104 40 163 -17 q 46 204 46 97 q 80 330 46 283 q 179 397 114 376 q 338 418 244 418 l 489 418 l 475 403 l 475 494 q 444 588 475 560 q 353 615 413 615 q 290 610 324 615 q 218 593 257 604 l 238 614 l 219 501 l 99 501 l 88 704 q 260 745 182 732 q 404 758 339 758 q 601 703 533 758 q 669 531 669 647 l 669 99 m 242 224 q 266 148 242 172 q 328 124 290 124 q 404 145 363 124 q 483 204 446 167 l 475 171 l 475 329 l 489 315 l 369 315 q 269 293 297 315 q 242 224 242 271 m 386 1097 q 501 1068 451 1097 q 579 989 550 1039 q 610 872 608 939 l 496 860 q 459 936 490 908 q 381 964 428 964 q 308 938 335 964 q 276 868 281 913 l 164 863 q 190 985 163 932 q 269 1067 218 1038 q 386 1097 321 1097 z "},"ā":{"ha":779,"x_min":46,"x_max":763,"o":"m 669 99 l 643 138 l 763 100 l 763 1 l 519 -11 l 493 122 l 507 118 q 386 17 451 50 q 251 -17 321 -17 q 104 40 163 -17 q 46 204 46 97 q 80 330 46 283 q 179 397 114 376 q 338 418 244 418 l 489 418 l 475 403 l 475 494 q 444 588 475 560 q 353 615 413 615 q 290 610 324 615 q 218 593 257 604 l 238 614 l 219 501 l 99 501 l 88 704 q 260 745 182 732 q 404 758 339 758 q 601 703 533 758 q 669 531 669 647 l 669 99 m 242 224 q 266 148 242 172 q 328 124 290 124 q 404 145 363 124 q 483 204 446 167 l 475 171 l 475 329 l 489 315 l 369 315 q 269 293 297 315 q 242 224 242 271 m 594 1053 l 594 918 l 178 918 l 178 1053 l 594 1053 z "},"ą":{"ha":779,"x_min":46,"x_max":763,"o":"m 669 99 l 643 138 l 763 100 l 763 1 l 519 -11 l 493 122 l 507 118 q 386 17 451 50 q 251 -17 321 -17 q 104 40 163 -17 q 46 204 46 97 q 80 330 46 283 q 179 397 114 376 q 338 418 244 418 l 489 418 l 475 403 l 475 494 q 444 588 475 560 q 353 615 413 615 q 290 610 324 615 q 218 593 257 604 l 238 614 l 219 501 l 99 501 l 88 704 q 260 745 182 732 q 404 758 339 758 q 601 703 533 758 q 669 531 669 647 l 669 99 m 242 224 q 266 148 242 172 q 328 124 290 124 q 404 145 363 124 q 483 204 446 167 l 475 171 l 475 329 l 489 315 l 369 315 q 269 293 297 315 q 242 224 242 271 m 544 -311 q 417 -274 467 -311 q 368 -172 368 -237 q 397 -80 368 -128 q 482 8 425 -32 q 626 72 539 49 l 644 0 q 544 -56 581 -21 q 508 -125 508 -92 q 535 -170 508 -154 q 599 -186 561 -186 q 624 -185 611 -186 q 649 -181 636 -183 l 660 -292 q 600 -306 629 -301 q 544 -311 571 -311 z "},"å":{"ha":779,"x_min":46,"x_max":763,"o":"m 669 99 l 643 138 l 763 100 l 763 1 l 519 -11 l 493 122 l 507 118 q 386 17 451 50 q 251 -17 321 -17 q 104 40 163 -17 q 46 204 46 97 q 80 330 46 283 q 179 397 114 376 q 338 418 244 418 l 489 418 l 475 403 l 475 494 q 444 588 475 560 q 353 615 413 615 q 290 610 324 615 q 218 593 257 604 l 238 614 l 219 501 l 99 501 l 88 704 q 260 745 182 732 q 404 758 339 758 q 601 703 533 758 q 669 531 669 647 l 669 99 m 242 224 q 266 148 242 172 q 328 124 290 124 q 404 145 363 124 q 483 204 446 167 l 475 171 l 475 329 l 489 315 l 369 315 q 269 293 297 315 q 242 224 242 271 m 383 840 q 284 863 325 840 q 221 923 243 885 q 199 1008 199 961 q 221 1095 199 1057 q 285 1156 243 1133 q 389 1179 328 1179 q 488 1157 447 1179 q 551 1097 529 1135 q 572 1011 572 1058 q 550 926 572 965 q 486 863 528 886 q 383 840 444 840 m 385 931 q 438 953 421 931 q 456 1011 456 975 q 438 1067 456 1046 q 386 1089 421 1089 q 333 1067 351 1089 q 315 1008 315 1044 q 332 952 315 974 q 385 931 349 931 z "},"ǻ":{"ha":779,"x_min":46,"x_max":763,"o":"m 669 99 l 643 138 l 763 100 l 763 1 l 519 -11 l 493 122 l 507 118 q 386 17 451 50 q 251 -17 321 -17 q 104 40 163 -17 q 46 204 46 97 q 80 330 46 283 q 179 397 114 376 q 338 418 244 418 l 489 418 l 475 403 l 475 494 q 444 588 475 560 q 353 615 413 615 q 290 610 324 615 q 218 593 257 604 l 238 614 l 219 501 l 99 501 l 88 704 q 260 745 182 732 q 404 758 339 758 q 601 703 533 758 q 669 531 669 647 l 669 99 m 242 224 q 266 148 242 172 q 328 124 290 124 q 404 145 363 124 q 483 204 446 167 l 475 171 l 475 329 l 489 315 l 369 315 q 269 293 297 315 q 242 224 242 271 m 229 1126 l 174 1232 l 497 1404 l 571 1257 l 229 1126 m 385 797 q 285 819 326 797 q 221 880 243 842 q 199 965 199 918 q 221 1052 199 1014 q 286 1113 243 1090 q 389 1136 329 1136 q 488 1114 447 1136 q 551 1053 529 1092 q 574 968 574 1015 q 551 883 574 922 q 487 820 529 843 q 385 797 444 797 m 385 888 q 438 910 421 888 q 456 968 456 932 q 439 1024 456 1003 q 386 1046 422 1046 q 334 1024 351 1046 q 317 965 317 1001 q 333 909 317 931 q 385 888 350 888 z "}}}
